<svg xmlns="http://www.w3.org/2000/svg" xmlns:xlink="http://www.w3.org/1999/xlink" viewBox="0 0 524.6 454.54"><defs><style>.cls-1{fill:none;}.cls-2{fill:#e6e6e6;}.cls-3{clip-path:url(#clip-path);}.cls-4{fill:#dbdbdb;}.cls-5{fill:#f5f5f5;}.cls-6{opacity:0.5;}.cls-7{fill:#00b5f4;}.cls-8{fill:#34234d;}.cls-9{fill:#fff;}.cls-10{fill:#cbcbcb;}.cls-11{fill:#ff5168;}.cls-12{opacity:0.3;}.cls-13{fill:#212121;}.cls-14{fill:#221733;}.cls-15{fill:#320d26;}.cls-16{fill:#2b1d40;}.cls-17{fill:url(#Безымянный_градиент_17);}.cls-18{fill:url(#Безымянный_градиент_17-2);}.cls-19{fill:url(#Безымянный_градиент_17-3);}.cls-20{fill:url(#Безымянный_градиент_17-4);}.cls-21{fill:url(#Безымянный_градиент_17-5);}.cls-22{fill:url(#Безымянный_градиент_17-6);}.cls-23{fill:url(#Безымянный_градиент_17-7);}.cls-24{fill:#fafafa;}</style><clipPath id="clip-path"><path class="cls-1" d="M329.66,2.76c-81.13,17.14-69,111.9-208.71,165.08-149.7,57-59,272,111.29,284.24,169.52,12.19,247.69-64.25,265.09-209.51C510.42,133.34,450.21-22.7,329.66,2.76Z"/></clipPath><linearGradient id="Безымянный_градиент_17" x1="1071.74" y1="-75.19" x2="1079.3" y2="-75.19" gradientTransform="matrix(-0.96, 0.28, 0.28, 0.96, 1248.33, 71.69)" gradientUnits="userSpaceOnUse"><stop offset="0" stop-color="#aaceff"/><stop offset="1" stop-color="#dbe9ff"/></linearGradient><linearGradient id="Безымянный_градиент_17-2" x1="1062.64" y1="-75.19" x2="1070.2" y2="-75.19" xlink:href="#Безымянный_градиент_17"/><linearGradient id="Безымянный_градиент_17-3" x1="1053.54" y1="-75.19" x2="1061.1" y2="-75.19" xlink:href="#Безымянный_градиент_17"/><linearGradient id="Безымянный_градиент_17-4" x1="1044.44" y1="-75.19" x2="1051.99" y2="-75.19" xlink:href="#Безымянный_градиент_17"/><linearGradient id="Безымянный_градиент_17-5" x1="1036.86" y1="-75.19" x2="1041.28" y2="-75.19" xlink:href="#Безымянный_градиент_17"/><linearGradient id="Безымянный_градиент_17-6" x1="1031.5" y1="-75.19" x2="1035.91" y2="-75.19" xlink:href="#Безымянный_градиент_17"/><linearGradient id="Безымянный_градиент_17-7" x1="1026.45" y1="-75.19" x2="1030.86" y2="-75.19" xlink:href="#Безымянный_градиент_17"/></defs><title>Asset 31</title><g id="Layer_2" data-name="Layer 2"><g id="Layer_1-2" data-name="Layer 1"><path class="cls-2" d="M329.66,2.76c-81.13,17.14-69,111.9-208.71,165.08-149.7,57-59,272,111.29,284.24,169.52,12.19,247.69-64.25,265.09-209.51C510.42,133.34,450.21-22.7,329.66,2.76Z"/><path class="cls-2" d="M139,148.35c36.39-12.5,91.53-70.92,71.59-136.37S31.57,185.26,139,148.35Z"/><g class="cls-3"><polygon class="cls-4" points="88.41 99.54 88.41 454.12 120.17 454.12 120.15 99.54 88.41 99.54"/><polygon class="cls-5" points="120.17 454.12 278.84 454.14 278.84 99.54 120.17 99.54 120.17 454.12"/><polygon class="cls-4" points="129.96 440.39 269.05 440.42 269.05 112.14 129.96 111.98 129.96 440.39"/><g class="cls-6"><rect class="cls-5" x="247.46" y="117.26" width="18.57" height="5.41"/></g><g class="cls-6"><rect class="cls-5" x="237.94" y="117.25" width="6.69" height="5.41"/></g><g class="cls-6"><rect class="cls-5" x="230.12" y="117.67" width="5.41" height="4.54" transform="translate(112.58 352.61) rotate(-89.93)"/></g><g class="cls-6"><rect class="cls-5" x="255.91" y="129.62" width="10.12" height="5.41"/></g><g class="cls-6"><rect class="cls-5" x="244.17" y="126.11" width="5.41" height="12.4" transform="translate(114.32 379.05) rotate(-89.94)"/></g><g class="cls-6"><rect class="cls-5" x="233.29" y="129.59" width="4.54" height="5.41"/></g><g class="cls-6"><rect class="cls-5" x="226.27" y="129.59" width="4.54" height="5.41"/></g><rect class="cls-5" x="259.66" y="141.01" width="5.41" height="7.32" transform="translate(117.42 406.89) rotate(-89.94)"/><polygon class="cls-5" points="253.37 147.37 255.87 147.37 255.87 141.96 253.37 141.96 253.37 147.37"/><g class="cls-6"><rect class="cls-5" x="245.99" y="141.96" width="4.54" height="5.41"/></g><g class="cls-6"><rect class="cls-5" x="239.01" y="154.31" width="27.02" height="5.41"/></g><g class="cls-6"><rect class="cls-5" x="229.48" y="154.29" width="6.68" height="5.41"/></g><g class="cls-6"><rect class="cls-5" x="258.71" y="166.67" width="7.32" height="5.41"/></g><g class="cls-6"><rect class="cls-5" x="241.53" y="166.66" width="14.34" height="5.41"/></g><g class="cls-6"><rect class="cls-5" x="234.15" y="166.65" width="4.54" height="5.41"/></g><g class="cls-6"><rect class="cls-5" x="251.05" y="179.02" width="14.98" height="5.41"/></g><rect class="cls-5" x="237.38" y="179.01" width="10.83" height="5.41"/><g class="cls-6"><rect class="cls-5" x="228.18" y="178.04" width="5.41" height="7.32" transform="translate(48.93 412.38) rotate(-89.94)"/></g><g class="cls-6"><rect class="cls-5" x="260.97" y="191.37" width="5.06" height="5.41"/></g><g class="cls-6"><rect class="cls-5" x="251.45" y="191.37" width="6.69" height="5.41"/></g><g class="cls-6"><rect class="cls-5" x="237.84" y="191.36" width="10.77" height="5.41"/></g><g class="cls-6"><rect class="cls-5" x="250.53" y="203.72" width="15.5" height="5.41"/></g><g class="cls-6"><rect class="cls-5" x="233.18" y="203.71" width="14.52" height="5.41"/></g><rect class="cls-5" x="225.79" y="203.7" width="4.54" height="5.41"/><g class="cls-6"><rect class="cls-5" x="218.71" y="203.69" width="4.54" height="5.41"/></g><g class="cls-6"><rect class="cls-5" x="256.74" y="216.07" width="9.28" height="5.41"/></g><rect class="cls-5" x="205.03" y="117.22" width="12.88" height="5.41"/><g class="cls-6"><rect class="cls-5" x="205.03" y="129.57" width="10.12" height="5.41"/></g><g class="cls-6"><rect class="cls-5" x="205.03" y="141.92" width="7.32" height="5.41"/></g><g class="cls-6"><rect class="cls-5" x="205.03" y="154.27" width="10.65" height="5.41"/></g><g class="cls-6"><rect class="cls-5" x="205.03" y="166.62" width="7.32" height="5.41"/></g><g class="cls-6"><rect class="cls-5" x="205.03" y="178.98" width="9.29" height="5.41"/></g><g class="cls-6"><rect class="cls-5" x="205.03" y="191.33" width="5.06" height="5.41"/></g><g class="cls-6"><rect class="cls-5" x="205.03" y="203.68" width="9.8" height="5.41"/></g><g class="cls-6"><rect class="cls-5" x="205.03" y="216.03" width="9.29" height="5.41"/></g><g class="cls-6"><rect class="cls-5" x="249.96" y="216.07" width="3.95" height="5.41"/></g><g class="cls-6"><rect class="cls-5" x="238.23" y="216.06" width="8.89" height="5.41"/></g><g class="cls-6"><rect class="cls-5" x="175.43" y="116.98" width="18.58" height="5.41"/></g><g class="cls-6"><rect class="cls-5" x="165.91" y="116.96" width="6.69" height="5.41"/></g><rect class="cls-5" x="158.52" y="116.95" width="4.55" height="5.41"/><g class="cls-6"><rect class="cls-5" x="183.89" y="129.34" width="10.12" height="5.41"/></g><rect class="cls-5" x="172.14" y="125.82" width="5.41" height="12.4" transform="matrix(0, -1, 1, 0, 42.64, 306.74)"/><polygon class="cls-5" points="161.26 134.72 165.81 134.72 165.81 129.31 161.26 129.31 161.26 134.72"/><g class="cls-6"><polygon class="cls-5" points="154.24 134.71 158.78 134.72 158.78 129.31 154.24 129.3 154.24 134.71"/></g><g class="cls-6"><rect class="cls-5" x="186.69" y="141.69" width="7.32" height="5.41"/></g><g class="cls-6"><rect class="cls-5" x="179.89" y="143.14" width="5.41" height="2.5" transform="translate(37.99 326.81) rotate(-89.93)"/></g><g class="cls-6"><rect class="cls-5" x="173.96" y="141.68" width="4.55" height="5.41"/></g><g class="cls-6"><rect class="cls-5" x="166.98" y="154.03" width="27.03" height="5.41"/></g><g class="cls-6"><rect class="cls-5" x="158.09" y="153.38" width="5.41" height="6.69" transform="translate(3.91 317.36) rotate(-89.94)"/></g><g class="cls-6"><rect class="cls-5" x="187.65" y="165.44" width="5.41" height="7.32" transform="translate(21.05 359.27) rotate(-89.94)"/></g><g class="cls-6"><rect class="cls-5" x="169.5" y="166.38" width="14.35" height="5.41"/></g><g class="cls-6"><rect class="cls-5" x="162.12" y="166.37" width="4.54" height="5.41"/></g><rect class="cls-5" x="179.03" y="178.75" width="14.98" height="5.41"/><g class="cls-6"><rect class="cls-5" x="165.35" y="178.73" width="10.84" height="5.41"/></g><g class="cls-6"><rect class="cls-5" x="155.19" y="178.72" width="7.33" height="5.41"/></g><g class="cls-6"><rect class="cls-5" x="188.95" y="191.1" width="5.06" height="5.41"/></g><g class="cls-6"><rect class="cls-5" x="179.42" y="191.1" width="6.69" height="5.41"/></g><rect class="cls-5" x="165.81" y="191.09" width="10.78" height="5.41"/><g class="cls-6"><rect class="cls-5" x="178.51" y="203.45" width="15.5" height="5.41"/></g><g class="cls-6"><rect class="cls-5" x="161.14" y="203.44" width="14.53" height="5.41"/></g><g class="cls-6"><rect class="cls-5" x="153.76" y="203.43" width="4.55" height="5.41"/></g><g class="cls-6"><rect class="cls-5" x="146.67" y="203.43" width="4.54" height="5.41"/></g><g class="cls-6"><rect class="cls-5" x="184.72" y="215.81" width="9.29" height="5.41"/></g><rect class="cls-5" x="132.99" y="116.93" width="12.88" height="5.41"/><g class="cls-6"><rect class="cls-5" x="132.99" y="129.29" width="10.13" height="5.41"/></g><g class="cls-6"><rect class="cls-5" x="132.99" y="141.64" width="7.33" height="5.41"/></g><g class="cls-6"><rect class="cls-5" x="132.99" y="154" width="10.66" height="5.41"/></g><g class="cls-6"><rect class="cls-5" x="132.99" y="166.35" width="7.33" height="5.41"/></g><g class="cls-6"><rect class="cls-5" x="132.99" y="178.71" width="9.29" height="5.41"/></g><g class="cls-6"><rect class="cls-5" x="132.99" y="191.06" width="5.06" height="5.41"/></g><g class="cls-6"><rect class="cls-5" x="132.99" y="203.42" width="9.81" height="5.41"/></g><g class="cls-6"><rect class="cls-5" x="132.99" y="215.77" width="9.29" height="5.41"/></g><rect class="cls-5" x="177.93" y="215.8" width="3.95" height="5.41"/><g class="cls-6"><rect class="cls-5" x="166.2" y="215.8" width="8.89" height="5.41"/></g><rect class="cls-5" x="247.46" y="228.49" width="18.57" height="5.41"/><g class="cls-6"><rect class="cls-5" x="237.94" y="228.48" width="6.69" height="5.41"/></g><g class="cls-6"><rect class="cls-5" x="230.56" y="228.47" width="4.54" height="5.41"/></g><g class="cls-6"><rect class="cls-5" x="255.91" y="240.84" width="10.12" height="5.41"/></g><g class="cls-6"><rect class="cls-5" x="240.67" y="240.84" width="12.4" height="5.41"/></g><g class="cls-6"><rect class="cls-5" x="233.29" y="240.83" width="4.54" height="5.41"/></g><g class="cls-6"><rect class="cls-5" x="226.27" y="240.82" width="4.54" height="5.41"/></g><g class="cls-6"><rect class="cls-5" x="258.71" y="253.2" width="7.32" height="5.41"/></g><g class="cls-6"><rect class="cls-5" x="253.37" y="253.19" width="2.5" height="5.41"/></g><g class="cls-6"><rect class="cls-5" x="245.99" y="253.19" width="4.54" height="5.41"/></g><g class="cls-6"><rect class="cls-5" x="239.01" y="265.54" width="27.02" height="5.41"/></g><rect class="cls-5" x="229.48" y="265.53" width="6.68" height="5.41"/><g class="cls-6"><rect class="cls-5" x="258.71" y="277.9" width="7.32" height="5.41"/></g><g class="cls-6"><rect class="cls-5" x="241.53" y="277.89" width="14.34" height="5.41"/></g><g class="cls-6"><rect class="cls-5" x="234.15" y="277.88" width="4.54" height="5.41"/></g><g class="cls-6"><rect class="cls-5" x="251.05" y="290.25" width="14.98" height="5.41"/></g><g class="cls-6"><rect class="cls-5" x="237.38" y="290.24" width="10.83" height="5.41"/></g><g class="cls-6"><rect class="cls-5" x="227.22" y="290.23" width="7.32" height="5.41"/></g><g class="cls-6"><rect class="cls-5" x="260.97" y="302.6" width="5.06" height="5.41"/></g><g class="cls-6"><rect class="cls-5" x="251.45" y="302.6" width="6.69" height="5.41"/></g><g class="cls-6"><rect class="cls-5" x="237.84" y="302.59" width="10.77" height="5.41"/></g><g class="cls-6"><rect class="cls-5" x="250.53" y="314.95" width="15.5" height="5.41"/></g><rect class="cls-5" x="233.18" y="314.94" width="14.52" height="5.41"/><g class="cls-6"><rect class="cls-5" x="225.79" y="314.94" width="4.54" height="5.41"/></g><g class="cls-6"><rect class="cls-5" x="218.71" y="314.93" width="4.54" height="5.41"/></g><g class="cls-6"><rect class="cls-5" x="256.74" y="327.3" width="9.28" height="5.41"/></g><g class="cls-6"><rect class="cls-5" x="205.03" y="228.46" width="12.88" height="5.41"/></g><g class="cls-6"><rect class="cls-5" x="205.03" y="240.81" width="10.12" height="5.41"/></g><g class="cls-6"><rect class="cls-5" x="205.03" y="253.16" width="7.32" height="5.41"/></g><rect class="cls-5" x="205.03" y="265.52" width="10.65" height="5.41"/><g class="cls-6"><rect class="cls-5" x="205.03" y="277.87" width="7.32" height="5.41"/></g><g class="cls-6"><rect class="cls-5" x="205.03" y="290.22" width="9.29" height="5.41"/></g><g class="cls-6"><rect class="cls-5" x="205.03" y="302.57" width="5.06" height="5.41"/></g><g class="cls-6"><rect class="cls-5" x="205.03" y="314.93" width="9.8" height="5.41"/></g><g class="cls-6"><rect class="cls-5" x="205.03" y="327.28" width="9.29" height="5.41"/></g><g class="cls-6"><rect class="cls-5" x="249.96" y="327.3" width="3.95" height="5.41"/></g><rect class="cls-5" x="238.23" y="327.29" width="8.89" height="5.41"/><rect class="cls-5" x="230.88" y="422.87" width="15" height="4.95"/><g class="cls-6"><rect class="cls-5" x="220.61" y="422.86" width="5.91" height="4.95"/></g><g class="cls-6"><rect class="cls-5" x="175.43" y="228.23" width="18.58" height="5.41"/></g><g class="cls-6"><rect class="cls-5" x="165.91" y="228.22" width="6.69" height="5.41"/></g><g class="cls-6"><rect class="cls-5" x="158.09" y="228.65" width="5.41" height="4.55" transform="translate(-70.3 391.46) rotate(-89.94)"/></g><g class="cls-6"><rect class="cls-5" x="183.89" y="240.59" width="10.12" height="5.41"/></g><g class="cls-6"><rect class="cls-5" x="168.65" y="240.58" width="12.4" height="5.41"/></g><g class="cls-6"><rect class="cls-5" x="161.26" y="240.57" width="4.55" height="5.41"/></g><g class="cls-6"><rect class="cls-5" x="154.24" y="240.57" width="4.54" height="5.41"/></g><g class="cls-6"><rect class="cls-5" x="186.69" y="252.94" width="7.32" height="5.41"/></g><g class="cls-6"><rect class="cls-5" x="181.35" y="252.94" width="2.5" height="5.41"/></g><g class="cls-6"><rect class="cls-5" x="173.96" y="252.93" width="4.55" height="5.41"/></g><g class="cls-6"><rect class="cls-5" x="166.98" y="265.29" width="27.03" height="5.41"/></g><g class="cls-6"><rect class="cls-5" x="157.45" y="265.28" width="6.69" height="5.41"/></g><g class="cls-6"><rect class="cls-5" x="186.69" y="277.65" width="7.32" height="5.41"/></g><rect class="cls-5" x="169.5" y="277.64" width="14.35" height="5.41"/><g class="cls-6"><rect class="cls-5" x="162.12" y="277.63" width="4.54" height="5.41"/></g><g class="cls-6"><rect class="cls-5" x="179.03" y="290" width="14.98" height="5.41"/></g><g class="cls-6"><rect class="cls-5" x="165.35" y="289.99" width="10.84" height="5.41"/></g><g class="cls-6"><rect class="cls-5" x="155.19" y="289.99" width="7.33" height="5.41"/></g><g class="cls-6"><rect class="cls-5" x="188.95" y="302.35" width="5.06" height="5.41"/></g><g class="cls-6"><rect class="cls-5" x="179.42" y="302.35" width="6.69" height="5.41"/></g><g class="cls-6"><rect class="cls-5" x="165.81" y="302.35" width="10.78" height="5.41"/></g><g class="cls-6"><rect class="cls-5" x="178.51" y="314.71" width="15.5" height="5.41"/></g><g class="cls-6"><rect class="cls-5" x="161.14" y="314.7" width="14.53" height="5.41"/></g><g class="cls-6"><rect class="cls-5" x="153.76" y="314.69" width="4.55" height="5.41"/></g><g class="cls-6"><rect class="cls-5" x="146.67" y="314.69" width="4.54" height="5.41"/></g><g class="cls-6"><rect class="cls-5" x="184.72" y="327.06" width="9.29" height="5.41"/></g><g class="cls-6"><rect class="cls-5" x="132.99" y="228.2" width="12.88" height="5.41"/></g><rect class="cls-5" x="132.99" y="240.55" width="10.13" height="5.41"/><rect class="cls-5" x="132.99" y="252.91" width="7.33" height="5.41"/><g class="cls-6"><rect class="cls-5" x="132.99" y="265.27" width="10.66" height="5.41"/></g><g class="cls-6"><rect class="cls-5" x="132.99" y="277.62" width="7.33" height="5.41"/></g><g class="cls-6"><rect class="cls-5" x="132.99" y="289.97" width="9.29" height="5.41"/></g><g class="cls-6"><rect class="cls-5" x="132.99" y="302.33" width="5.06" height="5.41"/></g><g class="cls-6"><rect class="cls-5" x="132.99" y="314.69" width="9.81" height="5.41"/></g><g class="cls-6"><rect class="cls-5" x="132.99" y="327.04" width="9.29" height="5.41"/></g><g class="cls-6"><rect class="cls-5" x="177.93" y="327.06" width="3.95" height="5.41"/></g><g class="cls-6"><rect class="cls-5" x="166.2" y="327.05" width="8.89" height="5.41"/></g><polygon class="cls-5" points="239.01 406.51 266.03 406.6 266.03 401.19 239.01 401.11 239.01 406.51"/><g class="cls-6"><polygon class="cls-5" points="229.49 406.49 236.17 406.5 236.17 401.1 229.49 401.08 229.49 406.49"/></g><g class="cls-6"><polygon class="cls-5" points="258.71 394.22 266.03 394.25 266.03 388.84 258.71 388.82 258.71 394.22"/></g><g class="cls-6"><polygon class="cls-5" points="241.53 394.17 255.87 394.21 255.87 388.81 241.53 388.76 241.53 394.17"/></g><polygon class="cls-5" points="234.15 394.15 238.69 394.16 238.69 388.75 234.15 388.74 234.15 394.15"/><g class="cls-6"><polygon class="cls-5" points="251.05 381.85 266.03 381.9 266.03 376.49 251.05 376.44 251.05 381.85"/></g><g class="cls-6"><polygon class="cls-5" points="237.38 381.81 248.21 381.84 248.21 376.43 237.38 376.4 237.38 381.81"/></g><g class="cls-6"><polygon class="cls-5" points="227.22 381.77 234.54 381.8 234.54 376.39 227.22 376.37 227.22 381.77"/></g><g class="cls-6"><polygon class="cls-5" points="260.97 369.53 266.03 369.55 266.03 364.14 260.97 364.12 260.97 369.53"/></g><g class="cls-6"><polygon class="cls-5" points="251.45 369.5 258.13 369.52 258.13 364.11 251.45 364.09 251.45 369.5"/></g><g class="cls-6"><polygon class="cls-5" points="237.84 369.46 248.61 369.49 248.61 364.08 237.84 364.05 237.84 369.46"/></g><g class="cls-6"><polygon class="cls-5" points="250.53 357.15 266.03 357.19 266.03 351.79 250.53 351.74 250.53 357.15"/></g><polygon class="cls-5" points="233.18 357.09 247.69 357.14 247.69 351.73 233.18 351.68 233.18 357.09"/><g class="cls-6"><polygon class="cls-5" points="225.79 357.06 230.34 357.08 230.34 351.67 225.79 351.66 225.79 357.06"/></g><g class="cls-6"><polygon class="cls-5" points="218.71 357.04 223.25 357.06 223.25 351.65 218.71 351.63 218.71 357.04"/></g><g class="cls-6"><polygon class="cls-5" points="256.75 344.81 266.03 344.84 266.03 339.44 256.75 339.41 256.75 344.81"/></g><g class="cls-6"><rect class="cls-5" x="205.03" y="339.38" width="10.65" height="5.41"/></g><g class="cls-6"><rect class="cls-5" x="205.03" y="351.73" width="7.32" height="5.41"/></g><g class="cls-6"><rect class="cls-5" x="205.03" y="364.08" width="9.29" height="5.41"/></g><g class="cls-6"><rect class="cls-5" x="205.03" y="376.44" width="5.06" height="5.41"/></g><g class="cls-6"><rect class="cls-5" x="205.03" y="388.79" width="9.8" height="5.41"/></g><g class="cls-6"><rect class="cls-5" x="205.03" y="401.14" width="9.29" height="5.41"/></g><g class="cls-6"><polygon class="cls-5" points="249.96 344.79 253.91 344.81 253.91 339.4 249.96 339.39 249.96 344.79"/></g><g class="cls-6"><polygon class="cls-5" points="238.24 344.75 247.12 344.78 247.12 339.38 238.24 339.35 238.24 344.75"/></g><rect class="cls-5" x="166.98" y="339.16" width="27.03" height="5.41"/><g class="cls-6"><rect class="cls-5" x="157.45" y="339.15" width="6.69" height="5.41"/></g><g class="cls-6"><rect class="cls-5" x="186.69" y="351.51" width="7.32" height="5.41"/></g><g class="cls-6"><rect class="cls-5" x="169.5" y="351.51" width="14.35" height="5.41"/></g><g class="cls-6"><rect class="cls-5" x="162.12" y="351.51" width="4.54" height="5.41"/></g><g class="cls-6"><rect class="cls-5" x="179.03" y="363.87" width="14.98" height="5.41"/></g><g class="cls-6"><rect class="cls-5" x="165.35" y="363.86" width="10.84" height="5.41"/></g><g class="cls-6"><rect class="cls-5" x="155.19" y="363.86" width="7.33" height="5.41"/></g><g class="cls-6"><rect class="cls-5" x="188.95" y="376.22" width="5.06" height="5.41"/></g><g class="cls-6"><rect class="cls-5" x="179.42" y="376.22" width="6.69" height="5.41"/></g><g class="cls-6"><rect class="cls-5" x="165.81" y="376.22" width="10.78" height="5.41"/></g><g class="cls-6"><rect class="cls-5" x="178.51" y="388.57" width="15.5" height="5.41"/></g><rect class="cls-5" x="161.14" y="388.57" width="14.53" height="5.41"/><g class="cls-6"><rect class="cls-5" x="153.76" y="388.57" width="4.55" height="5.41"/></g><g class="cls-6"><rect class="cls-5" x="146.67" y="388.57" width="4.54" height="5.41"/></g><g class="cls-6"><rect class="cls-5" x="184.72" y="400.93" width="9.29" height="5.41"/></g><g class="cls-6"><rect class="cls-5" x="132.99" y="339.14" width="10.66" height="5.41"/></g><rect class="cls-5" x="132.99" y="351.5" width="7.33" height="5.41"/><g class="cls-6"><rect class="cls-5" x="132.99" y="363.85" width="9.29" height="5.41"/></g><g class="cls-6"><rect class="cls-5" x="132.99" y="376.21" width="5.06" height="5.41"/></g><g class="cls-6"><rect class="cls-5" x="132.99" y="388.56" width="9.81" height="5.41"/></g><rect class="cls-5" x="132.99" y="400.92" width="9.29" height="5.41"/><g class="cls-6"><rect class="cls-5" x="177.93" y="400.92" width="3.95" height="5.41"/></g><rect class="cls-5" x="166.2" y="400.92" width="8.89" height="5.41"/><g class="cls-6"><rect class="cls-5" x="158.85" y="422.66" width="15.01" height="4.95"/></g><g class="cls-6"><rect class="cls-5" x="148.57" y="422.65" width="5.91" height="4.95"/></g><rect class="cls-5" x="148.57" y="430.24" width="15.01" height="4.95"/><g class="cls-6"><rect class="cls-5" x="167.94" y="430.24" width="5.91" height="4.95"/></g><g class="cls-6"><rect class="cls-5" x="220.61" y="430.45" width="15" height="4.95"/></g><g class="cls-6"><rect class="cls-5" x="239.97" y="430.45" width="5.91" height="4.95"/></g><polygon class="cls-4" points="293.11 131.65 293.11 454.12 322 454.12 321.98 131.65 293.11 131.65"/><polygon class="cls-5" points="322 454.12 466.3 454.14 466.3 131.65 322 131.65 322 454.12"/><polygon class="cls-4" points="330.9 441.64 457.39 441.66 457.39 143.11 330.9 142.97 330.9 441.64"/><g class="cls-6"><rect class="cls-5" x="437.76" y="147.77" width="16.89" height="4.92"/></g><g class="cls-6"><rect class="cls-5" x="429.1" y="147.75" width="6.08" height="4.92"/></g><g class="cls-6"><rect class="cls-5" x="421.99" y="148.14" width="4.92" height="4.13" transform="matrix(0, -1, 1, 0, 273.75, 574.48)"/></g><g class="cls-6"><rect class="cls-5" x="445.45" y="159" width="9.2" height="4.92"/></g><g class="cls-6"><rect class="cls-5" x="434.77" y="155.81" width="4.92" height="11.28" transform="translate(275.32 598.51) rotate(-89.94)"/></g><g class="cls-6"><rect class="cls-5" x="424.88" y="158.98" width="4.13" height="4.92"/></g><g class="cls-6"><rect class="cls-5" x="418.49" y="158.98" width="4.13" height="4.92"/></g><rect class="cls-5" x="448.86" y="169.37" width="4.92" height="6.66" transform="translate(278.09 623.81) rotate(-89.93)"/><rect class="cls-5" x="443.13" y="170.23" width="2.28" height="4.92"/><g class="cls-6"><rect class="cls-5" x="436.42" y="170.23" width="4.13" height="4.92"/></g><g class="cls-6"><rect class="cls-5" x="430.07" y="181.46" width="24.57" height="4.92"/></g><g class="cls-6"><rect class="cls-5" x="421.41" y="181.45" width="6.08" height="4.92"/></g><g class="cls-6"><rect class="cls-5" x="447.99" y="192.7" width="6.66" height="4.92"/></g><g class="cls-6"><rect class="cls-5" x="432.37" y="192.69" width="13.04" height="4.92"/></g><g class="cls-6"><rect class="cls-5" x="425.65" y="192.68" width="4.13" height="4.92"/></g><g class="cls-6"><rect class="cls-5" x="441.02" y="203.93" width="13.62" height="4.92"/></g><rect class="cls-5" x="428.59" y="203.92" width="9.85" height="4.92"/><g class="cls-6"><rect class="cls-5" x="419.35" y="203.91" width="6.66" height="4.92"/></g><g class="cls-6"><rect class="cls-5" x="450.05" y="215.17" width="4.6" height="4.92"/></g><g class="cls-6"><rect class="cls-5" x="441.39" y="215.16" width="6.08" height="4.92"/></g><g class="cls-6"><rect class="cls-5" x="429.01" y="215.15" width="9.8" height="4.92"/></g><g class="cls-6"><rect class="cls-5" x="440.55" y="226.4" width="14.09" height="4.92"/></g><g class="cls-6"><rect class="cls-5" x="424.77" y="226.38" width="13.21" height="4.92"/></g><rect class="cls-5" x="418.06" y="226.38" width="4.13" height="4.92"/><g class="cls-6"><rect class="cls-5" x="411.61" y="226.37" width="4.13" height="4.92"/></g><g class="cls-6"><rect class="cls-5" x="446.2" y="237.63" width="8.44" height="4.92"/></g><rect class="cls-5" x="399.17" y="147.73" width="11.71" height="4.92"/><g class="cls-6"><rect class="cls-5" x="399.17" y="158.96" width="9.2" height="4.92"/></g><g class="cls-6"><rect class="cls-5" x="399.17" y="170.19" width="6.66" height="4.92"/></g><g class="cls-6"><rect class="cls-5" x="399.17" y="181.43" width="9.69" height="4.92"/></g><g class="cls-6"><rect class="cls-5" x="399.17" y="192.66" width="6.66" height="4.92"/></g><g class="cls-6"><rect class="cls-5" x="399.17" y="203.89" width="8.45" height="4.92"/></g><g class="cls-6"><rect class="cls-5" x="399.17" y="215.13" width="4.6" height="4.92"/></g><g class="cls-6"><rect class="cls-5" x="399.17" y="226.36" width="8.92" height="4.92"/></g><g class="cls-6"><rect class="cls-5" x="399.17" y="237.6" width="8.45" height="4.92"/></g><g class="cls-6"><rect class="cls-5" x="440.03" y="237.62" width="3.59" height="4.92"/></g><g class="cls-6"><rect class="cls-5" x="429.37" y="237.62" width="8.08" height="4.92"/></g><g class="cls-6"><polygon class="cls-5" points="372.26 152.42 389.15 152.44 389.15 147.52 372.26 147.5 372.26 152.42"/></g><g class="cls-6"><rect class="cls-5" x="363.59" y="147.5" width="6.08" height="4.92"/></g><rect class="cls-5" x="356.88" y="147.49" width="4.13" height="4.92"/><g class="cls-6"><rect class="cls-5" x="379.94" y="158.75" width="9.21" height="4.92"/></g><rect class="cls-5" x="369.26" y="155.55" width="4.92" height="11.28" transform="translate(210.14 532.75) rotate(-89.94)"/><polygon class="cls-5" points="359.37 163.64 363.5 163.65 363.5 158.73 359.37 158.72 359.37 163.64"/><g class="cls-6"><polygon class="cls-5" points="352.98 163.64 357.11 163.64 357.11 158.72 352.98 158.72 352.98 163.64"/></g><g class="cls-6"><rect class="cls-5" x="382.49" y="169.98" width="6.66" height="4.92"/></g><g class="cls-6"><rect class="cls-5" x="376.31" y="171.3" width="4.92" height="2.28" transform="matrix(0, -1, 1, 0, 205.83, 550.98)"/></g><g class="cls-6"><rect class="cls-5" x="370.92" y="169.97" width="4.13" height="4.92"/></g><g class="cls-6"><rect class="cls-5" x="364.57" y="181.21" width="24.58" height="4.92"/></g><g class="cls-6"><rect class="cls-5" x="355.9" y="181.2" width="6.08" height="4.92"/></g><g class="cls-6"><rect class="cls-5" x="383.36" y="191.58" width="4.92" height="6.66" transform="translate(190.51 580.53) rotate(-89.94)"/></g><g class="cls-6"><rect class="cls-5" x="366.86" y="192.44" width="13.05" height="4.92"/></g><g class="cls-6"><rect class="cls-5" x="360.14" y="192.43" width="4.13" height="4.92"/></g><rect class="cls-5" x="375.52" y="203.69" width="13.63" height="4.92"/><g class="cls-6"><rect class="cls-5" x="363.09" y="203.67" width="9.86" height="4.92"/></g><g class="cls-6"><rect class="cls-5" x="353.84" y="203.66" width="6.66" height="4.92"/></g><g class="cls-6"><rect class="cls-5" x="384.55" y="214.92" width="4.6" height="4.92"/></g><g class="cls-6"><rect class="cls-5" x="375.88" y="214.92" width="6.08" height="4.92"/></g><rect class="cls-5" x="363.5" y="214.91" width="9.8" height="4.92"/><g class="cls-6"><rect class="cls-5" x="375.05" y="226.15" width="14.1" height="4.92"/></g><g class="cls-6"><rect class="cls-5" x="359.26" y="226.14" width="13.21" height="4.92"/></g><g class="cls-6"><rect class="cls-5" x="352.54" y="226.13" width="4.13" height="4.92"/></g><g class="cls-6"><rect class="cls-5" x="346.1" y="226.13" width="4.13" height="4.92"/></g><g class="cls-6"><rect class="cls-5" x="380.7" y="237.39" width="8.45" height="4.92"/></g><rect class="cls-5" x="333.65" y="147.47" width="11.72" height="4.92"/><g class="cls-6"><rect class="cls-5" x="333.65" y="158.7" width="9.21" height="4.92"/></g><g class="cls-6"><rect class="cls-5" x="333.65" y="169.94" width="6.66" height="4.92"/></g><g class="cls-6"><rect class="cls-5" x="333.65" y="181.18" width="9.69" height="4.92"/></g><g class="cls-6"><rect class="cls-5" x="333.65" y="192.41" width="6.66" height="4.92"/></g><g class="cls-6"><rect class="cls-5" x="333.65" y="203.65" width="8.45" height="4.92"/></g><g class="cls-6"><rect class="cls-5" x="333.65" y="214.88" width="4.6" height="4.92"/></g><g class="cls-6"><rect class="cls-5" x="333.65" y="226.12" width="8.92" height="4.92"/></g><g class="cls-6"><rect class="cls-5" x="333.65" y="237.36" width="8.45" height="4.92"/></g><rect class="cls-5" x="374.53" y="237.39" width="3.59" height="4.92"/><g class="cls-6"><rect class="cls-5" x="363.86" y="237.38" width="8.09" height="4.92"/></g><rect class="cls-5" x="437.76" y="248.92" width="16.89" height="4.92"/><g class="cls-6"><rect class="cls-5" x="429.1" y="248.91" width="6.08" height="4.92"/></g><g class="cls-6"><rect class="cls-5" x="422.39" y="248.91" width="4.13" height="4.92"/></g><g class="cls-6"><rect class="cls-5" x="445.45" y="260.16" width="9.2" height="4.92"/></g><g class="cls-6"><rect class="cls-5" x="431.59" y="260.15" width="11.28" height="4.92"/></g><g class="cls-6"><rect class="cls-5" x="424.88" y="260.14" width="4.13" height="4.92"/></g><g class="cls-6"><rect class="cls-5" x="418.49" y="260.14" width="4.13" height="4.92"/></g><g class="cls-6"><rect class="cls-5" x="447.99" y="271.39" width="6.66" height="4.92"/></g><g class="cls-6"><rect class="cls-5" x="443.13" y="271.39" width="2.28" height="4.92"/></g><g class="cls-6"><rect class="cls-5" x="436.42" y="271.38" width="4.13" height="4.92"/></g><g class="cls-6"><rect class="cls-5" x="430.07" y="282.62" width="24.57" height="4.92"/></g><rect class="cls-5" x="421.41" y="282.61" width="6.08" height="4.92"/><g class="cls-6"><rect class="cls-5" x="447.99" y="293.86" width="6.66" height="4.92"/></g><g class="cls-6"><rect class="cls-5" x="432.37" y="293.85" width="13.04" height="4.92"/></g><g class="cls-6"><rect class="cls-5" x="425.65" y="293.84" width="4.13" height="4.92"/></g><g class="cls-6"><rect class="cls-5" x="441.02" y="305.09" width="13.62" height="4.92"/></g><g class="cls-6"><rect class="cls-5" x="428.59" y="305.08" width="9.85" height="4.92"/></g><g class="cls-6"><rect class="cls-5" x="419.35" y="305.07" width="6.66" height="4.92"/></g><g class="cls-6"><rect class="cls-5" x="450.05" y="316.32" width="4.6" height="4.92"/></g><g class="cls-6"><rect class="cls-5" x="441.39" y="316.32" width="6.08" height="4.92"/></g><g class="cls-6"><rect class="cls-5" x="429.01" y="316.31" width="9.8" height="4.92"/></g><g class="cls-6"><rect class="cls-5" x="440.55" y="327.55" width="14.09" height="4.92"/></g><rect class="cls-5" x="424.77" y="327.55" width="13.21" height="4.92"/><g class="cls-6"><rect class="cls-5" x="418.06" y="327.54" width="4.13" height="4.92"/></g><g class="cls-6"><rect class="cls-5" x="411.61" y="327.54" width="4.13" height="4.92"/></g><g class="cls-6"><rect class="cls-5" x="446.2" y="338.78" width="8.44" height="4.92"/></g><g class="cls-6"><rect class="cls-5" x="399.17" y="248.9" width="11.71" height="4.92"/></g><g class="cls-6"><rect class="cls-5" x="399.17" y="260.13" width="9.2" height="4.92"/></g><g class="cls-6"><rect class="cls-5" x="399.17" y="271.36" width="6.66" height="4.92"/></g><rect class="cls-5" x="399.17" y="282.6" width="9.69" height="4.92"/><g class="cls-6"><rect class="cls-5" x="399.17" y="293.83" width="6.66" height="4.92"/></g><g class="cls-6"><rect class="cls-5" x="399.17" y="305.07" width="8.45" height="4.92"/></g><g class="cls-6"><rect class="cls-5" x="399.17" y="316.3" width="4.6" height="4.92"/></g><g class="cls-6"><rect class="cls-5" x="399.17" y="327.53" width="8.92" height="4.92"/></g><g class="cls-6"><rect class="cls-5" x="399.17" y="338.77" width="8.45" height="4.92"/></g><g class="cls-6"><rect class="cls-5" x="440.03" y="338.78" width="3.59" height="4.92"/></g><rect class="cls-5" x="429.37" y="338.78" width="8.08" height="4.92"/><rect class="cls-5" x="422.68" y="425.7" width="13.64" height="4.5"/><g class="cls-6"><rect class="cls-5" x="413.34" y="425.69" width="5.37" height="4.5"/></g><g class="cls-6"><rect class="cls-5" x="372.26" y="248.69" width="16.89" height="4.92"/></g><g class="cls-6"><rect class="cls-5" x="363.59" y="248.68" width="6.08" height="4.92"/></g><g class="cls-6"><rect class="cls-5" x="356.48" y="249.07" width="4.92" height="4.13" transform="translate(107.38 609.78) rotate(-89.93)"/></g><g class="cls-6"><rect class="cls-5" x="379.94" y="259.93" width="9.21" height="4.92"/></g><g class="cls-6"><rect class="cls-5" x="366.08" y="259.92" width="11.28" height="4.92"/></g><g class="cls-6"><rect class="cls-5" x="359.37" y="259.91" width="4.13" height="4.92"/></g><g class="cls-6"><rect class="cls-5" x="352.98" y="259.91" width="4.13" height="4.92"/></g><g class="cls-6"><rect class="cls-5" x="382.49" y="271.16" width="6.66" height="4.92"/></g><g class="cls-6"><rect class="cls-5" x="377.63" y="271.16" width="2.28" height="4.92"/></g><g class="cls-6"><rect class="cls-5" x="370.92" y="271.15" width="4.13" height="4.92"/></g><g class="cls-6"><rect class="cls-5" x="364.57" y="282.39" width="24.58" height="4.92"/></g><g class="cls-6"><rect class="cls-5" x="355.9" y="282.38" width="6.08" height="4.92"/></g><g class="cls-6"><rect class="cls-5" x="382.49" y="293.63" width="6.66" height="4.92"/></g><rect class="cls-5" x="366.86" y="293.62" width="13.05" height="4.92"/><g class="cls-6"><rect class="cls-5" x="360.14" y="293.62" width="4.13" height="4.92"/></g><g class="cls-6"><rect class="cls-5" x="375.52" y="304.86" width="13.63" height="4.92"/></g><g class="cls-6"><rect class="cls-5" x="363.09" y="304.86" width="9.86" height="4.92"/></g><g class="cls-6"><rect class="cls-5" x="353.84" y="304.85" width="6.66" height="4.92"/></g><g class="cls-6"><rect class="cls-5" x="384.55" y="316.1" width="4.6" height="4.92"/></g><g class="cls-6"><rect class="cls-5" x="375.88" y="316.1" width="6.08" height="4.92"/></g><g class="cls-6"><rect class="cls-5" x="363.5" y="316.09" width="9.8" height="4.92"/></g><g class="cls-6"><rect class="cls-5" x="375.05" y="327.33" width="14.1" height="4.92"/></g><g class="cls-6"><rect class="cls-5" x="359.26" y="327.33" width="13.21" height="4.92"/></g><g class="cls-6"><rect class="cls-5" x="352.54" y="327.32" width="4.13" height="4.92"/></g><g class="cls-6"><rect class="cls-5" x="346.1" y="327.32" width="4.13" height="4.92"/></g><g class="cls-6"><rect class="cls-5" x="380.7" y="338.57" width="8.45" height="4.92"/></g><g class="cls-6"><rect class="cls-5" x="333.65" y="248.66" width="11.72" height="4.92"/></g><rect class="cls-5" x="333.65" y="259.9" width="9.21" height="4.92"/><rect class="cls-5" x="333.65" y="271.13" width="6.66" height="4.92"/><g class="cls-6"><rect class="cls-5" x="333.65" y="282.37" width="9.69" height="4.92"/></g><g class="cls-6"><rect class="cls-5" x="333.65" y="293.6" width="6.66" height="4.92"/></g><g class="cls-6"><rect class="cls-5" x="333.65" y="304.84" width="8.45" height="4.92"/></g><g class="cls-6"><rect class="cls-5" x="333.65" y="316.08" width="4.6" height="4.92"/></g><g class="cls-6"><rect class="cls-5" x="333.65" y="327.31" width="8.92" height="4.92"/></g><g class="cls-6"><rect class="cls-5" x="333.65" y="338.55" width="8.45" height="4.92"/></g><g class="cls-6"><rect class="cls-5" x="374.53" y="338.56" width="3.59" height="4.92"/></g><g class="cls-6"><rect class="cls-5" x="363.86" y="338.56" width="8.09" height="4.92"/></g><polygon class="cls-5" points="430.07 410.83 454.65 410.9 454.65 405.99 430.07 405.91 430.07 410.83"/><g class="cls-6"><polygon class="cls-5" points="421.41 410.8 427.49 410.82 427.49 405.9 421.41 405.88 421.41 410.8"/></g><g class="cls-6"><polygon class="cls-5" points="447.99 399.65 454.65 399.67 454.65 394.75 447.99 394.73 447.99 399.65"/></g><g class="cls-6"><polygon class="cls-5" points="432.37 399.6 445.41 399.64 445.41 394.73 432.37 394.68 432.37 399.6"/></g><polygon class="cls-5" points="425.65 399.58 429.79 399.59 429.79 394.67 425.65 394.66 425.65 399.58"/><g class="cls-6"><polygon class="cls-5" points="441.02 388.39 454.65 388.44 454.65 383.52 441.02 383.48 441.02 388.39"/></g><g class="cls-6"><polygon class="cls-5" points="428.59 388.36 438.44 388.39 438.44 383.47 428.59 383.44 428.59 388.36"/></g><g class="cls-6"><polygon class="cls-5" points="419.35 388.33 426.01 388.35 426.01 383.43 419.35 383.41 419.35 388.33"/></g><g class="cls-6"><polygon class="cls-5" points="450.05 377.19 454.65 377.2 454.65 372.29 450.05 372.27 450.05 377.19"/></g><g class="cls-6"><polygon class="cls-5" points="441.38 377.16 447.47 377.18 447.47 372.27 441.38 372.25 441.38 377.16"/></g><g class="cls-6"><polygon class="cls-5" points="429.01 377.12 438.81 377.16 438.81 372.24 429.01 372.21 429.01 377.12"/></g><g class="cls-6"><polygon class="cls-5" points="440.55 365.93 454.65 365.97 454.65 361.06 440.55 361.01 440.55 365.93"/></g><polygon class="cls-5" points="424.77 365.88 437.97 365.92 437.97 361 424.77 360.96 424.77 365.88"/><g class="cls-6"><polygon class="cls-5" points="418.06 365.86 422.19 365.87 422.19 360.95 418.06 360.94 418.06 365.86"/></g><g class="cls-6"><polygon class="cls-5" points="411.61 365.83 415.75 365.85 415.75 360.93 411.61 360.92 411.61 365.83"/></g><g class="cls-6"><polygon class="cls-5" points="446.2 354.71 454.65 354.74 454.65 349.82 446.2 349.8 446.2 354.71"/></g><g class="cls-6"><rect class="cls-5" x="399.17" y="349.77" width="9.69" height="4.92"/></g><g class="cls-6"><rect class="cls-5" x="399.17" y="361" width="6.66" height="4.92"/></g><g class="cls-6"><rect class="cls-5" x="399.17" y="372.24" width="8.45" height="4.92"/></g><g class="cls-6"><rect class="cls-5" x="399.17" y="383.47" width="4.6" height="4.92"/></g><g class="cls-6"><rect class="cls-5" x="399.17" y="394.71" width="8.92" height="4.92"/></g><g class="cls-6"><rect class="cls-5" x="399.17" y="405.94" width="8.45" height="4.92"/></g><g class="cls-6"><polygon class="cls-5" points="440.03 354.69 443.62 354.71 443.62 349.79 440.03 349.78 440.03 354.69"/></g><g class="cls-6"><polygon class="cls-5" points="429.37 354.66 437.45 354.69 437.45 349.77 429.37 349.74 429.37 354.66"/></g><rect class="cls-5" x="364.57" y="349.57" width="24.58" height="4.92"/><g class="cls-6"><rect class="cls-5" x="355.9" y="349.56" width="6.08" height="4.92"/></g><g class="cls-6"><rect class="cls-5" x="382.49" y="360.81" width="6.66" height="4.92"/></g><g class="cls-6"><rect class="cls-5" x="366.86" y="360.8" width="13.05" height="4.92"/></g><g class="cls-6"><rect class="cls-5" x="360.14" y="360.8" width="4.13" height="4.92"/></g><g class="cls-6"><rect class="cls-5" x="375.52" y="372.04" width="13.63" height="4.92"/></g><g class="cls-6"><rect class="cls-5" x="363.09" y="372.04" width="9.86" height="4.92"/></g><g class="cls-6"><rect class="cls-5" x="353.84" y="372.03" width="6.66" height="4.92"/></g><g class="cls-6"><rect class="cls-5" x="384.55" y="383.28" width="4.6" height="4.92"/></g><g class="cls-6"><rect class="cls-5" x="375.88" y="383.27" width="6.08" height="4.92"/></g><g class="cls-6"><rect class="cls-5" x="363.5" y="383.27" width="9.8" height="4.92"/></g><g class="cls-6"><rect class="cls-5" x="375.05" y="394.51" width="14.1" height="4.92"/></g><rect class="cls-5" x="359.26" y="394.51" width="13.21" height="4.92"/><g class="cls-6"><rect class="cls-5" x="352.54" y="394.5" width="4.13" height="4.92"/></g><g class="cls-6"><rect class="cls-5" x="346.1" y="394.5" width="4.13" height="4.92"/></g><g class="cls-6"><rect class="cls-5" x="380.7" y="405.75" width="8.45" height="4.92"/></g><g class="cls-6"><rect class="cls-5" x="333.65" y="349.56" width="9.69" height="4.92"/></g><rect class="cls-5" x="333.65" y="360.79" width="6.66" height="4.92"/><g class="cls-6"><rect class="cls-5" x="333.65" y="372.03" width="8.45" height="4.92"/></g><g class="cls-6"><rect class="cls-5" x="333.65" y="383.26" width="4.6" height="4.92"/></g><g class="cls-6"><rect class="cls-5" x="333.65" y="394.5" width="8.92" height="4.92"/></g><rect class="cls-5" x="333.65" y="405.74" width="8.45" height="4.92"/><g class="cls-6"><rect class="cls-5" x="374.53" y="405.74" width="3.59" height="4.92"/></g><rect class="cls-5" x="363.86" y="405.74" width="8.09" height="4.92"/><g class="cls-6"><rect class="cls-5" x="357.17" y="425.51" width="13.65" height="4.5"/></g><g class="cls-6"><rect class="cls-5" x="347.82" y="425.5" width="5.38" height="4.5"/></g><rect class="cls-5" x="347.82" y="432.4" width="13.65" height="4.5"/><g class="cls-6"><rect class="cls-5" x="365.44" y="432.4" width="5.38" height="4.5"/></g><g class="cls-6"><rect class="cls-5" x="413.34" y="432.59" width="13.64" height="4.5"/></g><g class="cls-6"><rect class="cls-5" x="430.95" y="432.59" width="5.37" height="4.5"/></g></g><path class="cls-7" d="M292.71,310.73c-21.79-23.53-50.33,37.65-47.52,61.78l10.85,0C266.57,366.42,310.35,329.78,292.71,310.73Z"/><path class="cls-8" d="M250.84,372.63l-.85-.39c16.08-35.11,42.13-61.57,42.39-61.84l.66.66C292.78,311.32,266.85,337.67,250.84,372.63Z"/><path class="cls-8" d="M286.08,344.48c-6.95,2.19-21.83,4.08-22.53,4.17l-.11-.92c.19,0,18.8-2.38,24.2-4.81l.38.85A16.66,16.66,0,0,1,286.08,344.48Z"/><path class="cls-8" d="M276.72,328.12c-2.6-7.61-3.15-19.78-3.15-19.9l.93,0c0,.12.54,12.16,3.1,19.63Z"/><path class="cls-8" d="M254.69,333c-6.62,13.84-10.64,29.7-9.5,39.48C260.32,356.79,257.1,335.6,254.69,333Z"/><path class="cls-7" d="M237,294.44c-19.31-9.44-13.35,47.56,3.67,78.08l7.9,0C252.45,364.86,252.59,302.09,237,294.44Z"/><path class="cls-8" d="M245.65,372.43l-.91.16c-3.08-16.93-11.46-71.5-11.54-72l.92-.14C234.2,301,242.57,355.51,245.65,372.43Z"/><rect class="cls-8" x="236.85" y="342.09" width="0.93" height="13.1" transform="translate(-168.99 235.6) rotate(-40.21)"/><rect class="cls-8" x="237.2" y="326.72" width="12.48" height="0.93" transform="translate(-153.29 232.73) rotate(-39.96)"/><path class="cls-9" d="M277.46,372.47v4.67a27.75,27.75,0,0,1-4.54,15.17l-1.18,1.84-9.44,59.68-22.69.07-7-59.64-1.2-1.83a27.82,27.82,0,0,1-4.61-15.15l0-4.67Z"/><path class="cls-8" d="M239.31,454.24l0-.3-7-59.56-1.15-1.77a28.29,28.29,0,0,1-4.68-15.33v-5l51.37-.14v5a28.17,28.17,0,0,1-4.59,15.36l-1.15,1.78-9.47,59.89ZM227.11,373l0,4.33a27.5,27.5,0,0,0,4.56,15l1.25,2,7,59.33,22.1-.06,9.4-59.46,1.23-1.9a27.64,27.64,0,0,0,4.48-15v-4.34Z"/><rect class="cls-8" x="239.43" y="383.82" width="37.76" height="0.93" transform="translate(-1.05 0.71) rotate(-0.16)"/><rect class="cls-8" x="232.38" y="393.73" width="13.51" height="0.93" transform="translate(-1.11 0.68) rotate(-0.16)"/><path class="cls-8" d="M262.71,454.3h-1.24v-.93h.45L271.31,394l1.23-1.92A27.37,27.37,0,0,0,277,377.15v-4.21l-50.23.13v-.92l51.15-.14v5.13a28.26,28.26,0,0,1-4.61,15.42l-1.13,1.76Z"/><path class="cls-8" d="M507.32,59.33a17.82,17.82,0,0,0-4.92.52,20.9,20.9,0,0,0,.3-2.64A19.34,19.34,0,0,0,471,41.63,28.27,28.27,0,0,0,416.48,51a27.6,27.6,0,0,0,0,2.88A20.11,20.11,0,1,0,406,91.57l101.78,3.62V95.1a17.91,17.91,0,0,0-.5-35.77Z"/><path class="cls-7" d="M517.26,76.8a17.92,17.92,0,0,1-16.14,17.83v.08H399.27a20.11,20.11,0,1,1,0-40.22h.36a20,20,0,0,1,8.78,2.21,27.5,27.5,0,0,1-.14-2.88c0-.8,0-1.58.09-2.36a28.29,28.29,0,0,1,28.18-25.92q.9,0,1.77.06h0a28.28,28.28,0,0,1,24.13,16.89,19.26,19.26,0,0,1,10.35-4.74,18.74,18.74,0,0,1,2.5-.17,19.13,19.13,0,0,1,5.22.72h0a19.21,19.21,0,0,1,13.93,21.29,17.64,17.64,0,0,1,4.9-.7A17.91,17.91,0,0,1,517.26,76.8Z"/><path class="cls-8" d="M501.34,94.94H399.27a20.34,20.34,0,1,1,0-40.68h.37a20,20,0,0,1,8.51,2c-.07-.83-.11-1.67-.11-2.5s0-1.59.1-2.38a28.64,28.64,0,0,1,28.4-26.12c.6,0,1.2,0,1.79.06a28.36,28.36,0,0,1,24.2,16.75,19.6,19.6,0,0,1,12.77-4.77,19.61,19.61,0,0,1,5.25.71h0a19.64,19.64,0,0,1,14.3,18.86,20.75,20.75,0,0,1-.16,2.34,17.9,17.9,0,0,1,4.63-.61,18.13,18.13,0,0,1,2,36.16ZM399.27,54.71a19.89,19.89,0,1,0,0,39.78H500.89v-.07l.2,0a17.69,17.69,0,0,0-1.74-35.29,17.91,17.91,0,0,0-4.84.69l-.33.1.05-.34a20.45,20.45,0,0,0,.2-2.62,19.19,19.19,0,0,0-13.94-18.42h0a19.27,19.27,0,0,0-7.63-.54,19,19,0,0,0-10.23,4.69l-.23.21-.13-.29A27.92,27.92,0,0,0,438.3,25.83c-.58,0-1.17-.06-1.76-.06a28.18,28.18,0,0,0-28,25.71c-.07.77-.1,1.56-.1,2.34,0,1,.05,1.91.14,2.86l.05.41-.37-.19a19.72,19.72,0,0,0-8.68-2.19Z"/><path class="cls-9" d="M446.94,66a25.14,25.14,0,0,0-10.23,2.17,2.79,2.79,0,0,0-1.28,4h0A2.82,2.82,0,0,0,439,73.25a19.53,19.53,0,0,1,15.85,0,2.82,2.82,0,0,0,3.59-1.16h0a2.79,2.79,0,0,0-1.28-4A25.15,25.15,0,0,0,446.94,66Z"/><path class="cls-9" d="M446.94,51.09a39.81,39.81,0,0,0-17.8,4.15A2.8,2.8,0,0,0,428,59.15l0,0a2.78,2.78,0,0,0,3.65,1.12,34.5,34.5,0,0,1,30.65,0,2.78,2.78,0,0,0,3.65-1.12v0a2.8,2.8,0,0,0-1.18-3.91A39.88,39.88,0,0,0,446.94,51.09Z"/><path class="cls-9" d="M450.63,82.56a3.69,3.69,0,1,1-3.69-3.69A3.69,3.69,0,0,1,450.63,82.56Z"/><path class="cls-8" d="M270.11,46a19.48,19.48,0,0,0-5.32.57,20.87,20.87,0,0,0-33.9-19.69A30.54,30.54,0,0,0,172,37a29.23,29.23,0,0,0,0,3.11,21.73,21.73,0,1,0-11.33,40.7l110,3.91v-.09A19.36,19.36,0,0,0,270.11,46Z"/><path class="cls-7" d="M280.85,64.89A19.35,19.35,0,0,1,263.4,84.15v.1h-110a21.74,21.74,0,0,1,0-43.47h.38a21.63,21.63,0,0,1,9.49,2.38c-.1-1-.16-2.06-.16-3.11,0-.86,0-1.71.11-2.55a30.55,30.55,0,0,1,30.44-28q1,0,1.92.06h0a30.55,30.55,0,0,1,26.07,18.26,20.78,20.78,0,0,1,11.19-5.13,20,20,0,0,1,2.7-.18,20.93,20.93,0,0,1,5.64.77h0a20.71,20.71,0,0,1,15,23,19.32,19.32,0,0,1,24.65,18.6Z"/><path class="cls-8" d="M263.64,84.49H153.37a22,22,0,1,1,0-43.95h.39a21.66,21.66,0,0,1,9.2,2.21c-.08-.9-.12-1.81-.12-2.7s0-1.72.11-2.57A30.94,30.94,0,0,1,193.63,9.27c.64,0,1.29,0,1.93.06a30.65,30.65,0,0,1,26.15,18.1,20.93,20.93,0,0,1,11.07-5,21.2,21.2,0,0,1,8.4.59h0a21.21,21.21,0,0,1,15.44,20.37,19.87,19.87,0,0,1-.17,2.53,19.59,19.59,0,1,1,7.15,38.41ZM153.37,41a21.5,21.5,0,0,0,0,43H263.16v-.08l.22,0a19.11,19.11,0,0,0-1.88-38.13,18.84,18.84,0,0,0-5.23.75l-.36.1.05-.37a20.46,20.46,0,0,0-14.84-22.73h0A20.68,20.68,0,0,0,221.78,28l-.24.22-.14-.31A30.19,30.19,0,0,0,195.54,9.81c-.64,0-1.28-.06-1.91-.06a30.46,30.46,0,0,0-30.2,27.78c-.07.84-.1,1.69-.1,2.53,0,1,0,2.06.15,3.09l.05.44-.4-.2A21.25,21.25,0,0,0,153.75,41Z"/><path class="cls-9" d="M204.87,53.18a27.26,27.26,0,0,0-11.06,2.34,3,3,0,0,0-1.38,4.29h0a3,3,0,0,0,3.88,1.24,21.17,21.17,0,0,1,17.13,0,3,3,0,0,0,3.88-1.24h0a3,3,0,0,0-1.39-4.29A27.19,27.19,0,0,0,204.87,53.18Z"/><path class="cls-9" d="M204.87,37.11a43.13,43.13,0,0,0-19.23,4.48,3,3,0,0,0-1.28,4.24v0a3,3,0,0,0,3.95,1.21,37.26,37.26,0,0,1,33.11,0,3,3,0,0,0,3.95-1.21v0a3,3,0,0,0-1.28-4.24A43.14,43.14,0,0,0,204.87,37.11Z"/><path class="cls-9" d="M208.86,71.11a4,4,0,1,1-4-4A4,4,0,0,1,208.86,71.11Z"/><rect class="cls-8" x="56.11" y="453.52" width="422.93" height="1.02"/><path class="cls-8" d="M394.46,280.75h-2v-12h2Zm0-24h-2v-12h2Zm0-24h-2v-7.43a7.77,7.77,0,0,0-1-3.86l1.73-1a9.75,9.75,0,0,1,1.3,4.86ZM381.9,217.54h-12v-2h12Zm-24,0h-12v-2h12Zm-24-2.74a9.69,9.69,0,0,1-3-7v-4.93h2v4.93a7.74,7.74,0,0,0,2.38,5.61Zm-1-24h-2v-12h2Zm0-24h-2v-12h2Zm0-24h-2v-3.1h2Z"/><path class="cls-8" d="M230,248h-2V236h2Zm0-24h-2V212h2Zm.43-23.55-1.85-.77a7.45,7.45,0,0,1,6.88-4.57h4.43v2h-4.43A5.46,5.46,0,0,0,230.46,200.47Zm55.84-3.34H275.92v-2H286.3a5.54,5.54,0,0,0,1.35-.16l.5,1.93A7.16,7.16,0,0,1,286.3,197.13Zm-22.38,0h-12v-2h12Zm29.85-10.92h-2v-12h2Zm0-24h-2v-12h2Zm0-24h-2V130h2Z"/><path class="cls-8" d="M436.08,82.09a38.39,38.39,0,0,0-10.45,1.11,42.78,42.78,0,0,0,.63-5.61A41,41,0,0,0,359,44.52,60,60,0,0,0,243.2,64.45q-.1,3.1.09,6.13a42.27,42.27,0,0,0-19.22-5.38,42.7,42.7,0,0,0-3,85.35l216.09,7.69v-.19a38,38,0,0,0-1.05-76Z"/><path class="cls-9" d="M449.4,119.2A38,38,0,0,1,415.11,157v.18H198.89a42.7,42.7,0,1,1,0-85.4h.76a42.39,42.39,0,0,1,18.65,4.68,58.85,58.85,0,0,1-.32-6.12c0-1.68.08-3.35.21-5a60,60,0,0,1,59.82-55c1.27,0,2.53,0,3.77.12h0A60.07,60.07,0,0,1,333,46.36a40.91,40.91,0,0,1,22-10.08,40.48,40.48,0,0,1,5.31-.35,41,41,0,0,1,11.09,1.52h0a41.09,41.09,0,0,1,30,39.57,41.91,41.91,0,0,1-.43,5.63,37.62,37.62,0,0,1,10.41-1.48A38,38,0,0,1,449.4,119.2Z"/><path class="cls-8" d="M415.4,157.51H198.89a43,43,0,1,1,0-86h.77A42.51,42.51,0,0,1,218,76c-.17-1.88-.26-3.77-.26-5.63,0-1.66.07-3.35.21-5A60.32,60.32,0,0,1,278,10.08c1.26,0,2.54,0,3.79.12a60.06,60.06,0,0,1,51.32,35.68A41.18,41.18,0,0,1,355,36a41.62,41.62,0,0,1,16.48,1.17h0A41.49,41.49,0,0,1,401.68,77a39.7,39.7,0,0,1-.38,5.23,38.31,38.31,0,1,1,14.1,75.05ZM198.89,72.1a42.42,42.42,0,0,0,0,84.84H414.83v-.16l.25,0a37.74,37.74,0,1,0-14-73.83l-.42.12.06-.43A41.34,41.34,0,0,0,401.1,77a40.93,40.93,0,0,0-29.75-39.29h0A41,41,0,0,0,355,36.56a40.52,40.52,0,0,0-21.82,10l-.3.27-.16-.37a59.47,59.47,0,0,0-51-35.69c-1.25-.08-2.51-.12-3.76-.12a60,60,0,0,0-59.53,54.76c-.14,1.65-.21,3.32-.21,5,0,2,.11,4.07.31,6.09l.06.53-.47-.24a42,42,0,0,0-18.52-4.66Z"/><path class="cls-7" d="M337.69,127l4.21-13.78-8.46-3.41a36.56,36.56,0,0,0-1.21-12.58l7.65-5-6.76-12.71-8.39,3.57a36.07,36.07,0,0,0-9.75-8l1.91-8.92L303.11,62l-3.41,8.46a36.32,36.32,0,0,0-12.58,1.21l-5-7.65-12.7,6.76L273,79.14a36.07,36.07,0,0,0-8,9.75L256.07,87l-4.21,13.78,8.46,3.41a36.32,36.32,0,0,0,1.21,12.58l-7.65,5,6.76,12.7,8.39-3.57a36.33,36.33,0,0,0,9.74,8l-1.9,8.92L290.65,152l3.41-8.46a36.21,36.21,0,0,0,12.57-1.21l5,7.65,12.71-6.76-3.57-8.39a36.33,36.33,0,0,0,8-9.74Zm-48.41,4.85a26,26,0,1,1,32.46-17.26A26,26,0,0,1,289.28,131.85Z"/><polygon class="cls-10" points="257.49 103.37 251.47 100.95 254.65 90.56 255.25 90.74 252.25 100.57 257.73 102.78 257.49 103.37"/><path class="cls-10" d="M277.18,147.87l-.62-.14,1.85-8.67a29.94,29.94,0,0,1-7.62-5.85l.47-.43a29.34,29.34,0,0,0,7.65,5.82l.23.11Z"/><path class="cls-10" d="M311.53,128.85l-.37-.52c16.74-11.75,10-29.65,9.95-29.83l.6-.23C321.78,98.45,328.67,116.82,311.53,128.85Z"/><path class="cls-10" d="M333.22,104.2a57.53,57.53,0,0,0-1.3-6.88l-.06-.23,2.81-1.82.35.54-2.43,1.57a58.34,58.34,0,0,1,1.26,6.74Z"/><path class="cls-8" d="M294.59,151.38,280.25,147l1.91-9a35,35,0,0,1-9.49-7.82l-8.44,3.59-7-13.23,7.7-5a36.63,36.63,0,0,1-1.18-12.24l-8.51-3.43,4.38-14.34,9,1.92c.67-1.16,4-6.77,7.81-9.51l-3.58-8.42,13.22-7,5,7.69A30.05,30.05,0,0,1,303.25,69l3.43-8.51L321,64.9l-1.91,9a34,34,0,0,1,9.49,7.82L337,78.11l7,13.23-7.69,5a32.07,32.07,0,0,1,1.18,12.25l8.5,3.43-4.38,14.33-9-1.91a32.52,32.52,0,0,1-7.83,9.49l3.6,8.44-13.23,7-5-7.68A28.2,28.2,0,0,1,298,142.87ZM281,146.56l13.23,4.05,3.39-8.42.25,0a27,27,0,0,0,12.42-1.2l.24-.1,5,7.64,12.2-6.49-3.55-8.35.18-.15a31.85,31.85,0,0,0,8-9.64l.11-.23,8.88,1.9,4-13.23-8.41-3.4,0-.23a30.9,30.9,0,0,0-1.2-12.45l-.08-.23,7.62-4.94-6.49-12.2-8.35,3.55-.15-.19c-3.58-4.75-9.59-7.93-9.65-8l-.21-.11,1.89-8.87-13.23-4.05-3.39,8.41-.23,0A29.09,29.09,0,0,0,291,70.88l-.24.09-4.94-7.63L273.6,69.83l3.56,8.36-.21.15C272.83,81.18,269,87.92,269,88l-.11.2L260,86.3l-4,13.23,8.41,3.39,0,.23a35.43,35.43,0,0,0,1.2,12.46l.07.23L258,120.78l6.49,12.2,8.35-3.55.15.19a34.47,34.47,0,0,0,9.65,8l.21.11Z"/><path class="cls-8" d="M300.64,132.28A26.34,26.34,0,1,1,327,106,26.37,26.37,0,0,1,300.64,132.28Zm0-52A25.71,25.71,0,1,0,326.34,106,25.74,25.74,0,0,0,300.64,80.24Z"/><path class="cls-11" d="M52,259.18c18.33-25.63,38.71-12.4,43.9-5.12C143.11,320.34,214,333.63,221,375c3.79,22.37-12.51,78.4-110.25,79.2C8.74,455-15.08,386.55,8.23,342.81S33.61,284.84,52,259.18Z"/><g class="cls-12"><path class="cls-13" d="M60.68,306.76c4.45-40,26.8-34.92,58.82-7.12s41.62,41.41,62.65,42.47,21.23,15.08,17.43,18.63c-20.9,19.54-77.74,22.72-114.71,16-19.13-3.46-37.44-28.35-52-26.61C32.9,350.15,57.07,339.16,60.68,306.76Z"/></g><path class="cls-8" d="M100.53,452.07c16.82,0,28.48-13,33.78-25.22,6.78-15.58,5-31.4-4.62-40.31-8.19-7.61-18.58-8.85-28.64-10.05-15.45-1.84-30-3.59-38.25-26.16C49.17,312.8,70.88,250.61,71.1,250l-.84-.27c-.22.63-22,63.1-8.3,100.89,8.38,23.07,23.94,24.93,39,26.72,9.91,1.19,20.15,2.41,28.13,9.82,9.32,8.67,11.05,24.13,4.41,39.39-5.19,11.94-16.58,24.7-32.95,24.7Z"/><path class="cls-8" d="M182.28,436.59c16.25-5.57,23.3-25.72,23-42.08-.28-14.17-5.95-30.93-21-35.5-10.36-3.14-18.24-3.25-25.2-3.35-12.58-.18-23.45-.34-44.21-17.8C82.88,311,82.59,251.56,82.59,251H81.7c0,.61.28,60.36,32.56,87.52,21,17.68,32,17.84,44.79,18,7.23.1,14.7.21,24.94,3.31,14.6,4.43,20.1,20.84,20.38,34.71.32,16.08-6.55,35.85-22.39,41.28Z"/><path class="cls-8" d="M86.3,450a99.25,99.25,0,0,1-12.83-2.38,115.56,115.56,0,0,1-12.41-3.82,93.21,93.21,0,0,1-22.72-11.91,67,67,0,0,1-17.25-18.18,62.32,62.32,0,0,1-8.63-23c-.15-1-.36-2-.46-3l-.34-3.05c-.13-2.05-.29-4.09-.27-6.14s.06-4.09.13-6.14.28-4.09.57-6.12a119.2,119.2,0,0,1,2.1-12.13c1-4,2-8,3.26-11.92a201.24,201.24,0,0,1,9-23.13c3.41-7.56,7.21-15,11.27-22.25C33.49,304,29.56,311.37,26,318.89A200.42,200.42,0,0,0,16.79,342a127,127,0,0,0-5.51,24.15c-.3,2-.42,4.1-.59,6.16s-.22,4.12-.16,6.19.14,4.13.26,6.19l.33,3.08c.1,1,.31,2.05.46,3.07a62.94,62.94,0,0,0,8.82,23.23,66.29,66.29,0,0,0,17.52,18.3,94.22,94.22,0,0,0,23,11.79,117.9,117.9,0,0,0,12.52,3.63A100.1,100.1,0,0,0,86.3,450Z"/><path class="cls-14" d="M148.6,312.1c10.46-7.91,58.56-34,72.57-36.05,21.38-3.18,33.89,19.48,29,32.5-9,24.27-75.4,48-88.34,48C124.24,356.61,138.15,320,148.6,312.1Z"/><path class="cls-8" d="M201,354.13c-5.68,6.19-15.49,10-26.6,12.39h0c-2.21.46-4.47.87-6.75,1.22-.73.12-1.47.22-2.21.33-21.09,2.93-44,1.6-51.43,1-13.37-1-21.41-8.95-23.85-18.35-.09-.33-.17-.66-.23-1a24.86,24.86,0,0,1-.49-7.46c.74-8.75,6-17.36,16-21.94l.1-.05q2.22-1,4.41-1.91c1.88-.77,3.75-1.48,5.59-2.12l.26-.09q3-1.06,6-1.89c.32-.1.63-.19,1-.27,1.48-.42,2.94-.79,4.38-1.12a104.54,104.54,0,0,1,14.36-2.32c1.46-.14,2.9-.24,4.31-.31l1.32-.07.94,0,1.1,0c1.61,0,3.17,0,4.71,0,3.09.07,6,.27,8.85.57l.86.08h0A130.22,130.22,0,0,1,176.67,313c4,.84,7.32,1.71,10,2.37a24.83,24.83,0,0,1,15.4,10.48C208.12,335,207.14,347.41,201,354.13Z"/><polygon class="cls-9" points="228.83 399.91 241.19 427.63 220.6 432.22 208.71 411.38 228.83 399.91"/><path class="cls-8" d="M220.45,432.56l-12.14-21.3L229,399.48l12.64,28.36Zm-11.33-21.07,11.63,20.39,20-4.47-12.08-27.08Z"/><path class="cls-7" d="M221.92,427.13c1.49-.18,5.46,1.92,6.77-4.62s8.26-8,8.26-8,4.59,10.92,7.43,16.46,24.28,11.75,29.17,14.37,3.13,8.31,3.13,8.31H220.1c-1.56-16.33-2.87-23.81-2.87-23.81A6.55,6.55,0,0,1,221.92,427.13Z"/><path class="cls-14" d="M231.06,449.6H230a14.67,14.67,0,0,0-9.41-13.78l.35-1C221,434.84,231.06,438.49,231.06,449.6Z"/><path class="cls-9" d="M276.68,453.61H220.1c-.06-1.35-.42-3.14-.36-5.17h56.72A8.49,8.49,0,0,1,276.68,453.61Z"/><path class="cls-8" d="M276.91,453.91h-57.1v-.28c0-.48-.08-1-.15-1.6a28,28,0,0,1-.21-3.6v-.29h57.21l.07.18a8.64,8.64,0,0,1,.24,5.38Zm-56.53-.59h56.07a8.19,8.19,0,0,0-.2-4.58H220a24.29,24.29,0,0,0,.21,3.22C220.3,452.44,220.35,452.9,220.38,453.32Z"/><path class="cls-14" d="M231.68,421.58c0,.06,3.38,6.28,4.54,11.2,1.09,4.59,12,6.9,13.24,7.16l6.52-1.79.28,1L249.51,441l-.12,0c-.53-.09-12.9-2.46-14.21-8s-4.48-10.94-4.54-11.23Z"/><rect class="cls-14" x="243.28" y="435.6" width="6.24" height="1.07" transform="translate(-128.08 103.44) rotate(-18.92)"/><rect class="cls-14" x="238.41" y="432.04" width="6.24" height="1.07" transform="translate(-127.2 101.67) rotate(-18.92)"/><path class="cls-8" d="M239.64,407.71s-1.31,1.94-5.35,4.44c-.66.41-1.41.84-2.23,1.28a70.58,70.58,0,0,1-18.56,6.32c-.89.19-1.81.37-2.76.55-3.29.63-6.92,1.17-10.94,1.6,0,0-16.18-28.18-27.28-46.32-1.87-3.06-3.55-5.74-4.9-7.84l-.94-1.43a12.24,12.24,0,0,1-1.81-5.1c-2.36-15.95,15.68-46.7,34.32-38.07a9.51,9.51,0,0,1,2.92,2.67c3.6,4.43,8.46,13.53,13.53,24.19C227.94,375.83,239.64,407.71,239.64,407.71Z"/><path class="cls-14" d="M202.66,417.32c-5-7-18.93-32.89-26.8-47.72a15.14,15.14,0,0,0-12.17-8l-33.24-2.75.08-1,33.25,2.75a16.17,16.17,0,0,1,13,8.57c7.85,14.8,21.77,40.66,26.72,47.59Z"/><path class="cls-9" d="M236.64,254.19a133.92,133.92,0,0,0-13-8.55l0,0-.22-.09-.23-.13-.07,0c-1.53-.5-6.35-1.4-12.53,4.26-7.52,6.9-12,7.81-12,7.81l.12.18c-10.47,4.21-29.14,7.75-39.66,12.51-11.8,5.34-9.44,35.27,10.83,24.77,9.06-4.7,26.74-19.11,37.51-28.19,2.29-.37,5.83-1.42,6.71-4.37a21.45,21.45,0,0,1,3.09-3.12c.35-.1,2.12.77,4.08,2.29,1.54,1.2,1.84,1.73,3.32.46a39.61,39.61,0,0,0,4.9-4.61c.56-1.09-5.74-8.3-5.74-8.3s7.71,6.32,11.57,7C236.34,256.3,237.43,254.8,236.64,254.19Z"/><path class="cls-8" d="M162.11,297.45a9.29,9.29,0,0,1-5.24-1.51c-3.65-2.43-5.61-7.63-5.13-13.58S155,271.72,159,269.92c5.72-2.59,13.86-4.82,21.73-7,6.61-1.82,12.86-3.53,17.61-5.4l-.17-.24.43-.09c.05,0,4.54-1,11.9-7.74,6.08-5.58,10.86-4.94,12.72-4.35l.1,0,.35.2.19.08.34.17,0,0A129.44,129.44,0,0,1,236.81,254h0a1.06,1.06,0,0,1,.26,1.35,1.77,1.77,0,0,1-1.77,1.09c-2.63-.47-6.9-3.41-9.5-5.35,2,2.47,4.42,5.64,4,6.49-.1.2-.41.81-5,4.7-1.51,1.29-2.05.85-3.24-.09l-.45-.36a12.39,12.39,0,0,0-3.83-2.24,17.07,17.07,0,0,0-2.3,2.33l-.6.66c-1,3.06-4.66,4.12-6.84,4.49-10.09,8.5-28.31,23.4-37.51,28.17A17.39,17.39,0,0,1,162.11,297.45Zm37-39.79.09.14-.34.13a178.43,178.43,0,0,1-18,5.56c-7.85,2.16-16,4.38-21.65,7-3.78,1.71-6.42,6.3-6.88,12s1.46,10.78,4.88,13c3.18,2.12,7.54,1.85,12.59-.77,9.17-4.75,27.4-19.68,37.45-28.15l.07-.06h.07c2.06-.33,5.63-1.31,6.48-4.16l.07-.11.64-.71c1.45-1.6,2.18-2.37,2.58-2.49.6-.2,2.71,1.07,4.34,2.33l.45.37c1.15.92,1.36,1.08,2.51.1,3.88-3.32,4.69-4.26,4.83-4.52.23-.63-2.78-4.63-5.71-8l.4-.41c.08.06,7.7,6.28,11.44,7a1.24,1.24,0,0,0,1.15-.76.53.53,0,0,0-.09-.66,129.76,129.76,0,0,0-12.93-8.53l-.31-.18h0l-.09,0c-1.32-.43-6.11-1.42-12.24,4.2C204.56,255.66,200.39,257.27,199.1,257.66Z"/><path class="cls-15" d="M225.4,261.39l-6.49-6.73A70.35,70.35,0,0,1,225.4,261.39Z"/><path class="cls-15" d="M227.53,259.51l-7-8.53A84.69,84.69,0,0,1,227.53,259.51Z"/><path class="cls-9" d="M173.73,249.15s4.42,23.49,4.36,28c-.15,10.06-16.36,22.7-23.2,16s-14.92-25.13-16-41.83S168.68,229.36,173.73,249.15Z"/><path class="cls-8" d="M159.74,295.38a7,7,0,0,1-5.05-1.94c-6.88-6.68-15-25.16-16.12-42-.57-8.62,7.07-13.81,14.42-15,8.52-1.36,18.31,2,21,12.64v0c.18,1,4.43,23.57,4.36,28.1-.1,6.87-7.17,14.38-13.72,17.09A12.92,12.92,0,0,1,159.74,295.38Zm-3.18-58.65a21.22,21.22,0,0,0-3.48.28c-7.1,1.13-14.48,6.11-13.93,14.37,1.11,16.73,9.14,35,15.94,41.65,2.14,2.08,5.45,2.34,9.34.73,6.25-2.59,13.27-10,13.37-16.57.07-4.44-4.25-27.41-4.35-28C171.19,240.38,163.83,236.73,156.56,236.73Z"/><polygon class="cls-8" points="175.87 265.7 172.8 249.44 173.6 249.28 176.58 265.34 175.87 265.7"/><path class="cls-2" d="M148.59,201.91c-5.44.09-11.78,2.2-15.15,15s-.87,37.95,4.78,56.67c0,0,29.74,3.35,40.69-14.56,0,0-8.75-32.82-12.54-43.14S154.59,201.81,148.59,201.91Z"/><path class="cls-8" d="M143.64,274.09a53.7,53.7,0,0,1-5.46-.24l-.19,0-.05-.18c-5.91-19.6-8-44.56-4.78-56.82,3.54-13.46,10.5-15.12,15.43-15.21h.23c5.88,0,14,3.69,17.82,14.15,3.75,10.21,12.46,42.84,12.55,43.17l0,.12-.06.1C171.11,272.33,152.82,274.09,143.64,274.09Zm-5.21-.79c2.55.24,29.85,2.36,40.17-14.33-.58-2.18-8.87-33.13-12.5-43-3.74-10.18-11.58-13.78-17.28-13.78h-.22c-5.14.08-11.48,1.84-14.88,14.77C130.52,229.11,132.59,253.82,138.43,273.3Z"/><path class="cls-8" d="M147.43,254.59a18.56,18.56,0,0,1-11.82-17.93h.81a17.77,17.77,0,0,0,11.27,17.15Z"/><path class="cls-8" d="M151.26,274.1a59.7,59.7,0,0,1-13,.2l-.21,0-.1-.18c-.13-.23-12.5-23.36-9.8-44.71l.81.1c-2.55,20.08,8.44,41.8,9.6,44,1.57.16,11.6,1,21.16-2l.25.77A47.84,47.84,0,0,1,151.26,274.1Z"/><path class="cls-7" d="M167.78,222.46c4.7,17.32.68,71,6.15,78.89,0,0-6.48,13.8-23.8,9.39-27-6.87-50,49.74-71.64,38.72C69.68,290.69,82.14,216,101.73,204.29,121.66,192.4,159.24,191,167.78,222.46Z"/><path class="cls-8" d="M172.44,287l.78-.13A123.34,123.34,0,0,1,171.45,266c.23-9.62-3.17-39.66-3.2-40l-.78.09c0,.3,3.43,30.28,3.19,39.86A125.42,125.42,0,0,0,172.44,287Z"/><path class="cls-9" d="M141.47,183.27l-1.85,15.61c-.77,1.46-4.87,9.05-19.6-1.17L123.63,175A164,164,0,0,0,141.47,183.27Z"/><path class="cls-8" d="M132.78,203.25c-3.51,0-7.84-1.78-12.92-5.3l-.15-.11,3.7-23.25.36.2A161.52,161.52,0,0,0,141.58,183l.2.08L139.87,199a7.42,7.42,0,0,1-4.93,4A8.88,8.88,0,0,1,132.78,203.25Zm-12.45-5.67c6,4.12,10.85,5.76,14.48,4.86a6.85,6.85,0,0,0,4.53-3.65l1.82-15.34a170.33,170.33,0,0,1-17.31-8Z"/><path class="cls-8" d="M139.71,197.52s-11,.74-17.71-11.47c0,0,1-3.77,1-3.74C134,189.88,142.14,188.07,139.71,197.52Z"/><path class="cls-9" d="M138.67,195.82c-5.18-.2-14.39-7.57-16.33-12.37-.69-1.72-.25-6.19.51-8.33,2.36-6.72,4.29-12.82,9.62-14.5,2.24-.71,7.81.15,9.84.64,6.69,1.63,7.84,7.09,7.66,14C149.76,182.94,147.8,196.19,138.67,195.82Z"/><path class="cls-8" d="M139,196.12h-.37c-5.43-.22-14.66-7.78-16.58-12.56-.76-1.88-.23-6.47.49-8.53l.32-.89c2.28-6.51,4.26-12.13,9.49-13.79,2.41-.75,8.26.22,10,.64,7.21,1.76,8.05,7.89,7.87,14.25-.11,4.13-.88,14.22-5.64,18.68A8,8,0,0,1,139,196.12Zm-.35-.58a7.43,7.43,0,0,0,5.54-2c4.6-4.31,5.35-14.21,5.46-18.27.16-6.12-.62-12-7.44-13.68-2-.47-7.52-1.33-9.69-.65-5,1.57-6.89,7.07-9.12,13.43l-.31.89c-.77,2.2-1.15,6.53-.51,8.13,1.83,4.53,10.93,12,16.07,12.2Z"/><path class="cls-8" d="M142.49,184.4c.5-.12,3-.76,3.41-1.9a1,1,0,0,0-.17-1,8.42,8.42,0,0,1-1.17-6.25,3.59,3.59,0,0,1,3.89-.77l.28-.73a4.44,4.44,0,0,0-4.83,1l-.06.08,0,.09c0,.16-.92,4,1.29,7,.1.13.09.21.06.27-.19.55-1.81,1.16-2.85,1.4Z"/><path class="cls-9" d="M126.64,175.88a4.84,4.84,0,1,1-4.67-5A4.83,4.83,0,0,1,126.64,175.88Z"/><path class="cls-8" d="M121.81,180.85h-.17a5.14,5.14,0,0,1-5-5.3A5.09,5.09,0,0,1,118.3,172,5,5,0,0,1,122,170.6a5.13,5.13,0,0,1,5,5.29,5.14,5.14,0,0,1-5.12,5Zm0-9.68a4.55,4.55,0,1,0,4.56,4.7h0a4.56,4.56,0,0,0-4.4-4.7Z"/><path class="cls-8" d="M121.14,179.13a1.29,1.29,0,0,0,.75-.26c.63-.47.34-1.17.12-1.69s-.31-.87-.08-1.07a3.35,3.35,0,0,1,.46-.31c.46-.29,1-.61,1-1.16a1.34,1.34,0,0,0-.44-1.08,2.65,2.65,0,0,0-2.79-.68l.27.73a1.89,1.89,0,0,1,1.94.48.69.69,0,0,1,.24.44c0,.19-.39.42-.68.6a4.76,4.76,0,0,0-.57.39c-.69.61-.35,1.43-.12,2s.24.68.13.76c-.52.39-1.45-.44-1.46-.45l-.54.57A2.7,2.7,0,0,0,121.14,179.13Z"/><path class="cls-8" d="M143,187.17a14.13,14.13,0,0,0,2.6-.32l-.19-.76s-4,.93-7.14-.55l-.33.71A11.23,11.23,0,0,0,143,187.17Z"/><path class="cls-8" d="M135.87,176.46a1.36,1.36,0,0,0,0,.2,1.29,1.29,0,0,0,1.24,1.33,1.3,1.3,0,0,0,1.33-1.25,1.26,1.26,0,0,0-.26-.8A8.56,8.56,0,0,1,135.87,176.46Z"/><path class="cls-8" d="M145.18,176.77a1.23,1.23,0,0,0,0,.2,1.27,1.27,0,0,0,1.24,1.32,1.29,1.29,0,0,0,1.33-1.24,1.24,1.24,0,0,0-.26-.8A8.47,8.47,0,0,1,145.18,176.77Z"/><path class="cls-8" d="M134.41,174.53c4.06-1.92,5.14-.2,5.15-.19l.68-.38c-.05-.1-1.4-2.4-6.17-.14Z"/><path class="cls-8" d="M140.89,212.75c6-.62,8.5-6.42,8.6-6.67l-.73-.29c0,.05-2.38,5.61-7.95,6.18Z"/><path class="cls-8" d="M150.3,297.66l0-.78c-.18,0-17.69-1.07-22.83-16.13l-.74.26C132.08,296.57,150.12,297.65,150.3,297.66Z"/><path class="cls-8" d="M128.32,170.51l-1.49,5.58a6.41,6.41,0,0,1-1.85-.16c.19-5.76-4.64-4.84-4.64-4.84-4.12-6.85,2.3-17.73,7.33-17.14,0,0,4.26-6.64,14.8-3.25s9.27,9.93,9.27,9.93,2.93,1.33,2.34,6.42-4.24,10.33-4.24,10.33l.17-4.48s-10.28-1.72-15.5-8.41C132.93,170.11,128.32,170.51,128.32,170.51Z"/><path class="cls-8" d="M138.44,177.14a1.37,1.37,0,1,1-1.07-1.62A1.37,1.37,0,0,1,138.44,177.14Z"/><path class="cls-8" d="M147.79,177.26a1.37,1.37,0,1,1-1.07-1.62A1.37,1.37,0,0,1,147.79,177.26Z"/><path class="cls-8" d="M76.14,294l-.72,0c.71-38.8,7.36-60.91,12.82-72.63,5.94-12.77,11.66-16.26,11.9-16.41l.37.62C100.28,205.68,77.49,220.14,76.14,294Z"/><path class="cls-9" d="M155.21,288.17c-4-5.75-5.86-8-14.38-5.84a39.6,39.6,0,0,0-8.52,3.26l-1.6-.69a1,1,0,0,0-.29-.12h0c-5.55-2.37-12.92-5.29-19.24-7.72-2.07-.94-4.14-1.87-6.2-2.77,2.7-7.5,5.6-16.32,5.6-16.32,5-19.37-24-29.4-31-14.55s-8.74,34.51-6,43.46A6.28,6.28,0,0,0,75,289.33c1.52,2.45,4.49,4.45,9.39,5.44,13.76,2.8,42.83,2,46.43,1.92.57.05,1.11.12,1.6.19a2.14,2.14,0,0,0,.62,0,1,1,0,0,0,.47-.08,9.76,9.76,0,0,1,3.82-1.14,7.4,7.4,0,0,0,6.95-3.79,19.33,19.33,0,0,1,.68,2.76c.37,2.64,2.28,5.06,3.52,5.09s.58-4.43.58-4.43,1.3,6.46,3.42,3.92-1.22-8.53-2.81-10.84a8.89,8.89,0,0,0-.55-.74c1.51,1.08,3,2.79,3.86,3.37C154.44,292,159.25,293.92,155.21,288.17Z"/><path class="cls-8" d="M151.52,300.05a1.24,1.24,0,0,1-.27,0c-.74-.19-1.32-1.18-1.73-2.2a3.22,3.22,0,0,1-.45,1.88.72.72,0,0,1-.57.27h0c-1.38,0-3.4-2.5-3.79-5.34a16.07,16.07,0,0,0-.5-2.13,7.64,7.64,0,0,1-6.87,3.41,9.75,9.75,0,0,0-3.68,1.12,1.29,1.29,0,0,1-.57.1,2,2,0,0,1-.68,0c-.49-.07-1-.13-1.59-.19-3.27.1-32.65.89-46.46-1.92-4.64-.94-7.86-2.81-9.58-5.57A6.37,6.37,0,0,1,73.29,287c-2.74-9-1-28.67,6-43.66,3.59-7.67,12.6-8.51,19.46-6,7.94,2.86,14.75,10.39,12.06,20.78,0,.11-2.87,8.73-5.52,16.1,2,.86,4,1.76,6,2.65,4.41,1.71,12.8,5,19.24,7.73a1.18,1.18,0,0,1,.34.15l1.44.61a39.69,39.69,0,0,1,8.46-3.21c8.61-2.16,10.61.12,14.69,5.94h0c1.53,2.19,2,3.49,1.37,4.1-.83.84-3.22-.37-4-.9a16.25,16.25,0,0,1-1.48-1.3c-.25-.25-.53-.51-.81-.76,1.36,2.22,4.3,7.67,2.18,10.22A1.62,1.62,0,0,1,151.52,300.05Zm-2.17-4.86c.31,1.53,1.14,4,2,4.27.26.06.56-.09.88-.47,1.9-2.27-1-7.86-2.82-10.5-.18-.26-.36-.49-.54-.72l-1.32-1.63,1.71,1.22a23.9,23.9,0,0,1,2.45,2.12,15,15,0,0,0,1.41,1.25c1,.68,2.83,1.38,3.25,1,.13-.13.4-.75-1.43-3.37-4.1-5.84-5.93-7.75-14.08-5.72a39.3,39.3,0,0,0-8.46,3.24l-.13.06-.12-.05-1.59-.69a1.06,1.06,0,0,0-.25-.12c-6.49-2.76-14.87-6-19.29-7.74-2.08-.94-4.16-1.87-6.21-2.76l-.25-.11.09-.26c2.67-7.41,5.57-16.22,5.59-16.31,2.61-10-4-17.31-11.7-20.08-6.62-2.39-15.3-1.61-18.73,5.74-6.95,14.88-8.72,34.37-6,43.25a6,6,0,0,0,1.37,2.35q2.51,4,9.25,5.36c13.74,2.79,43.06,2,46.36,1.91.61.06,1.15.12,1.65.19a1.59,1.59,0,0,0,.52,0h.08a.76.76,0,0,0,.34-.05,10,10,0,0,1,3.94-1.17,7.08,7.08,0,0,0,6.7-3.65l.33-.53.19.6a20.68,20.68,0,0,1,.69,2.8c.36,2.6,2.24,4.82,3.23,4.84,0,0,.09,0,.15-.07.46-.52.33-2.75.14-4Z"/><path class="cls-2" d="M111.32,205.55c-4.71-2.49-11.15-3.67-20.08,5.7s-18.68,32.14-22.68,50.87c0,0,23.93,16.94,41.78,6.75,0,0,8-32.3,9.63-42.94S116.52,208.3,111.32,205.55Z"/><path class="cls-8" d="M97.43,272.39c-14.65,0-28.86-9.9-29-10l-.16-.11,0-.19c4.19-19.6,14.19-42,22.76-51,9.4-9.86,16.16-8,20.43-5.75h0c5.1,2.7,10.47,9.74,8.8,20.68-1.61,10.53-9.56,42.63-9.64,43l0,.11-.1.07A26,26,0,0,1,97.43,272.39ZM68.88,262c2.08,1.42,24.48,16.12,41.21,6.69.54-2.17,8-32.61,9.6-42.79,1.63-10.64-3.56-17.47-8.5-20.08h0c-4.45-2.35-10.71-3.84-19.75,5.64C83,220.35,73.07,242.52,68.88,262Z"/><path class="cls-8" d="M85.43,250.2a18.19,18.19,0,0,1-1.67-21l.69.39a17.4,17.4,0,0,0,1.57,20Z"/><path class="cls-14" d="M215.64,350c-2.38,2.18-4.71,4.28-6.94,6.23-9.45,8.28-21.88,19.49-26.67,23.82l-2,1.82a72.82,72.82,0,0,1-7.5-6.29c-1.87-3.06-3.55-5.74-4.9-7.84-.73.12-1.47.22-2.21.33a81.75,81.75,0,0,1-5.52-7.32c-5-7.49-9.19-16.7-10.08-27.15l.17-.13,0,0A318.48,318.48,0,0,1,176.67,313c4,.84,7.32,1.71,10,2.37a24.83,24.83,0,0,1,15.4,10.48C205.71,330.24,210.57,339.34,215.64,350Z"/><polygon class="cls-9" points="143.52 332.3 154.26 349.07 178.74 339.36 165.28 318.36 143.52 332.3"/><path class="cls-8" d="M154.14,349.46l-.15-.22-10.91-17,22.3-14.28,13.84,21.6ZM144,332.4l10.43,16.27,23.87-9.46L165.19,318.8Z"/><path class="cls-7" d="M162.93,346.77s-1.41-5.26-8.52-6.3-5.06-5.43-5.34-7a7,7,0,0,0-3.14-4.89s-17.67,15.3-26.24,30.76L170,393.78s5-4,2.28-9.29-18-23.88-17.17-30.54S162.93,346.77,162.93,346.77Z"/><path class="cls-8" d="M170,394.18l-.19-.13-50.52-34.64.14-.26c8.5-15.33,26.14-30.69,26.31-30.85l.19-.16.2.14a7.38,7.38,0,0,1,3.28,5.11,5.31,5.31,0,0,1,0,1.25c-.15,2-.36,4.71,5.09,5.51,7.23,1.06,8.76,6.48,8.78,6.54l.1.37-.39,0c-.27,0-6.74.59-7.55,6.9-.58,4.57,6.77,15.1,12.14,22.79a88.94,88.94,0,0,1,5,7.56c2.83,5.48-2.31,9.65-2.36,9.69Zm-49.87-35L170,393.38c.86-.77,4.34-4.24,2-8.75-.8-1.55-2.72-4.3-5-7.49-5.43-7.77-12.86-18.41-12.25-23.23.75-5.89,6.2-7.16,7.74-7.41-.45-1.17-2.31-4.86-8.14-5.71-6-.89-5.78-4.21-5.63-6.2a4.52,4.52,0,0,0,0-1.09A6.73,6.73,0,0,0,146,329C144.05,330.64,128.13,344.91,120.11,359.21Z"/><path class="cls-8" d="M131.76,362.35l-.72-.5c6.37-9.29.1-18.06,0-18.14l.71-.52C131.85,343.28,138.48,352.55,131.76,362.35Z"/><path class="cls-8" d="M122.53,354.49c-1.29,1.78-2.07,3.58-2.84,4.82L170,393.78a9.17,9.17,0,0,0,2.95-4.74Z"/><path class="cls-8" d="M160.66,368.39l-7.17-2.53c-.41-.41-9.9-10-7.72-15.6s9.25-7.52,9.55-7.6l.22.84c-.06,0-7,1.93-9,7.07-1.88,4.86,6.6,13.72,7.46,14.6l6.91,2.39Z"/><rect class="cls-8" x="153.28" y="356.44" width="0.87" height="6.73" transform="translate(-234.1 411.63) rotate(-74.48)"/><rect class="cls-8" x="151.12" y="350.32" width="0.87" height="6.73" transform="translate(-229.78 405.06) rotate(-74.48)"/><path class="cls-8" d="M247.7,312.4c-7.9,9-23,23.61-34.91,34.08s-28.68,25.65-28.68,25.65-27.74-19.35-30.22-48.27c0,0,47.79-35.35,59.47-43.74C235.73,264.06,261.85,296.35,247.7,312.4Z"/><path class="cls-14" d="M182,330.58l-.32-.81c.13-.06,13.36-5.25,24.94-6.51l.09.87C195.21,325.37,182.09,330.53,182,330.58Z"/><path class="cls-14" d="M154.63,324.36l-.58-.66c.33-.29,33.45-29.18,58.86-37.84l.29.83C188,295.29,155,324.07,154.63,324.36Z"/><path class="cls-16" d="M186.93,302.13a.44.44,0,0,1-.3.55l-73.16,21.05a.89.89,0,0,1-1.09-.6l-.59-2.05,74.43-21.42Z"/><path class="cls-16" d="M121.1,317.47l.25.86-2.62.75-.33-1.14,2.33-.67A.3.3,0,0,1,121.1,317.47Z"/><path class="cls-16" d="M124.13,316.6l.25.86-2.62.75-.33-1.14,2.33-.67A.29.29,0,0,1,124.13,316.6Z"/><path class="cls-16" d="M127.16,315.73l.25.86-2.62.75-.33-1.14,2.33-.67A.29.29,0,0,1,127.16,315.73Z"/><path class="cls-16" d="M139.78,312.1l.25.86-2.61.75-.33-1.15,2.33-.67A.3.3,0,0,1,139.78,312.1Z"/><path class="cls-16" d="M142.81,311.22l.25.86-2.61.76-.33-1.15,2.33-.67A.3.3,0,0,1,142.81,311.22Z"/><path class="cls-16" d="M178.38,301l.25.86-2.61.75-.33-1.14,2.33-.67A.28.28,0,0,1,178.38,301Z"/><path class="cls-16" d="M181.42,300.12l.24.86-2.61.75-.33-1.15,2.33-.67A.31.31,0,0,1,181.42,300.12Z"/><path class="cls-16" d="M136.66,313l.25.86-9,2.59-.33-1.15,8.7-2.5A.3.3,0,0,1,136.66,313Z"/><path class="cls-16" d="M191.25,297.29l.25.86-9,2.58-.33-1.14,8.69-2.51A.3.3,0,0,1,191.25,297.29Z"/><path class="cls-16" d="M175.07,301.94l.25.86-31.18,9-.33-1.14,30.89-8.89A.3.3,0,0,1,175.07,301.94Z"/><path class="cls-17" d="M190.46,297.21l6.32-1.82a.67.67,0,0,1,.84.46l.14.49-7.26,2.09-.25-.86A.3.3,0,0,1,190.46,297.21Z"/><path class="cls-18" d="M199.2,294.69l6.33-1.82a.67.67,0,0,1,.83.46l.15.5-7.26,2.09-.25-.86A.29.29,0,0,1,199.2,294.69Z"/><path class="cls-19" d="M208,292.17l6.33-1.82a.68.68,0,0,1,.83.46l.14.5L208,293.4l-.24-.86A.29.29,0,0,1,208,292.17Z"/><path class="cls-20" d="M216.69,289.66l6.33-1.82a.67.67,0,0,1,.84.46l.14.5-7.26,2.08-.25-.86A.3.3,0,0,1,216.69,289.66Z"/><path class="cls-21" d="M227,286.69l3.31-.95a.69.69,0,0,1,.84.46l.14.5L227,287.92l-.25-.86A.29.29,0,0,1,227,286.69Z"/><path class="cls-22" d="M232.15,285.21l3.31-.95a.67.67,0,0,1,.83.46l.15.5-4.25,1.22-.25-.86A.31.31,0,0,1,232.15,285.21Z"/><path class="cls-23" d="M237,283.81l3.31-.95a.68.68,0,0,1,.84.46l.14.5L237.05,285l-.25-.86A.29.29,0,0,1,237,283.81Z"/><path class="cls-16" d="M164.44,246.76a5.72,5.72,0,0,1,4-5.57l.76,66.12a3.47,3.47,0,0,1-3.27-3.47C165.83,301.05,164.79,260.18,164.44,246.76Z"/><path class="cls-9" d="M168.14,240.69l77.93-22.42a1.74,1.74,0,0,1,2.22,1.61l2,60.79-82,23.59-1.91-61.13A2.47,2.47,0,0,1,168.14,240.69Z"/><path class="cls-8" d="M168,304.64v-.37l-1.91-61.13a2.75,2.75,0,0,1,2-2.73L246,218a2,2,0,0,1,1.75.31,2,2,0,0,1,.83,1.57l2,61-.22.07Zm.23-63.67a2.16,2.16,0,0,0-1.57,2.16l1.89,60.75L250,280.46,248,219.89a1.47,1.47,0,0,0-1.85-1.35Z"/><path class="cls-8" d="M166,243.15a2.88,2.88,0,0,1,2.08-2.86L246,217.87a2.16,2.16,0,0,1,1.86.33,2.13,2.13,0,0,1,.89,1.67l2,60.79V281l-82.8,23.82Zm81.92-23.25a1.3,1.3,0,0,0-.54-1,1.31,1.31,0,0,0-1.15-.21l-77.92,22.43a2,2,0,0,0-1.49,2l1.89,60.59,81.16-23.35Z"/><path class="cls-8" d="M251.47,283.56a.44.44,0,0,1-.3.55l-80.41,23.14a.89.89,0,0,1-1.09-.61l-.75-2.59,81.68-23.5Z"/><rect class="cls-8" x="111.55" y="312.07" width="59.62" height="1.01" transform="translate(-80.92 51.27) rotate(-16.05)"/><rect class="cls-16" x="182.55" y="290.21" width="69.56" height="1.01" transform="translate(-71.91 71.43) rotate(-16.05)"/><rect class="cls-8" x="349.77" y="393.92" width="107.89" height="25.78" rx="6.43"/><rect class="cls-7" x="311.25" y="393.92" width="107.89" height="25.78" rx="6.43"/><path class="cls-8" d="M412.71,420.17h-95a6.91,6.91,0,0,1-6.91-6.9V400.35a6.91,6.91,0,0,1,6.91-6.9h95a6.91,6.91,0,0,1,6.9,6.9v12.92A6.91,6.91,0,0,1,412.71,420.17Zm-95-25.77a6,6,0,0,0-6,6v12.92a6,6,0,0,0,6,6h95a6,6,0,0,0,6-6V400.35a6,6,0,0,0-6-6Z"/><path class="cls-14" d="M408.15,407.82h-62a1.48,1.48,0,0,0,0,3h62a1.48,1.48,0,1,0,0-3Z"/><path class="cls-11" d="M408.15,407.82H352.8a1.48,1.48,0,0,0,0,3h55.35a1.48,1.48,0,1,0,0-3Z"/><path class="cls-14" d="M408.15,402.16h-62a1.48,1.48,0,0,0,0,3h62a1.48,1.48,0,1,0,0-3Z"/><path class="cls-9" d="M408.15,402.16h-47a1.48,1.48,0,0,0,0,3h47a1.48,1.48,0,1,0,0-3Z"/><path class="cls-14" d="M393.41,414.51H355.57a3.56,3.56,0,0,0-3.56,3.56v1.63h45v-1.63A3.56,3.56,0,0,0,393.41,414.51Z"/><path class="cls-14" d="M446.16,414.51H430.45a3.56,3.56,0,0,0-3.57,3.56v1.63h22.84v-1.63A3.56,3.56,0,0,0,446.16,414.51Z"/><path class="cls-24" d="M320.75,404.32a2.49,2.49,0,1,0,2.5,2.49A2.48,2.48,0,0,0,320.75,404.32Z"/><path class="cls-14" d="M320.75,403.89a2.92,2.92,0,1,0,2.92,2.92A2.91,2.91,0,0,0,320.75,403.89Zm0,5a2.07,2.07,0,1,1,2.07-2.07A2.07,2.07,0,0,1,320.75,408.88Z"/><path class="cls-8" d="M329.73,404.32a2.49,2.49,0,1,0,2.5,2.49A2.49,2.49,0,0,0,329.73,404.32Z"/><path class="cls-14" d="M329.73,403.89a2.92,2.92,0,1,0,2.92,2.92A2.92,2.92,0,0,0,329.73,403.89Zm0,5a2.07,2.07,0,1,1,2.08-2.07A2.07,2.07,0,0,1,329.73,408.88Z"/><rect class="cls-14" x="332.23" y="405.97" width="5.26" height="1.68"/><path class="cls-14" d="M449.63,401.18a1.66,1.66,0,1,0,1.66,1.66A1.65,1.65,0,0,0,449.63,401.18Z"/><path class="cls-14" d="M449.63,407.16a1.66,1.66,0,1,0,1.66,1.65A1.65,1.65,0,0,0,449.63,407.16Z"/><path class="cls-14" d="M442.08,401.18a1.66,1.66,0,1,0,1.65,1.66A1.65,1.65,0,0,0,442.08,401.18Z"/><path class="cls-14" d="M442.08,407.16a1.66,1.66,0,1,0,1.65,1.65A1.65,1.65,0,0,0,442.08,407.16Z"/><path class="cls-14" d="M434.53,401.18a1.66,1.66,0,1,0,1.65,1.66A1.65,1.65,0,0,0,434.53,401.18Z"/><path class="cls-14" d="M434.53,407.16a1.66,1.66,0,1,0,1.65,1.65A1.65,1.65,0,0,0,434.53,407.16Z"/><path class="cls-14" d="M427,401.18a1.66,1.66,0,1,0,1.65,1.66A1.66,1.66,0,0,0,427,401.18Z"/><path class="cls-14" d="M427,407.16a1.66,1.66,0,1,0,1.65,1.65A1.65,1.65,0,0,0,427,407.16Z"/><rect class="cls-14" x="323.25" y="419.7" width="123.9" height="4.07"/><rect class="cls-8" x="349.77" y="364.08" width="107.89" height="25.78" rx="6.43"/><rect class="cls-7" x="311.25" y="364.08" width="107.89" height="25.78" rx="6.43"/><path class="cls-8" d="M412.71,390.33h-95a6.92,6.92,0,0,1-6.91-6.91V370.51a6.92,6.92,0,0,1,6.91-6.91h95a6.92,6.92,0,0,1,6.9,6.91v12.91A6.92,6.92,0,0,1,412.71,390.33Zm-95-25.78a6,6,0,0,0-6,6v12.91a6,6,0,0,0,6,6h95a6,6,0,0,0,6-6V370.51a6,6,0,0,0-6-6Z"/><path class="cls-14" d="M408.15,378h-62a1.48,1.48,0,0,0,0,3h62a1.48,1.48,0,1,0,0-3Z"/><path class="cls-11" d="M408.15,378H352.8a1.48,1.48,0,1,0,0,3h55.35a1.48,1.48,0,1,0,0-3Z"/><path class="cls-14" d="M408.15,372.31h-62a1.49,1.49,0,0,0,0,3h62a1.49,1.49,0,0,0,0-3Z"/><path class="cls-9" d="M408.15,372.31h-47a1.49,1.49,0,0,0,0,3h47a1.49,1.49,0,0,0,0-3Z"/><path class="cls-14" d="M393.41,384.66H355.57a3.57,3.57,0,0,0-3.56,3.56v1.63h45v-1.63A3.57,3.57,0,0,0,393.41,384.66Z"/><path class="cls-14" d="M446.16,384.66H430.45a3.57,3.57,0,0,0-3.57,3.56v1.63h22.84v-1.63A3.56,3.56,0,0,0,446.16,384.66Z"/><path class="cls-24" d="M320.75,374.47a2.5,2.5,0,1,0,2.5,2.5A2.49,2.49,0,0,0,320.75,374.47Z"/><path class="cls-14" d="M320.75,374.05a2.92,2.92,0,1,0,2.92,2.91A2.91,2.91,0,0,0,320.75,374.05Zm0,5a2.08,2.08,0,1,1,2.07-2.08A2.08,2.08,0,0,1,320.75,379Z"/><path class="cls-8" d="M329.73,374.47a2.5,2.5,0,1,0,2.5,2.5A2.5,2.5,0,0,0,329.73,374.47Z"/><path class="cls-14" d="M329.73,374.05a2.92,2.92,0,1,0,2.92,2.91A2.92,2.92,0,0,0,329.73,374.05Zm0,5a2.08,2.08,0,1,1,2.08-2.08A2.08,2.08,0,0,1,329.73,379Z"/><rect class="cls-14" x="332.23" y="376.12" width="5.26" height="1.68"/><path class="cls-14" d="M449.63,371.34a1.65,1.65,0,1,0,1.66,1.65A1.65,1.65,0,0,0,449.63,371.34Z"/><path class="cls-14" d="M449.63,377.32a1.65,1.65,0,1,0,1.66,1.65A1.65,1.65,0,0,0,449.63,377.32Z"/><path class="cls-14" d="M442.08,371.34a1.65,1.65,0,1,0,1.65,1.65A1.65,1.65,0,0,0,442.08,371.34Z"/><path class="cls-14" d="M442.08,377.32a1.65,1.65,0,1,0,1.65,1.65A1.65,1.65,0,0,0,442.08,377.32Z"/><path class="cls-14" d="M434.53,371.34a1.65,1.65,0,1,0,1.65,1.65A1.65,1.65,0,0,0,434.53,371.34Z"/><path class="cls-14" d="M434.53,377.32a1.65,1.65,0,1,0,1.65,1.65A1.65,1.65,0,0,0,434.53,377.32Z"/><path class="cls-14" d="M427,371.34a1.65,1.65,0,1,0,1.65,1.65A1.65,1.65,0,0,0,427,371.34Z"/><path class="cls-14" d="M427,377.32a1.65,1.65,0,1,0,1.65,1.65A1.65,1.65,0,0,0,427,377.32Z"/><rect class="cls-14" x="323.25" y="389.85" width="123.9" height="4.07"/><rect class="cls-8" x="349.77" y="334.23" width="107.89" height="25.78" rx="6.43"/><rect class="cls-7" x="311.25" y="334.23" width="107.89" height="25.78" rx="6.43"/><path class="cls-8" d="M412.71,360.49h-95a6.92,6.92,0,0,1-6.91-6.91V340.66a6.92,6.92,0,0,1,6.91-6.9h95a6.91,6.91,0,0,1,6.9,6.9v12.92A6.92,6.92,0,0,1,412.71,360.49Zm-95-25.78a6,6,0,0,0-6,6v12.92a6,6,0,0,0,6,5.95h95a6,6,0,0,0,6-5.95V340.66a6,6,0,0,0-6-6Z"/><path class="cls-14" d="M408.15,348.13h-62a1.49,1.49,0,0,0,0,3h62a1.49,1.49,0,0,0,0-3Z"/><path class="cls-11" d="M408.15,348.13H352.8a1.49,1.49,0,0,0,0,3h55.35a1.49,1.49,0,0,0,0-3Z"/><path class="cls-14" d="M408.15,342.47h-62a1.48,1.48,0,0,0,0,3h62a1.48,1.48,0,1,0,0-3Z"/><path class="cls-9" d="M408.15,342.47h-47a1.48,1.48,0,1,0,0,3h47a1.48,1.48,0,1,0,0-3Z"/><path class="cls-14" d="M393.41,354.82H355.57a3.56,3.56,0,0,0-3.56,3.56V360h45v-1.63A3.56,3.56,0,0,0,393.41,354.82Z"/><path class="cls-14" d="M446.16,354.82H430.45a3.56,3.56,0,0,0-3.57,3.56V360h22.84v-1.63A3.56,3.56,0,0,0,446.16,354.82Z"/><path class="cls-24" d="M320.75,344.63a2.5,2.5,0,1,0,2.5,2.49A2.48,2.48,0,0,0,320.75,344.63Z"/><path class="cls-14" d="M320.75,344.21a2.92,2.92,0,1,0,2.92,2.91A2.91,2.91,0,0,0,320.75,344.21Zm0,5a2.07,2.07,0,1,1,2.07-2.07A2.07,2.07,0,0,1,320.75,349.19Z"/><path class="cls-8" d="M329.73,344.63a2.5,2.5,0,1,0,2.5,2.49A2.49,2.49,0,0,0,329.73,344.63Z"/><path class="cls-14" d="M329.73,344.21a2.92,2.92,0,1,0,2.92,2.91A2.91,2.91,0,0,0,329.73,344.21Zm0,5a2.07,2.07,0,1,1,2.08-2.07A2.07,2.07,0,0,1,329.73,349.19Z"/><rect class="cls-14" x="332.23" y="346.28" width="5.26" height="1.68"/><path class="cls-14" d="M449.63,341.49a1.66,1.66,0,1,0,1.66,1.66A1.65,1.65,0,0,0,449.63,341.49Z"/><path class="cls-14" d="M449.63,347.47a1.66,1.66,0,1,0,1.66,1.66A1.65,1.65,0,0,0,449.63,347.47Z"/><path class="cls-14" d="M442.08,341.49a1.66,1.66,0,1,0,1.65,1.66A1.65,1.65,0,0,0,442.08,341.49Z"/><path class="cls-14" d="M442.08,347.47a1.66,1.66,0,1,0,1.65,1.66A1.65,1.65,0,0,0,442.08,347.47Z"/><path class="cls-14" d="M434.53,341.49a1.66,1.66,0,1,0,1.65,1.66A1.65,1.65,0,0,0,434.53,341.49Z"/><path class="cls-14" d="M434.53,347.47a1.66,1.66,0,1,0,1.65,1.66A1.65,1.65,0,0,0,434.53,347.47Z"/><path class="cls-14" d="M427,341.49a1.66,1.66,0,1,0,1.65,1.66A1.66,1.66,0,0,0,427,341.49Z"/><path class="cls-14" d="M427,347.47a1.66,1.66,0,1,0,1.65,1.66A1.66,1.66,0,0,0,427,347.47Z"/><rect class="cls-14" x="323.25" y="360.01" width="123.9" height="4.07"/><rect class="cls-8" x="349.77" y="304.39" width="107.89" height="25.78" rx="6.43"/><rect class="cls-7" x="311.25" y="304.39" width="107.89" height="25.78" rx="6.43"/><path class="cls-8" d="M412.71,330.64h-95a6.92,6.92,0,0,1-6.91-6.9V310.82a6.92,6.92,0,0,1,6.91-6.91h95a6.92,6.92,0,0,1,6.9,6.91v12.92A6.91,6.91,0,0,1,412.71,330.64Zm-95-25.78a6,6,0,0,0-6,6v12.92a6,6,0,0,0,6,5.95h95a6,6,0,0,0,6-5.95V310.82a6,6,0,0,0-6-6Z"/><path class="cls-14" d="M408.15,318.29h-62a1.48,1.48,0,1,0,0,3h62a1.48,1.48,0,1,0,0-3Z"/><path class="cls-11" d="M408.15,318.29H352.8a1.48,1.48,0,0,0,0,3h55.35a1.48,1.48,0,1,0,0-3Z"/><path class="cls-14" d="M408.15,312.63h-62a1.48,1.48,0,0,0,0,3h62a1.48,1.48,0,0,0,0-3Z"/><path class="cls-9" d="M408.15,312.63h-47a1.48,1.48,0,0,0,0,3h47a1.48,1.48,0,0,0,0-3Z"/><path class="cls-14" d="M393.41,325H355.57a3.57,3.57,0,0,0-3.56,3.57v1.63h45v-1.63A3.57,3.57,0,0,0,393.41,325Z"/><path class="cls-14" d="M446.16,325H430.45a3.57,3.57,0,0,0-3.57,3.57v1.63h22.84v-1.63A3.56,3.56,0,0,0,446.16,325Z"/><path class="cls-24" d="M320.75,314.78a2.5,2.5,0,1,0,2.5,2.5A2.49,2.49,0,0,0,320.75,314.78Z"/><path class="cls-14" d="M320.75,314.36a2.92,2.92,0,1,0,2.92,2.92A2.91,2.91,0,0,0,320.75,314.36Zm0,5a2.08,2.08,0,1,1,2.07-2.07A2.07,2.07,0,0,1,320.75,319.35Z"/><path class="cls-8" d="M329.73,314.78a2.5,2.5,0,1,0,2.5,2.5A2.5,2.5,0,0,0,329.73,314.78Z"/><path class="cls-14" d="M329.73,314.36a2.92,2.92,0,1,0,2.92,2.92A2.92,2.92,0,0,0,329.73,314.36Zm0,5a2.08,2.08,0,1,1,2.08-2.07A2.07,2.07,0,0,1,329.73,319.35Z"/><rect class="cls-14" x="332.23" y="316.44" width="5.26" height="1.68"/><path class="cls-14" d="M449.63,311.65a1.66,1.66,0,1,0,1.66,1.65A1.65,1.65,0,0,0,449.63,311.65Z"/><path class="cls-14" d="M449.63,317.63a1.65,1.65,0,1,0,1.66,1.65A1.65,1.65,0,0,0,449.63,317.63Z"/><path class="cls-14" d="M442.08,311.65a1.66,1.66,0,1,0,1.65,1.65A1.65,1.65,0,0,0,442.08,311.65Z"/><path class="cls-14" d="M442.08,317.63a1.65,1.65,0,1,0,1.65,1.65A1.65,1.65,0,0,0,442.08,317.63Z"/><path class="cls-14" d="M434.53,311.65a1.66,1.66,0,1,0,1.65,1.65A1.65,1.65,0,0,0,434.53,311.65Z"/><path class="cls-14" d="M434.53,317.63a1.65,1.65,0,1,0,1.65,1.65A1.65,1.65,0,0,0,434.53,317.63Z"/><path class="cls-14" d="M427,311.65a1.66,1.66,0,1,0,1.65,1.65A1.65,1.65,0,0,0,427,311.65Z"/><path class="cls-14" d="M427,317.63a1.65,1.65,0,1,0,1.65,1.65A1.65,1.65,0,0,0,427,317.63Z"/><rect class="cls-14" x="323.25" y="330.17" width="123.9" height="4.07"/><rect class="cls-8" x="349.77" y="274.58" width="107.89" height="25.78" rx="6.43"/><rect class="cls-7" x="311.25" y="274.58" width="107.89" height="25.78" rx="6.43"/><path class="cls-8" d="M412.71,300.84h-95a6.92,6.92,0,0,1-6.91-6.91V281a6.91,6.91,0,0,1,6.91-6.9h95a6.91,6.91,0,0,1,6.9,6.9v12.92A6.92,6.92,0,0,1,412.71,300.84Zm-95-25.78a6,6,0,0,0-6,5.95v12.92a6,6,0,0,0,6,5.95h95a6,6,0,0,0,6-5.95V281a6,6,0,0,0-6-5.95Z"/><path class="cls-14" d="M408.15,288.48h-62a1.49,1.49,0,0,0,0,3h62a1.49,1.49,0,0,0,0-3Z"/><path class="cls-11" d="M408.15,288.48H352.8a1.49,1.49,0,0,0,0,3h55.35a1.49,1.49,0,0,0,0-3Z"/><path class="cls-14" d="M408.15,282.82h-62a1.48,1.48,0,0,0,0,3h62a1.48,1.48,0,0,0,0-3Z"/><path class="cls-9" d="M408.15,282.82h-47a1.48,1.48,0,0,0,0,3h47a1.48,1.48,0,0,0,0-3Z"/><path class="cls-14" d="M393.41,295.17H355.57a3.56,3.56,0,0,0-3.56,3.56v1.63h45v-1.63A3.56,3.56,0,0,0,393.41,295.17Z"/><path class="cls-14" d="M446.16,295.17H430.45a3.56,3.56,0,0,0-3.57,3.56v1.63h22.84v-1.63A3.56,3.56,0,0,0,446.16,295.17Z"/><path class="cls-24" d="M320.75,285a2.49,2.49,0,1,0,2.5,2.49A2.48,2.48,0,0,0,320.75,285Z"/><path class="cls-14" d="M320.75,284.56a2.92,2.92,0,1,0,2.92,2.91A2.91,2.91,0,0,0,320.75,284.56Zm0,5a2.07,2.07,0,1,1,2.07-2.07A2.07,2.07,0,0,1,320.75,289.54Z"/><path class="cls-8" d="M329.73,285a2.49,2.49,0,1,0,2.5,2.49A2.49,2.49,0,0,0,329.73,285Z"/><path class="cls-14" d="M329.73,284.56a2.92,2.92,0,1,0,2.92,2.91A2.91,2.91,0,0,0,329.73,284.56Zm0,5a2.07,2.07,0,1,1,2.08-2.07A2.07,2.07,0,0,1,329.73,289.54Z"/><rect class="cls-14" x="332.23" y="286.63" width="5.26" height="1.68"/><path class="cls-14" d="M449.63,281.84a1.66,1.66,0,1,0,1.66,1.66A1.65,1.65,0,0,0,449.63,281.84Z"/><path class="cls-14" d="M449.63,287.82a1.66,1.66,0,1,0,1.66,1.66A1.65,1.65,0,0,0,449.63,287.82Z"/><path class="cls-14" d="M442.08,281.84a1.66,1.66,0,1,0,1.65,1.66A1.65,1.65,0,0,0,442.08,281.84Z"/><path class="cls-14" d="M442.08,287.82a1.66,1.66,0,1,0,1.65,1.66A1.65,1.65,0,0,0,442.08,287.82Z"/><path class="cls-14" d="M434.53,281.84a1.66,1.66,0,1,0,1.65,1.66A1.65,1.65,0,0,0,434.53,281.84Z"/><path class="cls-14" d="M434.53,287.82a1.66,1.66,0,1,0,1.65,1.66A1.65,1.65,0,0,0,434.53,287.82Z"/><path class="cls-14" d="M427,281.84a1.66,1.66,0,1,0,1.65,1.66A1.66,1.66,0,0,0,427,281.84Z"/><path class="cls-14" d="M427,287.82a1.66,1.66,0,1,0,1.65,1.66A1.66,1.66,0,0,0,427,287.82Z"/><rect class="cls-14" x="323.25" y="300.36" width="123.9" height="4.07"/><rect class="cls-8" x="349.77" y="244.74" width="107.89" height="25.78" rx="6.43"/><rect class="cls-7" x="311.25" y="244.74" width="107.89" height="25.78" rx="6.43"/><path class="cls-8" d="M412.71,271h-95a6.92,6.92,0,0,1-6.91-6.9V251.17a6.92,6.92,0,0,1,6.91-6.91h95a6.92,6.92,0,0,1,6.9,6.91v12.92A6.91,6.91,0,0,1,412.71,271Zm-95-25.78a6,6,0,0,0-6,6v12.92a6,6,0,0,0,6,6h95a6,6,0,0,0,6-6V251.17a6,6,0,0,0-6-6Z"/><path class="cls-14" d="M408.15,258.64h-62a1.48,1.48,0,1,0,0,3h62a1.48,1.48,0,0,0,0-3Z"/><path class="cls-11" d="M408.15,258.64H352.8a1.48,1.48,0,0,0,0,3h55.35a1.48,1.48,0,0,0,0-3Z"/><path class="cls-14" d="M408.15,253h-62a1.49,1.49,0,0,0,0,3h62a1.49,1.49,0,0,0,0-3Z"/><path class="cls-9" d="M408.15,253h-47a1.49,1.49,0,0,0,0,3h47a1.49,1.49,0,0,0,0-3Z"/><path class="cls-14" d="M393.41,265.32H355.57a3.57,3.57,0,0,0-3.56,3.57v1.62h45v-1.62A3.57,3.57,0,0,0,393.41,265.32Z"/><path class="cls-14" d="M446.16,265.32H430.45a3.57,3.57,0,0,0-3.57,3.57v1.62h22.84v-1.62A3.56,3.56,0,0,0,446.16,265.32Z"/><path class="cls-24" d="M320.75,255.13a2.5,2.5,0,1,0,2.5,2.5A2.49,2.49,0,0,0,320.75,255.13Z"/><path class="cls-14" d="M320.75,254.71a2.92,2.92,0,1,0,2.92,2.92A2.91,2.91,0,0,0,320.75,254.71Zm0,5a2.08,2.08,0,1,1,2.07-2.07A2.07,2.07,0,0,1,320.75,259.7Z"/><path class="cls-8" d="M329.73,255.13a2.5,2.5,0,1,0,2.5,2.5A2.5,2.5,0,0,0,329.73,255.13Z"/><path class="cls-14" d="M329.73,254.71a2.92,2.92,0,1,0,2.92,2.92A2.92,2.92,0,0,0,329.73,254.71Zm0,5a2.08,2.08,0,1,1,2.08-2.07A2.07,2.07,0,0,1,329.73,259.7Z"/><rect class="cls-14" x="332.23" y="256.78" width="5.26" height="1.68"/><path class="cls-14" d="M449.63,252a1.65,1.65,0,1,0,1.66,1.65A1.65,1.65,0,0,0,449.63,252Z"/><path class="cls-14" d="M449.63,258a1.65,1.65,0,1,0,1.66,1.65A1.65,1.65,0,0,0,449.63,258Z"/><path class="cls-14" d="M442.08,252a1.65,1.65,0,1,0,1.65,1.65A1.65,1.65,0,0,0,442.08,252Z"/><path class="cls-14" d="M442.08,258a1.65,1.65,0,1,0,1.65,1.65A1.65,1.65,0,0,0,442.08,258Z"/><path class="cls-14" d="M434.53,252a1.65,1.65,0,1,0,1.65,1.65A1.65,1.65,0,0,0,434.53,252Z"/><path class="cls-14" d="M434.53,258a1.65,1.65,0,1,0,1.65,1.65A1.65,1.65,0,0,0,434.53,258Z"/><path class="cls-14" d="M427,252a1.65,1.65,0,1,0,1.65,1.65A1.65,1.65,0,0,0,427,252Z"/><path class="cls-14" d="M427,258a1.65,1.65,0,1,0,1.65,1.65A1.65,1.65,0,0,0,427,258Z"/><rect class="cls-14" x="323.25" y="270.51" width="123.9" height="4.07"/><rect class="cls-8" x="349.77" y="423.77" width="107.89" height="25.78" rx="6.43"/><rect class="cls-7" x="311.25" y="423.77" width="107.89" height="25.78" rx="6.43"/><path class="cls-8" d="M412.71,450h-95a6.92,6.92,0,0,1-6.91-6.91V430.19a6.92,6.92,0,0,1,6.91-6.9h95a6.91,6.91,0,0,1,6.9,6.9v12.92A6.92,6.92,0,0,1,412.71,450Zm-95-25.78a6,6,0,0,0-6,5.95v12.92a6,6,0,0,0,6,6h95a6,6,0,0,0,6-6V430.19a6,6,0,0,0-6-5.95Z"/><path class="cls-14" d="M408.15,437.67h-62a1.48,1.48,0,1,0,0,3h62a1.48,1.48,0,1,0,0-3Z"/><path class="cls-11" d="M408.15,437.67H352.8a1.48,1.48,0,1,0,0,3h55.35a1.48,1.48,0,1,0,0-3Z"/><path class="cls-14" d="M408.15,432h-62a1.48,1.48,0,0,0,0,3h62a1.48,1.48,0,0,0,0-3Z"/><path class="cls-9" d="M408.15,432h-47a1.48,1.48,0,0,0,0,3h47a1.48,1.48,0,0,0,0-3Z"/><path class="cls-14" d="M393.41,444.35H355.57a3.56,3.56,0,0,0-3.56,3.56v1.63h45v-1.63A3.56,3.56,0,0,0,393.41,444.35Z"/><path class="cls-14" d="M446.16,444.35H430.45a3.56,3.56,0,0,0-3.57,3.56v1.63h22.84v-1.63A3.56,3.56,0,0,0,446.16,444.35Z"/><path class="cls-24" d="M320.75,434.16a2.5,2.5,0,1,0,2.5,2.49A2.49,2.49,0,0,0,320.75,434.16Z"/><path class="cls-14" d="M320.75,433.74a2.92,2.92,0,1,0,2.92,2.91A2.91,2.91,0,0,0,320.75,433.74Zm0,5a2.08,2.08,0,1,1,2.07-2.08A2.08,2.08,0,0,1,320.75,438.73Z"/><path class="cls-8" d="M329.73,434.16a2.5,2.5,0,1,0,2.5,2.49A2.5,2.5,0,0,0,329.73,434.16Z"/><path class="cls-14" d="M329.73,433.74a2.92,2.92,0,1,0,2.92,2.91A2.92,2.92,0,0,0,329.73,433.74Zm0,5a2.08,2.08,0,1,1,2.08-2.08A2.08,2.08,0,0,1,329.73,438.73Z"/><rect class="cls-14" x="332.23" y="435.81" width="5.26" height="1.68"/><path class="cls-14" d="M449.63,431a1.65,1.65,0,1,0,1.66,1.65A1.65,1.65,0,0,0,449.63,431Z"/><path class="cls-14" d="M449.63,437a1.65,1.65,0,1,0,1.66,1.65A1.65,1.65,0,0,0,449.63,437Z"/><path class="cls-14" d="M442.08,431a1.65,1.65,0,1,0,1.65,1.65A1.65,1.65,0,0,0,442.08,431Z"/><path class="cls-14" d="M442.08,437a1.65,1.65,0,1,0,1.65,1.65A1.65,1.65,0,0,0,442.08,437Z"/><path class="cls-14" d="M434.53,431a1.65,1.65,0,1,0,1.65,1.65A1.65,1.65,0,0,0,434.53,431Z"/><path class="cls-14" d="M434.53,437a1.65,1.65,0,1,0,1.65,1.65A1.65,1.65,0,0,0,434.53,437Z"/><path class="cls-14" d="M427,431a1.65,1.65,0,1,0,1.65,1.65A1.65,1.65,0,0,0,427,431Z"/><path class="cls-14" d="M427,437a1.65,1.65,0,1,0,1.65,1.65A1.65,1.65,0,0,0,427,437Z"/><rect class="cls-14" x="323.25" y="449.54" width="123.9" height="4.07"/><path class="cls-9" d="M428.79,372.15H427v1.68h1.81a4.91,4.91,0,0,1,4.9,4.9v18.36a4.91,4.91,0,0,1-4.9,4.9H427v1.69h1.81a6.59,6.59,0,0,0,6.58-6.59V378.73A6.59,6.59,0,0,0,428.79,372.15Z"/><path class="cls-9" d="M444,342.18h-1.81v1.69H444a4.91,4.91,0,0,1,4.9,4.9v18.36A4.91,4.91,0,0,1,444,372h-1.81v1.68H444a6.59,6.59,0,0,0,6.59-6.58V348.77A6.6,6.6,0,0,0,444,342.18Z"/></g></g></svg>