<svg xmlns="http://www.w3.org/2000/svg" xmlns:xlink="http://www.w3.org/1999/xlink" viewBox="0 0 604.07 462.73"><defs><style>.cls-1{fill:none;}.cls-2{fill:#e6e6e6;}.cls-3{clip-path:url(#clip-path);}.cls-4{fill:#f5f5f5;}.cls-5{fill:#fff;}.cls-6{fill:#dbdbdb;}.cls-7{fill:#34234d;}.cls-8{fill:#00b5f4;}.cls-9{fill:#221733;}.cls-10{fill:#ff5168;}.cls-11{fill:#fafafa;}.cls-12{fill:#320d26;}.cls-13{fill:#2b1d40;}.cls-14{fill:url(#Безымянный_градиент_17);}.cls-15{fill:url(#Безымянный_градиент_17-2);}.cls-16{fill:url(#Безымянный_градиент_17-3);}.cls-17{fill:url(#Безымянный_градиент_17-4);}.cls-18{fill:url(#Безымянный_градиент_17-5);}.cls-19{fill:url(#Безымянный_градиент_17-6);}.cls-20{fill:url(#Безымянный_градиент_17-7);}.cls-21{fill:#cbcbcb;}</style><clipPath id="clip-path" transform="translate(29.63 5.26)"><path class="cls-1" d="M493.71,328.16c-35.37,60.63-105.07,112.46-182.18,125.7a223.21,223.21,0,0,1-37.83,3.27c-3,0-6-.06-9-.2-51.31-2.17-103.47-23.13-149.14-71C45,311.93,24.05,239.6,36.94,177.36A179,179,0,0,1,56.42,125.8C136.3-16.38,227.72,72.43,339.45,88,416.52,98.78,504,129.41,522.67,199.19,531.6,232.53,524.84,274.82,493.71,328.16Z"/></clipPath><linearGradient id="Безымянный_градиент_17" x1="-317.02" y1="81.86" x2="-309.56" y2="81.86" gradientTransform="translate(596.69 146.97) rotate(-1.9)" gradientUnits="userSpaceOnUse"><stop offset="0" stop-color="#aaceff"/><stop offset="1" stop-color="#dbe9ff"/></linearGradient><linearGradient id="Безымянный_градиент_17-2" x1="-326.01" y1="81.86" x2="-318.55" y2="81.86" xlink:href="#Безымянный_градиент_17"/><linearGradient id="Безымянный_градиент_17-3" x1="-335" y1="81.86" x2="-327.54" y2="81.86" xlink:href="#Безымянный_градиент_17"/><linearGradient id="Безымянный_градиент_17-4" x1="-343.99" y1="81.86" x2="-336.53" y2="81.86" xlink:href="#Безымянный_градиент_17"/><linearGradient id="Безымянный_градиент_17-5" x1="-351.48" y1="81.86" x2="-347.11" y2="81.86" xlink:href="#Безымянный_градиент_17"/><linearGradient id="Безымянный_градиент_17-6" x1="-356.78" y1="81.86" x2="-352.41" y2="81.86" xlink:href="#Безымянный_градиент_17"/><linearGradient id="Безымянный_градиент_17-7" x1="-361.77" y1="81.86" x2="-357.4" y2="81.86" xlink:href="#Безымянный_градиент_17"/></defs><title>Asset 11</title><g id="Layer_2" data-name="Layer 2"><g id="Layer_1-2" data-name="Layer 1"><path class="cls-2" d="M410,61.57c-53.92,42.1-128.25,11.6-153-17.87C184.05-43.31,463.94,19.47,410,61.57Z" transform="translate(29.63 5.26)"/><path class="cls-2" d="M493.71,328.16c-35.37,60.63-105.07,112.46-182.18,125.7a223.21,223.21,0,0,1-37.83,3.27c-3,0-6-.06-9-.2-51.31-2.17-103.47-23.13-149.14-71C45,311.93,24.05,239.6,36.94,177.36A179,179,0,0,1,56.42,125.8C136.3-16.38,227.72,72.43,339.45,88,416.52,98.78,504,129.41,522.67,199.19,531.6,232.53,524.84,274.82,493.71,328.16Z" transform="translate(29.63 5.26)"/><g class="cls-3"><path class="cls-4" d="M-29.62,259.37c0,78.64,60,152.58,182.78,176.05,162.13,31,370.52,33,370.52-121.7,0-58.1,5.83-216.83-27.28-238.25H411.55v196.1L365,347.44v-156H333.57V127.51l-88.4-67.18v89H170.26V34c-22.53,2.84-44.07,13.1-63.08,29.26V229.76H73.28V192L-27.08,141C-29.87,157-29.62,241.93-29.62,259.37Zm187.46,48.36h58.35V345.5H157.84ZM194,170h26.9v109H194Zm-39.36-78.5H123.86V68.28h30.75Zm0,29.48H123.86V97.77h30.75Zm0,29.49H123.86V127.25h30.75Zm0,29.48H123.86V156.74h30.75Zm307.76-38.15h-38V86.45h38Zm0,70.24h-38V156.69h38Zm0,70.24h-38V226.93h38Zm0,70.24h-38V297.17h38Zm-340.09-127h43.93v50.26H122.28Z" transform="translate(29.63 5.26)"/><rect class="cls-5" x="447.67" y="77.66" width="1.02" height="340.96"/><rect class="cls-5" x="348.76" width="1.02" height="418.62"/><rect class="cls-5" x="249.85" width="1.02" height="418.62"/><rect class="cls-5" x="150.95" width="1.02" height="418.62"/><rect class="cls-5" x="49.98" y="77.54" width="1.02" height="341.08"/><rect class="cls-6" x="12.55" y="419.17" width="479.59" height="43.38"/><rect class="cls-5" x="12.55" y="413.97" width="479.59" height="5.16"/><rect class="cls-5" x="12.55" y="348.98" width="479.59" height="1.02"/><rect class="cls-5" x="12.55" y="279.85" width="479.59" height="1.02"/><rect class="cls-5" x="12.55" y="210.73" width="479.59" height="1.02"/><rect class="cls-5" x="12.55" y="139.33" width="479.59" height="1.02"/><rect class="cls-5" x="12.55" y="67.93" width="479.59" height="1.02"/></g><path class="cls-7" d="M489.59,145h-2v-.55h2Zm0-12.55h-2v-12h2Zm0-24h-2v-6.63a5.66,5.66,0,0,0-1.73-4.1l1.39-1.43a7.64,7.64,0,0,1,2.34,5.53ZM475.06,96.13h-12v-2h12Zm-24,0h-12v-2h12Zm-24,0h-7.37a7.71,7.71,0,0,1-4.91-1.76l1.27-1.54a5.73,5.73,0,0,0,3.64,1.3h7.37ZM414,82.33h-2v-12h2Zm0-24h-2v-12h2Z" transform="translate(29.63 5.26)"/><path class="cls-7" d="M292,401.84h-6.65v-2H292Zm-18.65,0h-12v-2h12Zm-24,0h-12v-2h12Zm-24,0h-12v-2h12Zm-24,0h-12v-2h12Zm-24,0h-12v-2h12Zm-24,0h-12v-2h12ZM129,401a11.7,11.7,0,0,1-7.16-10.17l2-.1a9.65,9.65,0,0,0,5.93,8.42Zm-5.17-22.22h-2v-12h2Zm0-24h-2v-12h2Zm0-24h-2v-12h2Zm0-24h-2v-12h2Z" transform="translate(29.63 5.26)"/><path class="cls-7" d="M327.68,207.09h-9.36v-2h9.36Zm-21.36,0h-12v-2h12Zm-24,0h-12v-2h12Zm-24,0h-12v-2h12Zm-24,0h-2.14V195.23h2v9.86h.14Zm-.14-23.86h-2v-12h2Zm0-24h-2v-12h2Zm0-24h-2v-12h2Z" transform="translate(29.63 5.26)"/><path class="cls-7" d="M472.67,357.2h-12v-2h12Zm-24,0h-12v-2h12Zm-24,0h-12v-2h12ZM484.82,355l-1.18-1.62a9.63,9.63,0,0,0,3.95-7.77v-2h2v2A11.65,11.65,0,0,1,484.82,355Zm4.77-23.4h-2v-12h2Zm0-24h-2v-12h2Zm0-24h-2v-12h2Zm0-24h-2v-12h2Zm0-24h-2v-12h2Zm0-24h-2v-12h2Z" transform="translate(29.63 5.26)"/><rect class="cls-7" x="317.14" y="429.02" width="118.17" height="28.23" rx="7.04"/><rect class="cls-8" x="274.95" y="429.02" width="118.17" height="28.23" rx="7.04"/><path class="cls-7" d="M356.45,452.52H252.36A7.58,7.58,0,0,1,244.8,445V430.8a7.57,7.57,0,0,1,7.56-7.56H356.45A7.57,7.57,0,0,1,364,430.8V445A7.58,7.58,0,0,1,356.45,452.52ZM252.36,424.28a6.53,6.53,0,0,0-6.52,6.52V445a6.53,6.53,0,0,0,6.52,6.52H356.45A6.52,6.52,0,0,0,363,445V430.8a6.53,6.53,0,0,0-6.52-6.52Z" transform="translate(29.63 5.26)"/><path class="cls-9" d="M351.46,439H283.6a1.62,1.62,0,1,0,0,3.24h67.86a1.62,1.62,0,0,0,0-3.24Z" transform="translate(29.63 5.26)"/><path class="cls-10" d="M351.46,439H290.84a1.62,1.62,0,1,0,0,3.24h60.62a1.62,1.62,0,0,0,0-3.24Z" transform="translate(29.63 5.26)"/><path class="cls-9" d="M351.46,432.78H283.6a1.63,1.63,0,1,0,0,3.25h67.86a1.63,1.63,0,0,0,0-3.25Z" transform="translate(29.63 5.26)"/><path class="cls-5" d="M351.46,432.78H300a1.63,1.63,0,0,0,0,3.25h51.43a1.63,1.63,0,0,0,0-3.25Z" transform="translate(29.63 5.26)"/><path class="cls-9" d="M335.31,446.31H293.87a3.9,3.9,0,0,0-3.9,3.9V452h49.24v-1.78A3.89,3.89,0,0,0,335.31,446.31Z" transform="translate(29.63 5.26)"/><path class="cls-9" d="M393.09,446.31H375.88a3.9,3.9,0,0,0-3.9,3.9V452h25v-1.78A3.9,3.9,0,0,0,393.09,446.31Z" transform="translate(29.63 5.26)"/><path class="cls-11" d="M255.73,435.15a2.73,2.73,0,1,0,2.73,2.73A2.73,2.73,0,0,0,255.73,435.15Z" transform="translate(29.63 5.26)"/><path class="cls-9" d="M255.73,434.69a3.19,3.19,0,1,0,3.19,3.19A3.19,3.19,0,0,0,255.73,434.69Zm0,5.46a2.27,2.27,0,1,1,2.27-2.27A2.27,2.27,0,0,1,255.73,440.15Z" transform="translate(29.63 5.26)"/><path class="cls-7" d="M265.57,435.15a2.73,2.73,0,1,0,2.73,2.73A2.73,2.73,0,0,0,265.57,435.15Z" transform="translate(29.63 5.26)"/><path class="cls-9" d="M265.57,434.69a3.19,3.19,0,1,0,3.19,3.19A3.19,3.19,0,0,0,265.57,434.69Zm0,5.46a2.27,2.27,0,1,1,2.27-2.27A2.27,2.27,0,0,1,265.57,440.15Z" transform="translate(29.63 5.26)"/><rect class="cls-9" x="297.93" y="442.22" width="5.76" height="1.84"/><path class="cls-9" d="M396.9,431.72a1.81,1.81,0,1,0,1.81,1.81A1.81,1.81,0,0,0,396.9,431.72Z" transform="translate(29.63 5.26)"/><path class="cls-9" d="M396.9,438.26a1.81,1.81,0,1,0,1.81,1.81A1.82,1.82,0,0,0,396.9,438.26Z" transform="translate(29.63 5.26)"/><path class="cls-9" d="M388.63,431.72a1.81,1.81,0,1,0,1.8,1.81A1.81,1.81,0,0,0,388.63,431.72Z" transform="translate(29.63 5.26)"/><path class="cls-9" d="M388.63,438.26a1.81,1.81,0,1,0,1.8,1.81A1.82,1.82,0,0,0,388.63,438.26Z" transform="translate(29.63 5.26)"/><path class="cls-9" d="M380.35,431.72a1.81,1.81,0,1,0,1.81,1.81A1.81,1.81,0,0,0,380.35,431.72Z" transform="translate(29.63 5.26)"/><path class="cls-9" d="M380.35,438.26a1.81,1.81,0,1,0,1.81,1.81A1.82,1.82,0,0,0,380.35,438.26Z" transform="translate(29.63 5.26)"/><path class="cls-9" d="M372.08,431.72a1.81,1.81,0,1,0,1.81,1.81A1.81,1.81,0,0,0,372.08,431.72Z" transform="translate(29.63 5.26)"/><path class="cls-9" d="M372.08,438.26a1.81,1.81,0,1,0,1.81,1.81A1.82,1.82,0,0,0,372.08,438.26Z" transform="translate(29.63 5.26)"/><rect class="cls-9" x="288.09" y="457.26" width="135.71" height="4.46"/><rect class="cls-7" x="317.14" y="396.34" width="118.17" height="28.23" rx="7.04"/><rect class="cls-8" x="274.95" y="396.34" width="118.17" height="28.23" rx="7.04"/><path class="cls-7" d="M356.45,419.83H252.36a7.58,7.58,0,0,1-7.56-7.57V398.11a7.57,7.57,0,0,1,7.56-7.56H356.45a7.57,7.57,0,0,1,7.56,7.56v14.15A7.58,7.58,0,0,1,356.45,419.83ZM252.36,391.59a6.53,6.53,0,0,0-6.52,6.52v14.15a6.54,6.54,0,0,0,6.52,6.53H356.45a6.53,6.53,0,0,0,6.52-6.53V398.11a6.53,6.53,0,0,0-6.52-6.52Z" transform="translate(29.63 5.26)"/><path class="cls-9" d="M351.46,406.3H283.6a1.62,1.62,0,1,0,0,3.24h67.86a1.62,1.62,0,0,0,0-3.24Z" transform="translate(29.63 5.26)"/><path class="cls-10" d="M351.46,406.3H290.84a1.62,1.62,0,1,0,0,3.24h60.62a1.62,1.62,0,0,0,0-3.24Z" transform="translate(29.63 5.26)"/><path class="cls-9" d="M351.46,400.09H283.6a1.63,1.63,0,1,0,0,3.25h67.86a1.63,1.63,0,0,0,0-3.25Z" transform="translate(29.63 5.26)"/><path class="cls-5" d="M351.46,400.09H300a1.63,1.63,0,0,0,0,3.25h51.43a1.63,1.63,0,0,0,0-3.25Z" transform="translate(29.63 5.26)"/><path class="cls-9" d="M335.31,413.62H293.87a3.91,3.91,0,0,0-3.9,3.9v1.79h49.24v-1.79A3.9,3.9,0,0,0,335.31,413.62Z" transform="translate(29.63 5.26)"/><path class="cls-9" d="M393.09,413.62H375.88a3.91,3.91,0,0,0-3.9,3.9v1.79h25v-1.79A3.91,3.91,0,0,0,393.09,413.62Z" transform="translate(29.63 5.26)"/><path class="cls-11" d="M255.73,402.46a2.73,2.73,0,1,0,2.73,2.73A2.73,2.73,0,0,0,255.73,402.46Z" transform="translate(29.63 5.26)"/><path class="cls-9" d="M255.73,402a3.19,3.19,0,1,0,3.19,3.19A3.19,3.19,0,0,0,255.73,402Zm0,5.46a2.27,2.27,0,1,1,2.27-2.27A2.27,2.27,0,0,1,255.73,407.46Z" transform="translate(29.63 5.26)"/><path class="cls-7" d="M265.57,402.46a2.73,2.73,0,1,0,2.73,2.73A2.73,2.73,0,0,0,265.57,402.46Z" transform="translate(29.63 5.26)"/><path class="cls-9" d="M265.57,402a3.19,3.19,0,1,0,3.19,3.19A3.19,3.19,0,0,0,265.57,402Zm0,5.46a2.27,2.27,0,1,1,2.27-2.27A2.27,2.27,0,0,1,265.57,407.46Z" transform="translate(29.63 5.26)"/><rect class="cls-9" x="297.93" y="409.53" width="5.76" height="1.84"/><path class="cls-9" d="M396.9,399a1.81,1.81,0,1,0,1.81,1.81A1.81,1.81,0,0,0,396.9,399Z" transform="translate(29.63 5.26)"/><path class="cls-9" d="M396.9,405.58a1.81,1.81,0,1,0,1.81,1.81A1.81,1.81,0,0,0,396.9,405.58Z" transform="translate(29.63 5.26)"/><path class="cls-9" d="M388.63,399a1.81,1.81,0,1,0,1.8,1.81A1.81,1.81,0,0,0,388.63,399Z" transform="translate(29.63 5.26)"/><path class="cls-9" d="M388.63,405.58a1.81,1.81,0,1,0,1.8,1.81A1.81,1.81,0,0,0,388.63,405.58Z" transform="translate(29.63 5.26)"/><path class="cls-9" d="M380.35,399a1.81,1.81,0,1,0,1.81,1.81A1.81,1.81,0,0,0,380.35,399Z" transform="translate(29.63 5.26)"/><path class="cls-9" d="M380.35,405.58a1.81,1.81,0,1,0,1.81,1.81A1.81,1.81,0,0,0,380.35,405.58Z" transform="translate(29.63 5.26)"/><path class="cls-9" d="M372.08,399a1.81,1.81,0,1,0,1.81,1.81A1.81,1.81,0,0,0,372.08,399Z" transform="translate(29.63 5.26)"/><path class="cls-9" d="M372.08,405.58a1.81,1.81,0,1,0,1.81,1.81A1.81,1.81,0,0,0,372.08,405.58Z" transform="translate(29.63 5.26)"/><rect class="cls-9" x="288.09" y="424.57" width="135.71" height="4.45"/><rect class="cls-7" x="317.14" y="363.65" width="118.17" height="28.23" rx="7.04"/><rect class="cls-8" x="274.95" y="363.65" width="118.17" height="28.23" rx="7.04"/><path class="cls-7" d="M356.45,387.14H252.36a7.57,7.57,0,0,1-7.56-7.56V365.43a7.58,7.58,0,0,1,7.56-7.57H356.45a7.58,7.58,0,0,1,7.56,7.57v14.15A7.57,7.57,0,0,1,356.45,387.14ZM252.36,358.91a6.53,6.53,0,0,0-6.52,6.52v14.15a6.53,6.53,0,0,0,6.52,6.52H356.45a6.53,6.53,0,0,0,6.52-6.52V365.43a6.52,6.52,0,0,0-6.52-6.52Z" transform="translate(29.63 5.26)"/><path class="cls-9" d="M351.46,373.61H283.6a1.62,1.62,0,1,0,0,3.24h67.86a1.62,1.62,0,1,0,0-3.24Z" transform="translate(29.63 5.26)"/><path class="cls-10" d="M351.46,373.61H290.84a1.62,1.62,0,1,0,0,3.24h60.62a1.62,1.62,0,1,0,0-3.24Z" transform="translate(29.63 5.26)"/><path class="cls-9" d="M351.46,367.41H283.6a1.62,1.62,0,1,0,0,3.24h67.86a1.62,1.62,0,1,0,0-3.24Z" transform="translate(29.63 5.26)"/><path class="cls-5" d="M351.46,367.41H300a1.62,1.62,0,1,0,0,3.24h51.43a1.62,1.62,0,1,0,0-3.24Z" transform="translate(29.63 5.26)"/><path class="cls-9" d="M335.31,380.93H293.87a3.91,3.91,0,0,0-3.9,3.9v1.79h49.24v-1.79A3.9,3.9,0,0,0,335.31,380.93Z" transform="translate(29.63 5.26)"/><path class="cls-9" d="M393.09,380.93H375.88a3.91,3.91,0,0,0-3.9,3.9v1.79h25v-1.79A3.91,3.91,0,0,0,393.09,380.93Z" transform="translate(29.63 5.26)"/><path class="cls-11" d="M255.73,369.77a2.73,2.73,0,1,0,2.73,2.73A2.73,2.73,0,0,0,255.73,369.77Z" transform="translate(29.63 5.26)"/><path class="cls-9" d="M255.73,369.31a3.19,3.19,0,1,0,3.19,3.19A3.19,3.19,0,0,0,255.73,369.31Zm0,5.46A2.27,2.27,0,1,1,258,372.5,2.27,2.27,0,0,1,255.73,374.77Z" transform="translate(29.63 5.26)"/><path class="cls-7" d="M265.57,369.77a2.73,2.73,0,1,0,2.73,2.73A2.73,2.73,0,0,0,265.57,369.77Z" transform="translate(29.63 5.26)"/><path class="cls-9" d="M265.57,369.31a3.19,3.19,0,1,0,3.19,3.19A3.19,3.19,0,0,0,265.57,369.31Zm0,5.46a2.27,2.27,0,1,1,2.27-2.27A2.27,2.27,0,0,1,265.57,374.77Z" transform="translate(29.63 5.26)"/><rect class="cls-9" x="297.93" y="376.84" width="5.76" height="1.84"/><path class="cls-9" d="M396.9,366.34a1.81,1.81,0,1,0,1.81,1.81A1.81,1.81,0,0,0,396.9,366.34Z" transform="translate(29.63 5.26)"/><path class="cls-9" d="M396.9,372.89a1.81,1.81,0,1,0,1.81,1.81A1.81,1.81,0,0,0,396.9,372.89Z" transform="translate(29.63 5.26)"/><path class="cls-9" d="M388.63,366.34a1.81,1.81,0,1,0,1.8,1.81A1.81,1.81,0,0,0,388.63,366.34Z" transform="translate(29.63 5.26)"/><path class="cls-9" d="M388.63,372.89a1.81,1.81,0,1,0,1.8,1.81A1.81,1.81,0,0,0,388.63,372.89Z" transform="translate(29.63 5.26)"/><path class="cls-9" d="M380.35,366.34a1.81,1.81,0,1,0,1.81,1.81A1.81,1.81,0,0,0,380.35,366.34Z" transform="translate(29.63 5.26)"/><path class="cls-9" d="M380.35,372.89a1.81,1.81,0,1,0,1.81,1.81A1.81,1.81,0,0,0,380.35,372.89Z" transform="translate(29.63 5.26)"/><path class="cls-9" d="M372.08,366.34a1.81,1.81,0,1,0,1.81,1.81A1.81,1.81,0,0,0,372.08,366.34Z" transform="translate(29.63 5.26)"/><path class="cls-9" d="M372.08,372.89a1.81,1.81,0,1,0,1.81,1.81A1.81,1.81,0,0,0,372.08,372.89Z" transform="translate(29.63 5.26)"/><rect class="cls-9" x="288.09" y="391.88" width="135.71" height="4.46"/><rect class="cls-7" x="317.14" y="331" width="118.17" height="28.23" rx="7.04"/><rect class="cls-8" x="274.95" y="331" width="118.17" height="28.23" rx="7.04"/><path class="cls-7" d="M356.45,354.49H252.36a7.57,7.57,0,0,1-7.56-7.56V332.78a7.57,7.57,0,0,1,7.56-7.56H356.45a7.57,7.57,0,0,1,7.56,7.56v14.15A7.57,7.57,0,0,1,356.45,354.49ZM252.36,326.26a6.53,6.53,0,0,0-6.52,6.52v14.15a6.53,6.53,0,0,0,6.52,6.52H356.45a6.53,6.53,0,0,0,6.52-6.52V332.78a6.52,6.52,0,0,0-6.52-6.52Z" transform="translate(29.63 5.26)"/><path class="cls-9" d="M351.46,341H283.6a1.63,1.63,0,1,0,0,3.25h67.86a1.63,1.63,0,0,0,0-3.25Z" transform="translate(29.63 5.26)"/><path class="cls-10" d="M351.46,341H290.84a1.63,1.63,0,1,0,0,3.25h60.62a1.63,1.63,0,0,0,0-3.25Z" transform="translate(29.63 5.26)"/><path class="cls-9" d="M351.46,334.76H283.6a1.62,1.62,0,1,0,0,3.24h67.86a1.62,1.62,0,0,0,0-3.24Z" transform="translate(29.63 5.26)"/><path class="cls-5" d="M351.46,334.76H300a1.62,1.62,0,1,0,0,3.24h51.43a1.62,1.62,0,0,0,0-3.24Z" transform="translate(29.63 5.26)"/><path class="cls-9" d="M335.31,348.28H293.87a3.91,3.91,0,0,0-3.9,3.91V354h49.24v-1.78A3.9,3.9,0,0,0,335.31,348.28Z" transform="translate(29.63 5.26)"/><path class="cls-9" d="M393.09,348.28H375.88a3.91,3.91,0,0,0-3.9,3.91V354h25v-1.78A3.91,3.91,0,0,0,393.09,348.28Z" transform="translate(29.63 5.26)"/><path class="cls-11" d="M255.73,337.12a2.74,2.74,0,1,0,2.73,2.73A2.73,2.73,0,0,0,255.73,337.12Z" transform="translate(29.63 5.26)"/><path class="cls-9" d="M255.73,336.66a3.2,3.2,0,1,0,3.19,3.19A3.19,3.19,0,0,0,255.73,336.66Zm0,5.46a2.27,2.27,0,1,1,2.27-2.27A2.27,2.27,0,0,1,255.73,342.12Z" transform="translate(29.63 5.26)"/><path class="cls-7" d="M265.57,337.12a2.74,2.74,0,1,0,2.73,2.73A2.73,2.73,0,0,0,265.57,337.12Z" transform="translate(29.63 5.26)"/><path class="cls-9" d="M265.57,336.66a3.2,3.2,0,1,0,3.19,3.19A3.19,3.19,0,0,0,265.57,336.66Zm0,5.46a2.27,2.27,0,1,1,2.27-2.27A2.27,2.27,0,0,1,265.57,342.12Z" transform="translate(29.63 5.26)"/><rect class="cls-9" x="297.93" y="344.19" width="5.76" height="1.84"/><path class="cls-9" d="M396.9,333.69a1.81,1.81,0,1,0,1.81,1.81A1.81,1.81,0,0,0,396.9,333.69Z" transform="translate(29.63 5.26)"/><path class="cls-9" d="M396.9,340.24a1.81,1.81,0,1,0,1.81,1.81A1.81,1.81,0,0,0,396.9,340.24Z" transform="translate(29.63 5.26)"/><path class="cls-9" d="M388.63,333.69a1.81,1.81,0,1,0,1.8,1.81A1.81,1.81,0,0,0,388.63,333.69Z" transform="translate(29.63 5.26)"/><path class="cls-9" d="M388.63,340.24a1.81,1.81,0,1,0,1.8,1.81A1.81,1.81,0,0,0,388.63,340.24Z" transform="translate(29.63 5.26)"/><path class="cls-9" d="M380.35,333.69a1.81,1.81,0,1,0,1.81,1.81A1.81,1.81,0,0,0,380.35,333.69Z" transform="translate(29.63 5.26)"/><path class="cls-9" d="M380.35,340.24a1.81,1.81,0,1,0,1.81,1.81A1.81,1.81,0,0,0,380.35,340.24Z" transform="translate(29.63 5.26)"/><path class="cls-9" d="M372.08,333.69a1.81,1.81,0,1,0,1.81,1.81A1.81,1.81,0,0,0,372.08,333.69Z" transform="translate(29.63 5.26)"/><path class="cls-9" d="M372.08,340.24a1.81,1.81,0,1,0,1.81,1.81A1.81,1.81,0,0,0,372.08,340.24Z" transform="translate(29.63 5.26)"/><rect class="cls-9" x="288.09" y="359.23" width="135.71" height="4.46"/><rect class="cls-7" x="317.14" y="298.31" width="118.17" height="28.23" rx="7.04"/><rect class="cls-8" x="274.95" y="298.31" width="118.17" height="28.23" rx="7.04"/><path class="cls-7" d="M356.45,321.8H252.36a7.57,7.57,0,0,1-7.56-7.56V300.09a7.57,7.57,0,0,1,7.56-7.56H356.45a7.57,7.57,0,0,1,7.56,7.56v14.15A7.57,7.57,0,0,1,356.45,321.8ZM252.36,293.57a6.53,6.53,0,0,0-6.52,6.52v14.15a6.53,6.53,0,0,0,6.52,6.52H356.45a6.52,6.52,0,0,0,6.52-6.52V300.09a6.52,6.52,0,0,0-6.52-6.52Z" transform="translate(29.63 5.26)"/><path class="cls-9" d="M351.46,308.27H283.6a1.63,1.63,0,1,0,0,3.25h67.86a1.63,1.63,0,0,0,0-3.25Z" transform="translate(29.63 5.26)"/><path class="cls-10" d="M351.46,308.27H290.84a1.63,1.63,0,1,0,0,3.25h60.62a1.63,1.63,0,0,0,0-3.25Z" transform="translate(29.63 5.26)"/><path class="cls-9" d="M351.46,302.07H283.6a1.62,1.62,0,1,0,0,3.24h67.86a1.62,1.62,0,0,0,0-3.24Z" transform="translate(29.63 5.26)"/><path class="cls-5" d="M351.46,302.07H300a1.62,1.62,0,1,0,0,3.24h51.43a1.62,1.62,0,0,0,0-3.24Z" transform="translate(29.63 5.26)"/><path class="cls-9" d="M335.31,315.59H293.87a3.91,3.91,0,0,0-3.9,3.91v1.78h49.24V319.5A3.9,3.9,0,0,0,335.31,315.59Z" transform="translate(29.63 5.26)"/><path class="cls-9" d="M393.09,315.59H375.88a3.91,3.91,0,0,0-3.9,3.91v1.78h25V319.5A3.91,3.91,0,0,0,393.09,315.59Z" transform="translate(29.63 5.26)"/><path class="cls-11" d="M255.73,304.43a2.74,2.74,0,1,0,2.73,2.73A2.73,2.73,0,0,0,255.73,304.43Z" transform="translate(29.63 5.26)"/><path class="cls-9" d="M255.73,304a3.2,3.2,0,1,0,3.19,3.19A3.19,3.19,0,0,0,255.73,304Zm0,5.47a2.28,2.28,0,1,1,2.27-2.28A2.28,2.28,0,0,1,255.73,309.44Z" transform="translate(29.63 5.26)"/><path class="cls-7" d="M265.57,304.43a2.74,2.74,0,1,0,2.73,2.73A2.73,2.73,0,0,0,265.57,304.43Z" transform="translate(29.63 5.26)"/><path class="cls-9" d="M265.57,304a3.2,3.2,0,1,0,3.19,3.19A3.19,3.19,0,0,0,265.57,304Zm0,5.47a2.28,2.28,0,1,1,2.27-2.28A2.28,2.28,0,0,1,265.57,309.44Z" transform="translate(29.63 5.26)"/><rect class="cls-9" x="297.93" y="311.5" width="5.76" height="1.84"/><path class="cls-9" d="M396.9,301a1.81,1.81,0,1,0,1.81,1.81A1.81,1.81,0,0,0,396.9,301Z" transform="translate(29.63 5.26)"/><path class="cls-9" d="M396.9,307.55a1.81,1.81,0,1,0,1.81,1.81A1.81,1.81,0,0,0,396.9,307.55Z" transform="translate(29.63 5.26)"/><path class="cls-9" d="M388.63,301a1.81,1.81,0,1,0,1.8,1.81A1.81,1.81,0,0,0,388.63,301Z" transform="translate(29.63 5.26)"/><path class="cls-9" d="M388.63,307.55a1.81,1.81,0,1,0,1.8,1.81A1.81,1.81,0,0,0,388.63,307.55Z" transform="translate(29.63 5.26)"/><path class="cls-9" d="M380.35,301a1.81,1.81,0,1,0,1.81,1.81A1.81,1.81,0,0,0,380.35,301Z" transform="translate(29.63 5.26)"/><path class="cls-9" d="M380.35,307.55a1.81,1.81,0,1,0,1.81,1.81A1.81,1.81,0,0,0,380.35,307.55Z" transform="translate(29.63 5.26)"/><path class="cls-9" d="M372.08,301a1.81,1.81,0,1,0,1.81,1.81A1.81,1.81,0,0,0,372.08,301Z" transform="translate(29.63 5.26)"/><path class="cls-9" d="M372.08,307.55a1.81,1.81,0,1,0,1.81,1.81A1.81,1.81,0,0,0,372.08,307.55Z" transform="translate(29.63 5.26)"/><rect class="cls-9" x="288.09" y="326.54" width="135.71" height="4.46"/><path class="cls-5" d="M374.06,373.92h-2v1.84h2a5.38,5.38,0,0,1,5.37,5.37v20.11a5.37,5.37,0,0,1-5.37,5.36h-2v1.85h2a7.22,7.22,0,0,0,7.21-7.21V381.13A7.21,7.21,0,0,0,374.06,373.92Z" transform="translate(29.63 5.26)"/><path class="cls-5" d="M390.71,341.09h-2v1.85h2a5.38,5.38,0,0,1,5.37,5.37v20.1a5.38,5.38,0,0,1-5.37,5.37h-2v1.85h2a7.23,7.23,0,0,0,7.21-7.22v-20.1A7.23,7.23,0,0,0,390.71,341.09Z" transform="translate(29.63 5.26)"/><rect class="cls-7" x="90.24" y="461.71" width="422.93" height="1.02"/><path class="cls-10" d="M371.16,1.36h73.52a9.19,9.19,0,0,1,9.19,9.19V57.31a9.19,9.19,0,0,1-9.19,9.19H371.16a9.2,9.2,0,0,1-9.2-9.2V10.55A9.2,9.2,0,0,1,371.16,1.36Z" transform="translate(845.46 73.12) rotate(180)"/><path class="cls-5" d="M422.84,33.17,394.73,15.08a1.6,1.6,0,0,0-2.47,1.35V52.61A1.6,1.6,0,0,0,394.73,54l28.11-18.08A1.6,1.6,0,0,0,422.84,33.17Z" transform="translate(29.63 5.26)"/><path class="cls-7" d="M119.31,208.47h-2v-12h2Zm0-24h-2v-10.1a5.26,5.26,0,0,0-.24-1.58l1.91-.59a7.23,7.23,0,0,1,.33,2.17ZM108,169H96v-2h12Zm-24,0H79.46a7.33,7.33,0,0,1-6.77-4.49l1.85-.77A5.32,5.32,0,0,0,79.46,167H84Zm-9.91-16.81h-2v-12h2Z" transform="translate(29.63 5.26)"/><path class="cls-7" d="M107.26,93.07a6.18,6.18,0,0,0-4.18-1.64h-2V80.08a24.73,24.73,0,0,0-.43-4.38,23.64,23.64,0,0,0-.92-3.64c-.2-.63-.43-1.24-.68-1.84A25.78,25.78,0,0,0,95.21,64c-.15-.19-.32-.37-.47-.54-.37-.42-.75-.81-1.13-1.2a24.61,24.61,0,0,0-3.25-2.73,24,24,0,0,0-3.79-2.19c-.64-.29-1.26-.59-1.94-.84A23.08,23.08,0,0,0,79,55.1a24.7,24.7,0,0,0-2.73-.21h-.35c-.57,0-1.15,0-1.74.06h0c-.38,0-.78.06-1.16.11a24.72,24.72,0,0,0-12.64,5.23,25.11,25.11,0,0,0-9.64,19.8V91.45h-2a5.79,5.79,0,0,0-1.26.13,6.14,6.14,0,0,0-4.89,6v42.84c0,.23,0,.47,0,.7a3,3,0,0,0,.08.45c0,.08,0,.16,0,.23l.12.44c.07.22.15.43.23.63a1.33,1.33,0,0,1,.09.21l.21.38c.09.16.19.31.28.46l.16.21.11.15c.05.07.11.12.15.18l.25.27c.09.08.17.17.26.24l.06.06.3.25a5.15,5.15,0,0,0,.45.32l.21.13c.22.12.45.24.68.34a6,6,0,0,0,2.44.51h54.42a6.15,6.15,0,0,0,6.15-6.16V97.58A6.12,6.12,0,0,0,107.26,93.07Zm-48.7-1.63V79.76a17.29,17.29,0,0,1,6.53-13.2c.62-.5,1.31-1,2-1.39a17.07,17.07,0,0,1,7.22-2.32,13.76,13.76,0,0,1,1.59-.08c.48,0,1,0,1.43,0a15.62,15.62,0,0,1,1.65.24,10.56,10.56,0,0,1,1.64.39,15.32,15.32,0,0,1,2,.66,16.83,16.83,0,0,1,3.79,2.24,15.25,15.25,0,0,1,3.07,3,17.5,17.5,0,0,1,1.18,1.72,3.26,3.26,0,0,1,.22.34,17.3,17.3,0,0,1,2.32,8.68V91.44Z" transform="translate(29.63 5.26)"/><path class="cls-5" d="M97.57,77.17c0-.51-.13-1-.22-1.47a23.59,23.59,0,0,0-1-4,15.26,15.26,0,0,0-.55-1.47,24.23,24.23,0,0,0-2.68-4.76c-.36-.52-.74-1-1.15-1.51s-1-1.19-1.6-1.74a26.25,26.25,0,0,0-3.25-2.73,24,24,0,0,0-3.79-2.19c-.64-.29-1.26-.59-1.94-.84a22.16,22.16,0,0,0-5.25-1.29l-.43-.06c-.51-.06-1-.12-1.53-.15h0c-.51,0-1-.06-1.54-.06a23.67,23.67,0,0,0-2.91.17A24.72,24.72,0,0,0,57,60.29a25.07,25.07,0,0,0-9.63,19.8v37.84H97.79V80.08A21.31,21.31,0,0,0,97.57,77.17ZM89.87,110H55.27V79.76a17.3,17.3,0,0,1,6.53-13.2c.63-.5,1.31-1,2-1.39a17.32,17.32,0,0,1,8.81-2.4,15.87,15.87,0,0,1,1.7.08,13.15,13.15,0,0,1,1.38.21,11,11,0,0,1,1.65.39l.23.06a14.88,14.88,0,0,1,1.74.6,17.21,17.21,0,0,1,3.79,2.24,15.25,15.25,0,0,1,3.07,3c.33.44.65.88.94,1.34.16.24.32.48.46.72a17.3,17.3,0,0,1,2.32,8.68Z" transform="translate(29.63 5.26)"/><path class="cls-7" d="M47.17,118.16V80.09A25.48,25.48,0,0,1,69.64,54.83a24,24,0,0,1,2.94-.17c.48,0,1,0,1.56.06s1,.08,1.55.15l.43.06a23.3,23.3,0,0,1,5.3,1.3c.64.24,1.24.52,1.82.79l.14.06a24,24,0,0,1,3.83,2.22,25.07,25.07,0,0,1,3.27,2.75c.57.56,1.12,1.17,1.62,1.75s.8,1,1.16,1.53a24.56,24.56,0,0,1,2.7,4.8c.2.47.4,1,.56,1.49a23.51,23.51,0,0,1,1.06,4c.1.56.17,1,.22,1.48A21.3,21.3,0,0,1,98,80.08v38.07Zm25.41-63a23,23,0,0,0-2.88.17,25,25,0,0,0-22.07,24.8V117.7H97.56V80.08a20.46,20.46,0,0,0-.21-2.88h0c0-.43-.11-.9-.21-1.45a23,23,0,0,0-1-4c-.15-.51-.35-1-.54-1.47a24.76,24.76,0,0,0-2.65-4.71c-.36-.5-.74-1-1.15-1.5s-1-1.16-1.58-1.71a24.33,24.33,0,0,0-3.22-2.71,22.63,22.63,0,0,0-3.76-2.17L83,57.44c-.6-.28-1.16-.54-1.78-.78a23.1,23.1,0,0,0-5.2-1.28l-.42-.05c-.55-.07-1.06-.12-1.52-.15S73.05,55.12,72.58,55.12ZM55.05,110.27V79.76a17.56,17.56,0,0,1,6.62-13.38,22.4,22.4,0,0,1,2-1.4,17.41,17.41,0,0,1,8.93-2.44,12.93,12.93,0,0,1,1.73.09,10.24,10.24,0,0,1,1.4.21,10.72,10.72,0,0,1,1.67.39l.22.06a15.66,15.66,0,0,1,1.76.61,17,17,0,0,1,3.85,2.27,15.75,15.75,0,0,1,3.12,3c.31.42.64.88.94,1.36.16.24.32.48.47.73a17.61,17.61,0,0,1,2.35,8.79v30.19ZM72.58,63a17,17,0,0,0-8.69,2.37A21.21,21.21,0,0,0,62,66.74a17.07,17.07,0,0,0-6.45,13v30.05H89.64V80.08a17.15,17.15,0,0,0-2.29-8.56c-.14-.24-.29-.47-.45-.71-.3-.48-.62-.92-.93-1.33a15.33,15.33,0,0,0-3-2.94,16.36,16.36,0,0,0-3.75-2.21,14.75,14.75,0,0,0-1.71-.6l-.24-.06a9.61,9.61,0,0,0-1.62-.38c-.44-.09-.88-.16-1.36-.21A14.12,14.12,0,0,0,72.58,63Z" transform="translate(29.63 5.26)"/><path class="cls-8" d="M105.94,97.59v42.84a6.15,6.15,0,0,1-6.15,6.16H45.39a6.15,6.15,0,0,1-2.46-.51c-.23-.1-.45-.22-.67-.34l-.21-.13a5.15,5.15,0,0,1-.45-.32l-.3-.25-.06-.06-.26-.24-.24-.27-.16-.18a.91.91,0,0,1-.11-.16,1,1,0,0,1-.15-.2,4.43,4.43,0,0,1-.29-.46,3.55,3.55,0,0,1-.2-.39,1.24,1.24,0,0,1-.1-.2,4.29,4.29,0,0,1-.23-.63h0l-.12-.43a1.55,1.55,0,0,0-.05-.23c0-.15,0-.3-.06-.46a5.37,5.37,0,0,1,0-.7V97.6a6.15,6.15,0,0,1,6.15-6.15H99.79A6.07,6.07,0,0,1,104,93.07,6.14,6.14,0,0,1,105.94,97.59Z" transform="translate(29.63 5.26)"/><path class="cls-7" d="M79.75,111.74a7.17,7.17,0,1,0-11.34,5.81v13.24a3.93,3.93,0,0,0,3.93,3.94h0a4,4,0,0,0,3.93-3.94V117.87A7.14,7.14,0,0,0,79.75,111.74Z" transform="translate(29.63 5.26)"/><path class="cls-9" d="M73.44,134.58a4.36,4.36,0,0,1-1.1.15,3.94,3.94,0,0,1-3.93-3.94V117.56a7.17,7.17,0,0,1,4.18-13,7.88,7.88,0,0,1,1.09.09,7.17,7.17,0,0,0-3.08,12.9v13.23A4,4,0,0,0,73.44,134.58Z" transform="translate(29.63 5.26)"/><path class="cls-7" d="M554.23,167.86a21.08,21.08,0,0,0-5.76.61,22.3,22.3,0,0,0,.34-3.09,22.62,22.62,0,0,0-37.06-18.23,33.09,33.09,0,0,0-63.84,11c0,1.14,0,2.26,0,3.38a23.53,23.53,0,1,0-12.27,44.08l119.11,4.24v-.11a21,21,0,0,0-.58-41.87Z" transform="translate(29.63 5.26)"/><path class="cls-5" d="M561.57,188.32a21,21,0,0,1-18.9,20.85v.11H423.48a23.54,23.54,0,0,1,0-47.08h.42a23.38,23.38,0,0,1,10.28,2.59c-.11-1.11-.17-2.24-.17-3.38,0-.92,0-1.84.11-2.75a33.09,33.09,0,0,1,33-30.33q1,0,2.07.06h0a33.12,33.12,0,0,1,28.24,19.77,22.55,22.55,0,0,1,12.11-5.55,21.85,21.85,0,0,1,2.93-.19,22.76,22.76,0,0,1,6.11.83h0a22.43,22.43,0,0,1,16.3,24.92,20.9,20.9,0,0,1,26.7,20.15Z" transform="translate(29.63 5.26)"/><path class="cls-7" d="M542.94,209.55H423.48a23.81,23.81,0,0,1,0-47.62h.43a23.51,23.51,0,0,1,10,2.4c-.09-1-.13-2-.13-2.92s0-1.86.12-2.78a33.52,33.52,0,0,1,33.24-30.57c.7,0,1.41,0,2.09.07a33.21,33.21,0,0,1,28.33,19.59,22.73,22.73,0,0,1,12-5.38,23,23,0,0,1,9.11.64h0a23,23,0,0,1,16.74,22.08,21.51,21.51,0,0,1-.19,2.73,20.92,20.92,0,0,1,5.42-.72,21.23,21.23,0,0,1,2.33,42.34ZM423.48,162.47a23.27,23.27,0,0,0,0,46.54H542.4v-.08l.25,0a20.7,20.7,0,0,0-2-41.29,20.38,20.38,0,0,0-5.66.81l-.4.11.05-.41a22.14,22.14,0,0,0-16.06-24.61h0a22.64,22.64,0,0,0-8.93-.64,22.21,22.21,0,0,0-12,5.5l-.28.24-.15-.34a32.69,32.69,0,0,0-28-19.61c-.68,0-1.37-.06-2.06-.06a33,33,0,0,0-32.71,30.08c-.07.9-.11,1.82-.11,2.73,0,1.11.06,2.24.17,3.35l.05.49-.44-.22a23,23,0,0,0-10.16-2.56Z" transform="translate(29.63 5.26)"/><path class="cls-8" d="M465.22,190.64a2.84,2.84,0,0,1-1.84-.67,2.88,2.88,0,0,1-.38-4.06c.33-.39,8.13-9.65,19.94-10.19,7.68-.36,15.11,3,22.1,10a2.88,2.88,0,0,1-4.08,4.08c-5.8-5.79-11.77-8.58-17.75-8.31-9.29.43-15.71,8-15.77,8.12A2.89,2.89,0,0,1,465.22,190.64Z" transform="translate(29.63 5.26)"/><path class="cls-8" d="M515.78,179.4a2.88,2.88,0,0,1-2-.84c-9.6-9.61-19.74-14.33-30.18-14-16.73.46-28.85,13.78-29,13.92a2.89,2.89,0,0,1-4.31-3.84c.56-.63,13.82-15.29,33.06-15.85,12.08-.34,23.69,4.94,34.48,15.72a2.89,2.89,0,0,1-2,4.93Z" transform="translate(29.63 5.26)"/><path class="cls-8" d="M477.58,200.42a2.85,2.85,0,0,1-2-.82,2.88,2.88,0,0,1-.06-4.08,13.23,13.23,0,0,1,8.72-3.82h.08a11.7,11.7,0,0,1,8.37,3.79,2.89,2.89,0,0,1-4.09,4.08,6,6,0,0,0-4.28-2.09h0a7.58,7.58,0,0,0-4.62,2.07A2.89,2.89,0,0,1,477.58,200.42Z" transform="translate(29.63 5.26)"/><path class="cls-7" d="M293.17,89.77a19,19,0,0,0-5.35.57,21,21,0,0,0-34.08-19.8,30.72,30.72,0,0,0-59.27,10.2,29.82,29.82,0,0,0,.05,3.14,21.84,21.84,0,1,0-11.39,40.92l110.58,3.93v-.09a19.46,19.46,0,0,0-.54-38.87Z" transform="translate(29.63 5.26)"/><path class="cls-5" d="M300,108.76a19.46,19.46,0,0,1-17.54,19.36v.1H171.8a21.86,21.86,0,0,1,0-43.71h.39a21.75,21.75,0,0,1,9.54,2.39,29.41,29.41,0,0,1-.16-3.13c0-.86,0-1.71.1-2.56a30.71,30.71,0,0,1,30.61-28.15c.65,0,1.3,0,1.93.06h0a30.72,30.72,0,0,1,26.21,18.35,21,21,0,0,1,11.25-5.16,22.19,22.19,0,0,1,2.72-.17,20.81,20.81,0,0,1,5.67.77h0A20.84,20.84,0,0,1,275.2,90.05,19.41,19.41,0,0,1,300,108.76Z" transform="translate(29.63 5.26)"/><path class="cls-7" d="M282.7,128.47H171.8a22.11,22.11,0,0,1,0-44.21h.4a21.77,21.77,0,0,1,9.24,2.22c-.08-.9-.12-1.81-.12-2.71s0-1.72.11-2.58a31.11,31.11,0,0,1,30.85-28.38c.66,0,1.32,0,1.95.06a30.8,30.8,0,0,1,26.29,18.19,21.07,21.07,0,0,1,11.13-5,21.32,21.32,0,0,1,8.45.59h0a21.33,21.33,0,0,1,15.53,20.49,20,20,0,0,1-.17,2.54,19.71,19.71,0,1,1,7.2,38.64ZM171.8,84.76a21.61,21.61,0,0,0,0,43.21H282.2v-.08l.22,0a19.21,19.21,0,0,0-1.89-38.33,19.43,19.43,0,0,0-5.26.75l-.37.11L275,90a22.37,22.37,0,0,0,.21-2.85,20.84,20.84,0,0,0-15.13-20h0a20.72,20.72,0,0,0-19.4,4.51l-.26.23-.14-.32a30.32,30.32,0,0,0-26-18.2q-.94-.06-1.92-.06a30.62,30.62,0,0,0-30.36,27.92c-.07.84-.1,1.7-.1,2.54a29.45,29.45,0,0,0,.16,3.11l0,.45-.41-.2a21.17,21.17,0,0,0-9.43-2.37Z" transform="translate(29.63 5.26)"/><path class="cls-7" d="M225.46,98.54l-1-3.33A1.65,1.65,0,0,0,222.9,94H203.18a1.66,1.66,0,0,0-1.66,1.66v34.24a1.65,1.65,0,0,0,1.66,1.65h45.88a1.66,1.66,0,0,0,1.66-1.65V101.4a1.66,1.66,0,0,0-1.66-1.66h-22A1.65,1.65,0,0,1,225.46,98.54Z" transform="translate(29.63 5.26)"/><rect class="cls-5" x="206.78" y="80.96" width="37.21" height="45.22" transform="matrix(1, 0, 0, 1, 29.51, 5.52)"/><path class="cls-7" d="M206.64,126.36v-.16l0-45.38h.16l37.37,0v.16l0,45.38H244Zm.27-45.22L207,126l36.89,0,0-44.9Z" transform="translate(29.63 5.26)"/><rect class="cls-7" x="212.26" y="89.74" width="15.28" height="1.16" transform="translate(29.52 5.52) rotate(-0.07)"/><rect class="cls-7" x="212.27" y="93.04" width="7.64" height="1.16" transform="translate(29.52 5.51) rotate(-0.07)"/><rect class="cls-7" x="222.09" y="93.02" width="7.64" height="1.16" transform="translate(29.51 5.55) rotate(-0.07)"/><rect class="cls-7" x="232.03" y="93.01" width="7.64" height="1.16" transform="translate(29.52 5.53) rotate(-0.07)"/><rect class="cls-7" x="229.02" y="89.72" width="10.64" height="1.16" transform="translate(29.53 5.52) rotate(-0.06)"/><rect class="cls-7" x="224.39" y="96.2" width="15.28" height="1.16" transform="translate(29.51 5.53) rotate(-0.07)"/><rect class="cls-7" x="212.27" y="96.21" width="10.64" height="1.16" transform="translate(29.52 5.5) rotate(-0.06)"/><rect class="cls-7" x="212.27" y="99.37" width="15.28" height="1.16" transform="translate(29.51 5.52) rotate(-0.07)"/><rect class="cls-7" x="212.28" y="102.66" width="7.64" height="1.16" transform="matrix(1, 0, 0, 1, 29.51, 5.51)"/><rect class="cls-7" x="222.1" y="102.65" width="7.64" height="1.16" transform="translate(29.51 5.52) rotate(-0.07)"/><rect class="cls-7" x="232.04" y="102.64" width="7.64" height="1.16" transform="translate(29.51 5.53) rotate(-0.07)"/><rect class="cls-7" x="229.03" y="99.35" width="10.64" height="1.16" transform="translate(29.51 5.54) rotate(-0.07)"/><rect class="cls-7" x="224.4" y="105.82" width="15.28" height="1.16" transform="translate(29.5 5.53) rotate(-0.07)"/><rect class="cls-7" x="212.28" y="105.84" width="10.64" height="1.16" transform="translate(29.51 5.5) rotate(-0.06)"/><path class="cls-8" d="M201.51,101a2.3,2.3,0,0,0-2.29,2.3h0v27.87a1.65,1.65,0,0,0,1.65,1.65h45.89a1.65,1.65,0,0,0,1.65-1.65V102.65a1.65,1.65,0,0,0-1.65-1.66H201.51Z" transform="translate(29.63 5.26)"/><path class="cls-8" d="M223.15,99.67l-1-3.34a1.67,1.67,0,0,0-1.6-1.2H200.87a1.66,1.66,0,0,0-1.65,1.66V131a1.65,1.65,0,0,0,1.65,1.66h45.89a1.65,1.65,0,0,0,1.65-1.66V102.52a1.66,1.66,0,0,0-1.65-1.66h-22A1.65,1.65,0,0,1,223.15,99.67Z" transform="translate(29.63 5.26)"/><polygon class="cls-5" points="267.21 345.11 269.13 371.88 286.66 367.63 289.45 349.07 267.21 345.11"/><path class="cls-7" d="M239.24,367l-2-27.48,22.88,4.07-2.86,19-.19,0Zm-1.33-26.78,1.87,26.05,17-4.12L259.49,344Z" transform="translate(29.63 5.26)"/><path class="cls-10" d="M252.69,359.64c-1.18.87-2.59,5-7.9,1.26s-9.51-1.21-9.51-1.21,4.25,4.73.64,9.61-25.22,7.49-30.34,9.25-4.33,7.51-4.33,7.51L255.73,395c4.07-15.48,2.07-36.55,2.07-36.55A6.37,6.37,0,0,0,252.69,359.64Z" transform="translate(29.63 5.26)"/><path class="cls-9" d="M245.81,389.37l1,.17a14.31,14.31,0,0,1,11.23-11.8l-.19-1C257.78,376.73,247.55,378.67,245.81,389.37Z" transform="translate(29.63 5.26)"/><path class="cls-5" d="M201.25,386.06,255.73,395c.27-1.29.89-3,1.16-4.92l-54.6-8.92A8.35,8.35,0,0,0,201.25,386.06Z" transform="translate(29.63 5.26)"/><path class="cls-7" d="M256,395.29l-55-9,0-.21A8.46,8.46,0,0,1,202,381l.1-.17.19,0,54.88,8.95,0,.28a25.88,25.88,0,0,1-.77,3.43c-.16.55-.3,1.07-.39,1.52Zm-54.44-9.48,54,8.81c.09-.4.21-.83.34-1.28a28.61,28.61,0,0,0,.71-3.07l-54.12-8.84A8.12,8.12,0,0,0,201.52,385.81Z" transform="translate(29.63 5.26)"/><path class="cls-9" d="M242.05,362.24c0,.05,3.32,5.56,1.43,10.12-1.77,4.25-12.62,4.77-13.87,4.81l-6-2.74-.44.95,6.21,2.84h.12c.53,0,12.81-.34,14.93-5.46s-1.35-10.82-1.5-11.06Z" transform="translate(29.63 5.26)"/><rect class="cls-9" x="232.63" y="370.94" width="1.04" height="6.09" transform="translate(-176.98 408.19) rotate(-61.82)"/><rect class="cls-9" x="237.88" y="368.29" width="1.04" height="6.09" transform="translate(-171.87 411.38) rotate(-61.82)"/><path class="cls-7" d="M237.34,256c-4.66,11.67-11.17,92.54-11.17,92.54s15.2,11.2,44.93.93c0,0,7.82-50.95,11.06-65.73S245.67,235.06,237.34,256Z" transform="translate(29.63 5.26)"/><path class="cls-9" d="M287.75,252.51a5.45,5.45,0,0,0-3.11,3.21c-4.52,11.12,11.73,46.93,24.79,75.7l1.25,2.75.95-.43L310.39,331c-13-28.59-29.14-64.17-24.78-74.87a4.39,4.39,0,0,1,2.52-2.64c11.52-4.49,48.23,9,48.6,9.18l.37-1C335.57,261.11,299.63,247.89,287.75,252.51Z" transform="translate(29.63 5.26)"/><path class="cls-7" d="M329.23,226c-13-.19-66.49,7.16-78.86,13.67-18.89,10-15.62,35.32-4.15,42.86,21.37,14.06,88.1-5.82,98.41-13.36C374.63,247.18,342.17,226.14,329.23,226Z" transform="translate(29.63 5.26)"/><path class="cls-7" d="M383.79,269.84a4.71,4.71,0,0,1,0,.53,24.38,24.38,0,0,1-.85,7.33c-.08.32-.17.65-.27,1-2.87,9.16-11.2,16.6-24.44,16.94a291.9,291.9,0,0,1-30.64-.9c-6-.51-12.4-1.28-18.62-2.41-.48-.07-.95-.16-1.43-.25l-2.16-.43c-1-.2-1.93-.41-2.89-.63-1.25-.29-2.48-.59-3.71-.91h0c-10.85-2.87-20.34-7.15-25.64-13.53a21.29,21.29,0,0,1-4.4-14.05,24.56,24.56,0,0,1,.52-4.4,24.27,24.27,0,0,1,4.17-9.55A24.52,24.52,0,0,1,289.16,239c2.71-.52,6.08-1.21,10-1.85,2.25-.36,4.67-.71,7.28-1,1.85-.19,3.79-.36,5.81-.47h0l.85,0q4.19-.24,8.76-.12c1.52,0,3.06.11,4.64.22l1.09.09.93.07,1.29.13c1.39.15,2.81.32,4.24.53a100.63,100.63,0,0,1,14.05,3c1.4.39,2.83.83,4.26,1.32a7.28,7.28,0,0,1,.93.32c1.92.63,3.85,1.35,5.81,2.15l.26.1c1.78.72,3.59,1.51,5.4,2.37,1.41.67,2.83,1.36,4.26,2.1,0,0,.07,0,.09.06C378.55,252.84,383.32,261.35,383.79,269.84Z" transform="translate(29.63 5.26)"/><polygon class="cls-5" points="337.2 340.89 349.93 368.03 366.66 355.61 358.77 333.27 337.2 340.89"/><path class="cls-7" d="M320.19,363.22l-.15-.33-12.87-27.44,22.15-7.82.1.28,8,22.55-.18.13ZM308,335.79l12.44,26.53,16.27-12.08L329,328.38Z" transform="translate(29.63 5.26)"/><path class="cls-10" d="M332.38,348.05c-1.1,1-2.09,5.32-7.82,2.08s-11.34,1-11.34,1,5.19,10.49,7.49,16.19S313.8,393,312.6,398.37s4.19,7.71,4.19,7.71l36.56-42.28c-11.2-11.72-15.94-17.53-15.94-17.53A6.49,6.49,0,0,0,332.38,348.05Z" transform="translate(29.63 5.26)"/><path class="cls-9" d="M343.27,369.4l.69-.8a14.49,14.49,0,0,1-4.22-15.94l-1-.39C338.72,352.37,335,362.22,343.27,369.4Z" transform="translate(29.63 5.26)"/><path class="cls-5" d="M316.79,406.08l36.56-42.28c-1-.92-2.08-2.34-3.64-3.61l-36.64,42.38A8.44,8.44,0,0,0,316.79,406.08Z" transform="translate(29.63 5.26)"/><path class="cls-7" d="M316.87,406.44l-.2-.09a8.62,8.62,0,0,1-3.87-3.65l-.08-.18.12-.15,36.83-42.59.23.18a26.45,26.45,0,0,1,2.55,2.48c.39.42.76.82,1.1,1.14l.21.2-.19.21Zm-3.45-3.83a8.28,8.28,0,0,0,3.29,3.11l36.23-41.9-.93-1a25.46,25.46,0,0,0-2.27-2.24Z" transform="translate(29.63 5.26)"/><path class="cls-9" d="M321.93,351.76a57.24,57.24,0,0,0,5.43,10.63c2.73,3.78-2.58,13.41-3.2,14.52l-5.55,3.71.59.88,5.75-3.85.06-.11c.27-.45,6.5-11.22,3.21-15.77s-5.28-10.42-5.45-10.65Z" transform="translate(29.63 5.26)"/><rect class="cls-9" x="320.21" y="371.63" width="6.17" height="1.06" transform="translate(-113.81 218.71) rotate(-30.24)"/><rect class="cls-9" x="320.69" y="365.7" width="6.17" height="1.06" transform="translate(-110.75 218.15) rotate(-30.24)"/><path class="cls-7" d="M320,262.83a12.11,12.11,0,0,1,2.64,4.65c.14.5.29,1,.46,1.62.41,1.39.89,3,1.45,4.75.38,1.25.79,2.58,1.24,4,1.45,4.54,3.12,9.63,4.84,14.77,5.81,17.45,12.15,35.54,12.15,35.54-2.92,2.73-5.67,5.09-8.27,7.14-.74.59-1.47,1.16-2.18,1.7h0a69.56,69.56,0,0,1-16.71,9.78c-.86.33-1.67.61-2.4.84-4.48,1.4-6.77,1.13-6.77,1.13s-13.64-24.6-24.65-48.62q-1.53-3.31-3-6.6c-1.47-3.33-2.83-6.56-4-9.58-.95-2.36-1.81-4.59-2.55-6.66a64.2,64.2,0,0,1-2.74-9.5,9.32,9.32,0,0,1-.11-3.9,15.42,15.42,0,0,1,7.93-9.66C289.75,247.65,312,253.57,320,262.83Z" transform="translate(29.63 5.26)"/><path class="cls-5" d="M231.37,206.85a130.31,130.31,0,0,1,9.45-12.07h0a1.83,1.83,0,0,1,.16-.16l.18-.19h.07c1.28-.95,5.51-3.3,13.08.06C263.5,198.57,268,198,268,198l-.06.2c11.13.66,29.72-1.89,41.08-.73,12.72,1.3,19.91,30.06-2.37,26.59-10-1.55-31-9.5-44-14.62-2.26.37-5.9.5-7.65-2a21,21,0,0,0-3.87-1.95c-.36,0-1.75,1.38-3.1,3.42-1.07,1.61-1.18,2.2-3,1.47a38.2,38.2,0,0,1-6-2.78c-.87-.84,2.77-9.57,2.77-9.57s-5.24,8.34-8.63,10.19C232.31,208.73,230.81,207.68,231.37,206.85Z" transform="translate(29.63 5.26)"/><path class="cls-7" d="M310.17,224.64a23.39,23.39,0,0,1-3.55-.29c-10.13-1.58-31.87-9.82-44-14.61-2.16.34-5.95.51-7.81-2.06l-.78-.43a17.35,17.35,0,0,0-2.89-1.45h0a12.1,12.1,0,0,0-2.87,3.3c-.11.17-.21.33-.31.47-.81,1.27-1.18,1.84-3,1.11-3.64-1.47-5.7-2.43-6.13-2.84-.68-.66.55-4.38,1.69-7.33-1.82,2.63-4.9,6.73-7.21,8a1.76,1.76,0,0,1-2-.46,1,1,0,0,1-.18-1.34h0a128.69,128.69,0,0,1,9.24-11.84h0l.24-.29.19-.16.23-.26h.11c1.56-1.13,5.83-3.23,13.28.08,9,4,13.52,3.52,13.57,3.52l.44-.06-.09.28c5,.26,11.43-.1,18.19-.47,8.05-.45,16.37-.91,22.55-.28,4.29.43,8.38,4,10.67,9.38s2.11,10.91-.55,14.33C317.78,222.71,315.12,224.64,310.17,224.64Zm-47.46-15.49.07,0c12.07,4.78,33.84,13,43.92,14.61,5.56.87,9.72-.25,12-3.23,2.49-3.21,2.68-8.61.47-13.76s-6.11-8.62-10.2-9c-6.13-.63-14.43-.16-22.46.28a178,178,0,0,1-18.61.45l-.36,0,0-.15c-1.33.05-5.74-.16-13.44-3.59-7.5-3.34-11.68-.91-12.79-.09l-.2.16-.07.06L241,195a129.58,129.58,0,0,0-9.43,12h0a.5.5,0,0,0,.13.64A1.2,1.2,0,0,0,233,208c3.29-1.8,8.48-10,8.53-10.1l.5.26c-1.69,4.05-3.25,8.75-2.83,9.26.17.17,1.09.76,5.94,2.72,1.38.56,1.53.34,2.31-.88l.32-.49c1.13-1.69,2.72-3.53,3.33-3.55h0c.42,0,1.34.49,3.17,1.52l.93.55c1.7,2.4,5.35,2.2,7.38,1.87Z" transform="translate(29.63 5.26)"/><path class="cls-12" d="M244.15,210.07l4-8.34A69.5,69.5,0,0,0,244.15,210.07Z" transform="translate(29.63 5.26)"/><path class="cls-12" d="M241.56,209l3.91-10.19A85.33,85.33,0,0,0,241.56,209Z" transform="translate(29.63 5.26)"/><path class="cls-5" d="M296.31,178.7s-2.47,23.48-2,28c1,9.89,17.93,21,24.14,13.92s12.65-25.94,12.41-42.47S299.68,158.81,296.31,178.7Z" transform="translate(29.63 5.26)"/><path class="cls-7" d="M313,223.12a13.68,13.68,0,0,1-4.13-.71c-6.66-2.14-14.24-9-14.89-15.72-.43-4.46,1.93-27.06,2-28v0c1.8-10.67,11.17-14.8,19.67-14.15,7.33.57,15.27,5.06,15.4,13.6.25,16.68-6.25,35.53-12.48,42.66A7.15,7.15,0,0,1,313,223.12Zm-16.42-44.38c-.06.57-2.46,23.53-2,27.89.62,6.44,8.14,13.2,14.49,15.24,4,1.27,7.2.75,9.14-1.47,6.16-7.06,12.59-25.73,12.34-42.29-.12-8.18-7.8-12.49-14.87-13C307.42,164.44,298.34,168.43,296.59,178.74Z" transform="translate(29.63 5.26)"/><polygon class="cls-7" points="325.15 200.43 326.87 184.17 326.07 184.09 324.43 200.14 325.15 200.43"/><path class="cls-2" d="M317.25,130.17c5.36-.35,11.78,1.22,16.13,13.54s3.91,37.28-.14,56.17c0,0-29,5.7-41.24-11,0,0,6-33,8.87-43.48S311.33,130.55,317.25,130.17Z" transform="translate(29.63 5.26)"/><path class="cls-7" d="M322.15,201.07c-9.61,0-23-2-30.38-12.08l-.07-.09,0-.12c.06-.33,6-33.16,8.87-43.51,3-10.75,10.83-15,16.64-15.39h0c4.87-.31,11.84.77,16.41,13.73,4.17,11.82,4.12,36.56-.13,56.33l0,.18-.18,0A65.43,65.43,0,0,1,322.15,201.07ZM292.3,188.76c11.51,15.61,38.22,11.32,40.7,10.88,4.18-19.66,4.23-44.15.11-55.84-4.4-12.46-10.76-13.67-15.84-13.35h0c-5.63.36-13.23,4.5-16.13,15C298.37,155.43,292.7,186.56,292.3,188.76Z" transform="translate(29.63 5.26)"/><path class="cls-7" d="M322.63,181.94a18.33,18.33,0,0,0,10.2-18.6l-.8.07a17.54,17.54,0,0,1-9.71,17.79Z" transform="translate(29.63 5.26)"/><path class="cls-7" d="M320.43,201.46a59,59,0,0,0,12.84-.86l.21,0,.08-.19c.11-.24,10.43-24,6-44.81l-.78.17c4.12,19.56-4.94,41.83-5.91,44.12-1.53.28-11.34,1.94-21-.31l-.19.78A47.9,47.9,0,0,0,320.43,201.46Z" transform="translate(29.63 5.26)"/><path class="cls-10" d="M300,152c-3.23,17.43,5.05,70,.3,78.16,0,0,7.49,13.06,24.19,7.33,26-8.94,53.2,44.94,73.65,32.35,3.94-58.57-14.35-131.13-34.57-141C343,118.64,305.89,120.3,300,152Z" transform="translate(29.63 5.26)"/><path class="cls-7" d="M300.62,215.9l-.77-.08a122.43,122.43,0,0,0,.06-20.7c-1-9.46-.08-39.3-.07-39.6l.78,0c0,.3-.94,30.09.06,39.5A123.15,123.15,0,0,1,300.62,215.9Z" transform="translate(29.63 5.26)"/><path class="cls-5" d="M322.76,111.24l3.08,15.22c.87,1.38,5.52,8.52,19.2-2.73l-5.38-22A160,160,0,0,1,322.76,111.24Z" transform="translate(29.63 5.26)"/><path class="cls-7" d="M332.13,130.25a8.71,8.71,0,0,1-1.36-.11,7.3,7.3,0,0,1-5.17-3.53l0-.09-3.13-15.44.2-.09a164.23,164.23,0,0,0,16.87-9.52l.34-.23,5.52,22.6-.14.11C340.13,128.14,335.74,130.25,332.13,130.25Zm-6-3.9a6.77,6.77,0,0,0,4.75,3.23c3.66.59,8.31-1.42,13.86-6l-5.24-21.47a167.46,167.46,0,0,1-16.4,9.24Z" transform="translate(29.63 5.26)"/><path class="cls-7" d="M325.64,125.13s10.87-.15,16.51-12.72c0,0-1.29-3.63-1.33-3.59C330.63,117.15,322.49,116,325.64,125.13Z" transform="translate(29.63 5.26)"/><path class="cls-5" d="M326.53,123.37c5.07-.62,13.55-8.61,15.07-13.49.54-1.75-.25-6.11-1.16-8.16-2.87-6.42-5.26-12.27-10.64-13.5-2.27-.52-7.69.78-9.64,1.42-6.46,2.15-7.15,7.61-6.42,14.37C314.57,111.58,317.57,124.47,326.53,123.37Z" transform="translate(29.63 5.26)"/><path class="cls-7" d="M325.48,123.72a7.79,7.79,0,0,1-5-1.75c-5-4-6.62-13.87-7.06-17.93-.68-6.25-.35-12.35,6.61-14.67,1.68-.55,7.36-2,9.79-1.43,5.29,1.21,7.69,6.59,10.46,12.82l.38.84c.87,2,1.77,6.44,1.17,8.36-1.51,4.85-10,13.05-15.31,13.7h0A10,10,0,0,1,325.48,123.72Zm3-35.34a33.82,33.82,0,0,0-8.27,1.53c-6.57,2.19-6.87,8-6.21,14.07.43,4,2,13.67,6.84,17.54a7.3,7.3,0,0,0,5.62,1.57h0c5.05-.61,13.41-8.69,14.84-13.3.51-1.63-.22-5.86-1.15-8l-.38-.84c-2.71-6.09-5.06-11.35-10.07-12.5A6.13,6.13,0,0,0,328.51,88.38Z" transform="translate(29.63 5.26)"/><path class="cls-7" d="M321.84,112.44c-.5-.08-3-.51-3.5-1.6a1,1,0,0,1,.08-1,8.33,8.33,0,0,0,.65-6.25,3.54,3.54,0,0,0-3.89-.43l-.33-.7a4.37,4.37,0,0,1,4.83.64l.07.07,0,.09a9.06,9.06,0,0,1-.7,7,.25.25,0,0,0,0,.28c.24.52,1.88,1,2.92,1.15Z" transform="translate(29.63 5.26)"/><path class="cls-5" d="M336.76,102.77a4.78,4.78,0,1,0,4.2-5.29A4.78,4.78,0,0,0,336.76,102.77Z" transform="translate(29.63 5.26)"/><path class="cls-7" d="M341.5,107.29a5.07,5.07,0,0,1-5-4.48h0a5,5,0,0,1,1.06-3.73,5.05,5.05,0,0,1,7.12-.82,5.08,5.08,0,0,1,.82,7.12,5.08,5.08,0,0,1-3.39,1.88A5.83,5.83,0,0,1,341.5,107.29Zm0-9.56a4.71,4.71,0,0,0-.53,0,4.48,4.48,0,0,0-3.95,5h0a4.5,4.5,0,1,0,4.48-5Z" transform="translate(29.63 5.26)"/><path class="cls-7" d="M342.43,105.53a1.31,1.31,0,0,1-.75-.19c-.66-.41-.43-1.13-.25-1.66s.23-.88,0-1.06a3,3,0,0,0-.48-.27c-.47-.24-1-.52-1.12-1.06a1.27,1.27,0,0,1,.34-1.09,2.62,2.62,0,0,1,2.69-.9l-.2.75a1.84,1.84,0,0,0-1.88.62.71.71,0,0,0-.2.46c0,.18.42.37.72.53a3.37,3.37,0,0,1,.59.34c.73.54.46,1.37.28,1.92s-.19.69-.07.76c.55.34,1.39-.56,1.4-.56l.58.52A2.65,2.65,0,0,1,342.43,105.53Z" transform="translate(29.63 5.26)"/><path class="cls-7" d="M321.57,115.2a14.27,14.27,0,0,1-2.58-.1l.12-.77a12.26,12.26,0,0,0,7-1.11l.38.67A11,11,0,0,1,321.57,115.2Z" transform="translate(29.63 5.26)"/><path class="cls-7" d="M327.72,104.09a1.29,1.29,0,0,1,0,.19,1.27,1.27,0,1,1-2.52.29,1.25,1.25,0,0,1,.18-.81A8.52,8.52,0,0,0,327.72,104.09Z" transform="translate(29.63 5.26)"/><path class="cls-7" d="M318.58,105.14c0,.06,0,.13,0,.19a1.27,1.27,0,1,1-2.34-.52A8.52,8.52,0,0,0,318.58,105.14Z" transform="translate(29.63 5.26)"/><path class="cls-7" d="M329,102.07c-4.14-1.57-5.07.21-5.08.23l-.7-.32c0-.11,1.18-2.48,6.06-.63Z" transform="translate(29.63 5.26)"/><path class="cls-7" d="M325.7,140.22c-6-.12-8.88-5.64-9-5.87l.69-.35c0,.05,2.8,5.33,8.33,5.45Z" transform="translate(29.63 5.26)"/><path class="cls-7" d="M323.28,224.57l-.1-.77c.17,0,17.32-2.47,21.17-17.71l.75.19C341.13,222,323.46,224.55,323.28,224.57Z" transform="translate(29.63 5.26)"/><path class="cls-7" d="M334.68,97.62l1.91,5.37a6.18,6.18,0,0,0,1.81-.3c-.65-5.65,4.18-5.14,4.18-5.14,3.5-7.08-3.69-17.27-8.6-16.29,0,0-4.73-6.19-14.83-2s-8.32,10.52-8.32,10.52-2.78,1.55-1.79,6.51,5,9.83,5,9.83l-.52-4.4s10-2.52,14.58-9.53C330.1,97.6,334.68,97.62,334.68,97.62Z" transform="translate(29.63 5.26)"/><path class="cls-7" d="M325.24,105a1.35,1.35,0,1,0,2.6-.75,1.35,1.35,0,0,0-2.6.75Z" transform="translate(29.63 5.26)"/><path class="cls-7" d="M316.05,105.83a1.35,1.35,0,0,0,2.6-.75,1.37,1.37,0,0,0-1.68-.93A1.35,1.35,0,0,0,316.05,105.83Z" transform="translate(29.63 5.26)"/><path class="cls-7" d="M396,215l.7-.07c-3.82-38.14-12.15-59.38-18.47-70.48-6.88-12.09-12.79-15.07-13-15.19l-.31.64C365.12,130,388.72,142.39,396,215Z" transform="translate(29.63 5.26)"/><path class="cls-5" d="M317.68,215.62c3.51-6,5.13-8.31,13.69-6.9a39.17,39.17,0,0,1,8.65,2.52l1.52-.8a.69.69,0,0,1,.28-.15h0c5.28-2.78,12.3-6.25,18.32-9.16,2-1.08,3.93-2.17,5.88-3.22-3.26-7.16-6.82-15.61-6.82-15.61-6.51-18.67,21.29-30.89,29.32-16.82s11.39,33.27,9.43,42.3a6.13,6.13,0,0,1-1.22,2.54c-1.31,2.53-4.07,4.74-8.82,6.11-13.32,3.86-42,5.44-45.55,5.63-.56.1-1.08.2-1.56.31a1.57,1.57,0,0,1-.61,0,.93.93,0,0,1-.47,0,9.56,9.56,0,0,0-3.85-.82,7.31,7.31,0,0,1-7.15-3.17,18,18,0,0,0-.45,2.77c-.15,2.63-1.84,5.17-3,5.29s-.93-4.31-.93-4.31-.76,6.47-3.06,4.14.52-8.5,1.89-10.9c.16-.28.33-.53.49-.77-1.4,1.18-2.75,3-3.53,3.63C318.75,219.29,314.17,221.61,317.68,215.62Z" transform="translate(29.63 5.26)"/><path class="cls-7" d="M322.18,227a1.67,1.67,0,0,1-1.14-.59c-2.3-2.34.16-7.94,1.32-10.24-.26.27-.51.55-.74.82a14.15,14.15,0,0,1-1.35,1.39c-.72.59-3,2-3.85,1.21-.64-.54-.32-1.86,1-4.14,3.55-6.06,5.34-8.46,14-7a39.38,39.38,0,0,1,8.6,2.49l1.4-.75a1.29,1.29,0,0,1,.31-.16c6.09-3.21,14.08-7.11,18.31-9.15,1.87-1,3.76-2.08,5.63-3.09-3.19-7-6.68-15.3-6.71-15.38-3.5-10,2.59-18,10.18-21.46,6.56-3,15.5-2.88,19.65,4.39,8.1,14.19,11.43,33.43,9.46,42.5a6.41,6.41,0,0,1-1.28,2.65c-1.44,2.81-4.46,4.91-9,6.21-13.4,3.88-42.36,5.47-45.61,5.64-.52.1-1,.2-1.52.31a2.18,2.18,0,0,1-.68,0,1.31,1.31,0,0,1-.56-.06,9.6,9.6,0,0,0-3.71-.8,7.52,7.52,0,0,1-7-2.8,16.85,16.85,0,0,0-.32,2.14c-.16,2.82-1.95,5.42-3.3,5.56a.75.75,0,0,1-.61-.22,3.25,3.25,0,0,1-.6-1.82c-.31,1.05-.8,2.06-1.52,2.31A1,1,0,0,1,322.18,227ZM325,213l-1.17,1.72c-.16.23-.31.48-.47.75-1.57,2.74-4,8.47-1.94,10.56.35.35.65.48.91.39.87-.3,1.48-2.84,1.66-4.37l.57.05c-.08,1.28,0,3.49.47,4,.06.06.1.07.15.06,1-.1,2.65-2.44,2.79-5a19.63,19.63,0,0,1,.46-2.82l.13-.61.37.5a7,7,0,0,0,6.89,3.06,9.77,9.77,0,0,1,4,.83.74.74,0,0,0,.34,0h.08a1.23,1.23,0,0,0,.51,0c.48-.11,1-.21,1.57-.31,3.29-.18,32.18-1.76,45.52-5.62,4.35-1.26,7.25-3.27,8.64-6a6,6,0,0,0,1.2-2.48c1.95-9-1.36-28-9.4-42.09-4-7-12.58-7-18.91-4.15-7.36,3.35-13.27,11.06-9.89,20.73,0,.07,3.59,8.52,6.81,15.6l.11.24-.23.12c-1.95,1-3.92,2.14-5.88,3.22-4.24,2-12.22,5.95-18.33,9.16l-.07,0a.8.8,0,0,0-.19.11l-1.54.82-.12.07-.13-.06a39.34,39.34,0,0,0-8.59-2.5c-8.19-1.34-9.83.69-13.4,6.77-1.59,2.72-1.27,3.31-1.14,3.42.45.38,2.21-.47,3.13-1.21a14.59,14.59,0,0,0,1.28-1.34,23,23,0,0,1,2.24-2.29Z" transform="translate(29.63 5.26)"/><path class="cls-2" d="M354.23,130.75c4.44-2.83,10.69-4.52,20.24,4s21,30.13,26.42,48.25c0,0-22.19,18.6-40.59,10,0,0-10.48-31.15-12.94-41.5S349.34,133.88,354.23,130.75Z" transform="translate(29.63 5.26)"/><path class="cls-7" d="M370.8,195.54a24.8,24.8,0,0,1-10.62-2.28l-.11,0,0-.11c-.11-.31-10.52-31.28-12.95-41.52-2.53-10.63,2.19-18,7-21.07,4-2.56,10.53-4.93,20.58,4,9.16,8.17,20.8,29.42,26.51,48.39l.05.18-.14.12C400.9,183.37,386.16,195.53,370.8,195.54Zm-10.27-2.74c17.23,7.94,38.1-8.34,40-9.9-5.7-18.83-17.23-39.86-26.29-47.94-9.66-8.61-15.7-6.64-19.89-4h0c-4.66,3-9.22,10.11-6.76,20.46C350,161.34,359.82,190.7,360.53,192.8Z" transform="translate(29.63 5.26)"/><path class="cls-7" d="M383.32,172.62a18,18,0,0,0,0-20.78l-.65.44a17.18,17.18,0,0,1,.07,19.85Z" transform="translate(29.63 5.26)"/><path class="cls-9" d="M290.34,314.15c-1.54-2.11-37.61-52-13.55-70,9.78-7.29,24.27-6.87,24.88-6.85l0,1c-.14,0-14.75-.42-24.23,6.65-23.25,17.34,13.4,68.05,13.77,68.56Z" transform="translate(29.63 5.26)"/><path class="cls-2" d="M294.53,242a.44.44,0,0,0,.45.42l75.16-2.5a.87.87,0,0,0,.85-.9l-.07-2.1-76.47,2.54Z" transform="translate(29.63 5.26)"/><path class="cls-7" d="M295,242.74a.72.72,0,0,1-.72-.69h0l-.09-2.81h.28l76.75-2.55.08,2.38a1.16,1.16,0,0,1-1.12,1.2L295,242.74Zm-.15-.71c0,.08.07.17.15.14l75.16-2.49a.61.61,0,0,0,.42-.19.57.57,0,0,0,.15-.42l-.06-1.81-75.9,2.51Z" transform="translate(29.63 5.26)"/><path class="cls-13" d="M361.07,236.41l0,.88,2.68-.09,0-1.18-2.39.08A.29.29,0,0,0,361.07,236.41Z" transform="translate(29.63 5.26)"/><path class="cls-13" d="M358,236.51l0,.88,2.69-.09,0-1.17-2.39.08A.28.28,0,0,0,358,236.51Z" transform="translate(29.63 5.26)"/><path class="cls-13" d="M354.84,236.61l0,.88,2.69-.08,0-1.18-2.39.08A.29.29,0,0,0,354.84,236.61Z" transform="translate(29.63 5.26)"/><path class="cls-13" d="M341.87,237l0,.89,2.69-.09,0-1.18-2.39.08A.29.29,0,0,0,341.87,237Z" transform="translate(29.63 5.26)"/><path class="cls-13" d="M338.76,237.15l0,.88,2.68-.09,0-1.18-2.39.08A.29.29,0,0,0,338.76,237.15Z" transform="translate(29.63 5.26)"/><path class="cls-13" d="M302.22,238.36l0,.88,2.68-.09,0-1.17-2.39.08A.28.28,0,0,0,302.22,238.36Z" transform="translate(29.63 5.26)"/><path class="cls-13" d="M299.1,238.46l0,.88,2.69-.08,0-1.18-2.39.08A.3.3,0,0,0,299.1,238.46Z" transform="translate(29.63 5.26)"/><path class="cls-13" d="M345.08,236.94l0,.88,9.22-.31,0-1.17-8.93.29A.29.29,0,0,0,345.08,236.94Z" transform="translate(29.63 5.26)"/><path class="cls-13" d="M289,238.8l0,.88,9.22-.31,0-1.17-8.93.29A.29.29,0,0,0,289,238.8Z" transform="translate(29.63 5.26)"/><path class="cls-13" d="M305.62,238.24l0,.89,32-1.06,0-1.18-31.75,1.05A.3.3,0,0,0,305.62,238.24Z" transform="translate(29.63 5.26)"/><path class="cls-14" d="M289.72,238.48l-6.5.22a.66.66,0,0,0-.64.68l0,.51,7.46-.24,0-.89A.29.29,0,0,0,289.72,238.48Z" transform="translate(29.63 5.26)"/><path class="cls-15" d="M280.74,238.78l-6.5.21a.68.68,0,0,0-.65.69l0,.51,7.46-.25,0-.88A.29.29,0,0,0,280.74,238.78Z" transform="translate(29.63 5.26)"/><path class="cls-16" d="M271.75,239.08l-6.5.21a.66.66,0,0,0-.64.69l0,.51,7.45-.25,0-.88A.28.28,0,0,0,271.75,239.08Z" transform="translate(29.63 5.26)"/><path class="cls-17" d="M262.77,239.37l-6.5.22a.67.67,0,0,0-.65.69l0,.51,7.46-.25,0-.88A.3.3,0,0,0,262.77,239.37Z" transform="translate(29.63 5.26)"/><path class="cls-18" d="M252.19,239.72l-3.4.12a.67.67,0,0,0-.65.68l0,.52,4.36-.15,0-.88A.3.3,0,0,0,252.19,239.72Z" transform="translate(29.63 5.26)"/><path class="cls-19" d="M246.89,239.9l-3.4.11a.67.67,0,0,0-.64.69v.51l4.36-.14,0-.89A.29.29,0,0,0,246.89,239.9Z" transform="translate(29.63 5.26)"/><path class="cls-20" d="M241.91,240.07l-3.41.11a.67.67,0,0,0-.64.69l0,.51,4.36-.15,0-.88A.29.29,0,0,0,241.91,240.07Z" transform="translate(29.63 5.26)"/><path class="cls-13" d="M298.81,183.16a5.64,5.64,0,0,0-5.47-4l18.49,59.5s3.82,1.79,2.94-1.39C314,234.59,302.57,195.87,298.81,183.16Z" transform="translate(29.63 5.26)"/><path class="cls-5" d="M293.48,178.58l-80.05,2.65a1.72,1.72,0,0,0-1.59,2.19l16.66,57.72,84.22-2.79-16.82-58A2.42,2.42,0,0,0,293.48,178.58Z" transform="translate(29.63 5.26)"/><path class="cls-7" d="M228.29,241.43l-.06-.21L211.56,183.5a2,2,0,0,1,1.86-2.55l80.05-2.66h.1a2.71,2.71,0,0,1,2.6,2l16.93,58.37h-.37Zm65.2-62.57-80.05,2.66a1.37,1.37,0,0,0-1.11.59,1.44,1.44,0,0,0-.22,1.24l16.6,57.5,83.64-2.77-16.72-57.67a2.14,2.14,0,0,0-2.14-1.55Z" transform="translate(29.63 5.26)"/><path class="cls-7" d="M313.26,238.74l-85.06,2.82-.09-.3-16.66-57.72a2.08,2.08,0,0,1,.32-1.84,2.16,2.16,0,0,1,1.65-.88l80.05-2.65a2.83,2.83,0,0,1,2.82,2.05Zm-84.45,2L312.18,238l-16.67-57.52a2,2,0,0,0-2-1.46l-80.06,2.66a1.29,1.29,0,0,0-1,.54,1.3,1.3,0,0,0-.2,1.13Z" transform="translate(29.63 5.26)"/><path class="cls-2" d="M228.24,244.23a.44.44,0,0,0,.44.43l82.61-2.75a.86.86,0,0,0,.84-.89l-.09-2.66-83.91,2.78Z" transform="translate(29.63 5.26)"/><path class="cls-7" d="M228.67,244.94a.73.73,0,0,1-.72-.7h0l-.11-3.37h.28l84.19-2.8.1,2.95a1.16,1.16,0,0,1-1.11,1.19l-82.61,2.74Zm-.15-.72a.14.14,0,0,0,.16.15l82.6-2.74a.59.59,0,0,0,.41-.18.6.6,0,0,0,.15-.42l-.07-2.38-83.34,2.76Z" transform="translate(29.63 5.26)"/><rect class="cls-7" x="311.09" y="237.47" width="58.89" height="1" transform="translate(21.92 16.69) rotate(-1.9)"/><rect class="cls-13" x="228.13" y="240.06" width="68.71" height="1" transform="translate(21.79 14.1) rotate(-1.9)"/><path class="cls-7" d="M213.49,247.69a28.73,28.73,0,0,0-8,.84,31.69,31.69,0,0,0,.48-4.27,31.27,31.27,0,0,0-51.24-25.2,45.74,45.74,0,0,0-88.25,15.18c0,1.58,0,3.13.07,4.67a32.53,32.53,0,1,0-17,60.94l164.66,5.86v-.15a29,29,0,0,0-.8-57.87Z" transform="translate(29.63 5.26)"/><path class="cls-5" d="M223.64,276a29,29,0,0,1-26.12,28.83v.15H32.76a32.54,32.54,0,0,1,0-65.08h.58a32.29,32.29,0,0,1,14.2,3.57c-.15-1.53-.23-3.08-.23-4.66,0-1.28,0-2.55.16-3.81A45.73,45.73,0,0,1,93.05,193c1,0,1.92,0,2.87.1h0a45.74,45.74,0,0,1,39,27.33,31.14,31.14,0,0,1,16.75-7.68,29.91,29.91,0,0,1,4-.27,31,31,0,0,1,8.45,1.16h0a31.3,31.3,0,0,1,22.86,30.15,32,32,0,0,1-.33,4.29A28.91,28.91,0,0,1,223.64,276Z" transform="translate(29.63 5.26)"/><path class="cls-7" d="M197.74,305.16h-165a32.76,32.76,0,0,1,0-65.52h.58a32.32,32.32,0,0,1,13.95,3.41c-.13-1.42-.2-2.86-.2-4.29s0-2.56.16-3.83a46,46,0,0,1,45.8-42.13c1,0,1.93,0,2.88.1A45.77,45.77,0,0,1,135,220.09a31.33,31.33,0,0,1,16.64-7.53,30.46,30.46,0,0,1,4.07-.27,31.32,31.32,0,0,1,8.48,1.16h0A31.29,31.29,0,0,1,187,247.81a28.8,28.8,0,0,1,7.66-1.05A29.2,29.2,0,0,1,197.74,305Zm-165-65.08a32.32,32.32,0,0,0,0,64.64H197.3v-.13h.2a28.76,28.76,0,1,0-10.7-56.26l-.33.09.05-.33a31.63,31.63,0,0,0,.32-4.26,31.19,31.19,0,0,0-22.67-29.94h0a31.06,31.06,0,0,0-8.39-1.15,31.56,31.56,0,0,0-4,.26,30.87,30.87,0,0,0-16.62,7.63l-.23.2-.12-.28a45.35,45.35,0,0,0-38.85-27.2c-1-.06-1.91-.09-2.86-.09A45.76,45.76,0,0,0,47.68,235c-.1,1.25-.15,2.53-.15,3.79,0,1.54.08,3.11.23,4.64l0,.4-.36-.18a32,32,0,0,0-14.11-3.55Z" transform="translate(29.63 5.26)"/><path class="cls-10" d="M138.52,281.9l3.21-10.49-6.45-2.6a27.49,27.49,0,0,0-.92-9.59l5.83-3.77L135,245.76l-6.39,2.73a27.79,27.79,0,0,0-7.43-6.13l1.45-6.8-10.5-3.21-2.6,6.45a27.72,27.72,0,0,0-9.58.92l-3.78-5.83L86.53,239l2.72,6.39a27.79,27.79,0,0,0-6.13,7.43l-6.79-1.45-3.21,10.5,6.44,2.6a28,28,0,0,0,.93,9.58l-5.83,3.78,5.15,9.68,6.39-2.72A27.76,27.76,0,0,0,93.63,291l-1.45,6.8,10.5,3.2,2.6-6.44a27.46,27.46,0,0,0,9.58-.93l3.78,5.83,9.68-5.15-2.72-6.39a27.57,27.57,0,0,0,6.12-7.43Zm-36.89,3.7a19.81,19.81,0,1,1,24.74-13.15A19.8,19.8,0,0,1,101.63,285.6Z" transform="translate(29.63 5.26)"/><polygon class="cls-21" points="107.03 269.17 102.45 267.32 104.87 259.4 105.33 259.54 103.04 267.03 107.22 268.72 107.03 269.17"/><path class="cls-21" d="M92.42,297.81l-.48-.11,1.41-6.61a23.05,23.05,0,0,1-5.81-4.45l.36-.33a22.49,22.49,0,0,0,5.83,4.43l.17.09Z" transform="translate(29.63 5.26)"/><path class="cls-21" d="M118.58,283.32l-.27-.4c12.75-8.95,7.63-22.59,7.58-22.73l.45-.18C126.4,260.15,131.65,274.15,118.58,283.32Z" transform="translate(29.63 5.26)"/><path class="cls-21" d="M135.11,264.53a43.42,43.42,0,0,0-1-5.24l0-.17,2.14-1.39.26.41-1.84,1.19a44.91,44.91,0,0,1,1,5.14Z" transform="translate(29.63 5.26)"/><path class="cls-7" d="M105.68,300.48l-10.93-3.34,1.46-6.84a26.66,26.66,0,0,1-7.23-6l-6.43,2.74L77.19,277l5.87-3.8a27.68,27.68,0,0,1-.9-9.33l-6.49-2.62L79,250.33l6.84,1.46c.51-.88,3.06-5.16,6-7.25l-2.74-6.42,10.08-5.35,3.8,5.85a22.93,22.93,0,0,1,9.33-.89l2.62-6.48,10.92,3.34-1.46,6.84a25.82,25.82,0,0,1,7.24,6l6.43-2.74,5.36,10.08-5.87,3.8a24.15,24.15,0,0,1,.9,9.33l6.48,2.61-3.33,10.93-6.84-1.46a24.82,24.82,0,0,1-6,7.23l2.74,6.43L121.42,299l-3.79-5.85a21.6,21.6,0,0,1-9.34.89Zm-10.37-3.67,10.09,3.08,2.58-6.41.19,0a20.54,20.54,0,0,0,9.46-.91l.19-.07,3.77,5.81,9.3-4.94L128.18,287l.14-.12a24.08,24.08,0,0,0,6.06-7.35l.08-.17,6.77,1.45,3.09-10.09-6.42-2.58,0-.18a23.66,23.66,0,0,0-.91-9.48l-.07-.18,5.81-3.76-4.94-9.31L131.44,248l-.11-.15a25.58,25.58,0,0,0-7.35-6.07l-.16-.08,1.44-6.76-10.08-3.08-2.59,6.41-.18,0a22.09,22.09,0,0,0-9.47.91l-.19.07L99,233.4l-9.3,4.94,2.71,6.38-.16.11c-3.14,2.16-6,7.3-6.06,7.35l-.08.15-6.76-1.44L76.26,261l6.41,2.59,0,.18a26.78,26.78,0,0,0,.92,9.49l.05.17-5.8,3.77,4.94,9.29,6.37-2.71.11.15A26.34,26.34,0,0,0,96.6,290l.16.08Z" transform="translate(29.63 5.26)"/><path class="cls-7" d="M110.29,285.93a20.07,20.07,0,1,1,20.06-20.07A20.09,20.09,0,0,1,110.29,285.93Zm0-39.65a19.59,19.59,0,1,0,19.58,19.58A19.61,19.61,0,0,0,110.29,246.28Z" transform="translate(29.63 5.26)"/><path class="cls-8" d="M403.76,316.76c21.22-22.91,49,36.67,46.27,60.16l-10.57,0C429.21,371,386.58,335.32,403.76,316.76Z" transform="translate(29.63 5.26)"/><path class="cls-7" d="M444.53,377l.82-.37c-15.65-34.19-41-60-41.27-60.21l-.64.63C403.69,317.34,429,343,444.53,377Z" transform="translate(29.63 5.26)"/><path class="cls-7" d="M410.21,349.63c6.77,2.13,21.26,4,21.94,4.05l.11-.89c-.18,0-18.31-2.32-23.57-4.68l-.36.83A19.32,19.32,0,0,0,410.21,349.63Z" transform="translate(29.63 5.26)"/><path class="cls-7" d="M419.33,333.69c2.54-7.4,3.06-19.25,3.07-19.37l-.9,0c0,.12-.53,11.84-3,19.12Z" transform="translate(29.63 5.26)"/><path class="cls-7" d="M440.78,338.47c6.45,13.48,10.36,28.93,9.25,38.45C435.3,361.61,438.43,341,440.78,338.47Z" transform="translate(29.63 5.26)"/><path class="cls-8" d="M458,300.91c18.8-9.2,13,46.3-3.57,76l-7.69,0C443,369.46,442.83,308.35,458,300.91Z" transform="translate(29.63 5.26)"/><path class="cls-7" d="M449.58,376.84l.89.16c3-16.48,11.15-69.63,11.24-70.16l-.9-.14C460.73,307.24,452.58,360.37,449.58,376.84Z" transform="translate(29.63 5.26)"/><rect class="cls-7" x="451.32" y="353.22" width="12.75" height="0.9" transform="translate(-78.26 480.13) rotate(-49.79)"/><rect class="cls-7" x="451.28" y="326.71" width="0.9" height="12.16" transform="translate(-63.84 470.6) rotate(-50.04)"/><path class="cls-5" d="M418.61,376.88v4.55A27.11,27.11,0,0,0,423,396.2l1.15,1.79,9.19,58.11,22.1.06,6.83-58.07,1.16-1.78a27,27,0,0,0,4.5-14.74V377Z" transform="translate(29.63 5.26)"/><path class="cls-7" d="M455.75,456.49l-22.68-.06,0-.28-9.18-58-1.11-1.73a27.39,27.39,0,0,1-4.47-14.95v-4.88l50,.14,0,4.88a27.42,27.42,0,0,1-4.55,14.92l-1.12,1.72Zm-22.11-.72,21.52.06L462,398l1.2-1.85a26.8,26.8,0,0,0,4.45-14.57v-4.21l-48.69-.14v4.22A26.83,26.83,0,0,0,423.3,396l1.2,1.92Z" transform="translate(29.63 5.26)"/><rect class="cls-7" x="436.81" y="370" width="0.9" height="36.76" transform="translate(77.31 829.84) rotate(-89.84)"/><rect class="cls-7" x="455.47" y="391.45" width="0.9" height="13.16" transform="translate(86.21 858.07) rotate(-89.83)"/><path class="cls-7" d="M433,456.55h1.2v-.9h-.43l-9.15-57.82L423.4,396a26.66,26.66,0,0,1-4.35-14.52v-4.1l48.9.14v-.91l-49.8-.13v5a27.53,27.53,0,0,0,4.49,15l1.1,1.72Z" transform="translate(29.63 5.26)"/></g></g></svg>