<svg xmlns="http://www.w3.org/2000/svg" xmlns:xlink="http://www.w3.org/1999/xlink" viewBox="0 0 559.28 491.58"><defs><style>.cls-1{fill:none;}.cls-2{fill:#e6e6e6;}.cls-3{clip-path:url(#clip-path);}.cls-4{fill:#f5f5f5;}.cls-5{fill:#fff;}.cls-6{fill:#dbdbdb;}.cls-7{fill:#34234d;}.cls-8{fill:#00b5f4;}.cls-9{fill:#ff5168;}.cls-10{fill:#2b1d40;}.cls-11{fill:#6179c4;}.cls-12{fill:#221733;}</style><clipPath id="clip-path" transform="translate(13.03)"><path class="cls-1" d="M411.38,352.66c-160.12,32.63-112.08,116-218.92,135.57C48.32,514.7-19.28,298.54,71.09,165.13c72.22-106.6,196.8-140.28,307.18-96.5C534.17,130.47,537.77,326.9,411.38,352.66Z"/></clipPath></defs><title>Asset 21</title><g id="Layer_2" data-name="Layer 2"><g id="Layer_1-2" data-name="Layer 1"><path class="cls-2" d="M401.17,363.72C363.4,374.19,292,447.16,336.29,481.38S512.68,332.82,401.17,363.72Z" transform="translate(13.03)"/><path class="cls-2" d="M411.38,352.66c-160.12,32.63-112.08,116-218.92,135.57C48.32,514.7-19.28,298.54,71.09,165.13c72.22-106.6,196.8-140.28,307.18-96.5C534.17,130.47,537.77,326.9,411.38,352.66Z" transform="translate(13.03)"/><g class="cls-3"><path class="cls-4" d="M-13,292.75c0,78.64,60,152.57,182.78,176.05,162.14,31,370.52,33,370.52-121.7,0-58.11,5.83-216.83-27.28-238.26H428.15v196.1l-46.53,75.87v-156H350.17V160.88L261.77,93.7v89H186.86V67.39c-22.54,2.85-44.08,13.1-63.09,29.27V263.14H89.87V225.36l-100.36-51C-13.28,190.34-13,275.31-13,292.75ZM174.43,341.1h58.35v37.78H174.43Zm36.13-137.7h26.9v109h-26.9ZM171.2,124.9H140.45V101.66H171.2Zm0,29.49H140.45V131.14H171.2Zm0,29.48H140.45V160.63H171.2Zm0,29.48H140.45V190.11H171.2ZM479,175.2H441V119.83h38Zm0,70.24H441V190.07h38Zm0,70.24H441V260.31h38Zm0,70.24H441V330.55h38ZM138.87,259H182.8v50.25H138.87Z" transform="translate(13.03)"/><rect class="cls-5" x="447.67" y="105.77" width="1.02" height="340.96"/><rect class="cls-5" x="348.76" y="28.11" width="1.02" height="418.62"/><rect class="cls-5" x="249.85" y="28.11" width="1.02" height="418.62"/><rect class="cls-5" x="150.95" y="28.11" width="1.02" height="418.62"/><rect class="cls-5" x="49.98" y="105.66" width="1.02" height="341.08"/><rect class="cls-6" x="12.55" y="447.28" width="479.59" height="43.38"/><rect class="cls-5" x="12.55" y="442.09" width="479.59" height="5.16"/><rect class="cls-5" x="12.55" y="377.09" width="479.59" height="1.02"/><rect class="cls-5" x="12.55" y="307.97" width="479.59" height="1.02"/><rect class="cls-5" x="12.55" y="238.84" width="479.59" height="1.02"/><rect class="cls-5" x="12.55" y="167.44" width="479.59" height="1.02"/><rect class="cls-5" x="12.55" y="96.04" width="479.59" height="1.02"/></g><path class="cls-7" d="M491.18,341.25h-2V329.38h2Zm0-23.87h-2v-12h2Zm0-24h-2v-12h2Zm0-24h-2v-12h2Zm-10.51-13.49h-12v-2h12Zm-24,0h-12v-2h12Zm-24,0h-12v-2h12Z" transform="translate(13.03)"/><path class="cls-7" d="M285.9,132.05h-2v-12h2Zm0-24h-2v-3.5h10.5v2h-8.5Zm32.5-1.5h-12v-2h12Zm6.23-7.76h-2v-12h2Z" transform="translate(13.03)"/><path class="cls-7" d="M492.34,206.25h-12v-2h12Zm-24,0h-12v-2h12Zm-24,0h-12v-2h12Zm50.92-11.09h-2v-12h2Zm0-24h-2v-12h2Zm0-24h-2v-12h2Z" transform="translate(13.03)"/><path class="cls-8" d="M339,398.59l2.61-13.38-8.3-2.38a34.24,34.24,0,0,0-2.38-11.71l6.71-5.42L330,354.41l-7.54,4.19a34.34,34.34,0,0,0-10-6.61l.91-8.58-13.37-2.6-2.38,8.29A34.58,34.58,0,0,0,286,351.48l-5.42-6.71-11.29,7.61,4.19,7.54a34.27,34.27,0,0,0-6.61,10l-8.58-.91-2.6,13.38,8.29,2.37a34.4,34.4,0,0,0,2.38,11.72l-6.71,5.41,7.61,11.29,7.54-4.18a34.24,34.24,0,0,0,10,6.6l-.91,8.58,13.38,2.61,2.37-8.29a34.49,34.49,0,0,0,11.71-2.39l5.42,6.72L328,415.18l-4.18-7.54a34.43,34.43,0,0,0,6.6-10Zm-45.07,9.33a24.59,24.59,0,1,1,28.85-19.44A24.61,24.61,0,0,1,293.94,407.92Z" transform="translate(13.03)"/><polygon class="cls-7" points="274.26 384.25 268.36 382.56 270.33 372.47 270.92 372.59 269.06 382.13 274.43 383.67 274.26 384.25"/><path class="cls-7" d="M284.14,424.17l-.6-.06.89-8.35a28.38,28.38,0,0,1-7.75-4.75l.4-.44a27.74,27.74,0,0,0,7.77,4.71l.22.08Z" transform="translate(13.03)"/><path class="cls-7" d="M314.58,402.91l-.4-.46c14.59-12.7,6.51-28.88,6.43-29.05l.54-.27C321.23,373.29,329.52,389.9,314.58,402.91Z" transform="translate(13.03)"/><path class="cls-7" d="M332.56,377.58a53.84,53.84,0,0,0-1.9-6.35l-.08-.21,2.47-2,.37.47-2.12,1.72a58.7,58.7,0,0,1,1.85,6.22Z" transform="translate(13.03)"/><path class="cls-7" d="M300.86,425.76l-13.92-2.71.91-8.63a33.26,33.26,0,0,1-9.7-6.43l-7.58,4.21-7.92-11.75L269.4,395a34.74,34.74,0,0,1-2.31-11.4l-8.35-2.39,2.71-13.92,8.64.92c.51-1.16,3.11-6.77,6.42-9.72l-4.21-7.57L284.05,343l5.44,6.74a28.45,28.45,0,0,1,11.42-2.31l2.39-8.34,13.92,2.71-.92,8.64a32.11,32.11,0,0,1,9.71,6.42l7.58-4.21,7.92,11.75-6.75,5.45a30.32,30.32,0,0,1,2.31,11.41l8.34,2.39-2.71,13.92-8.63-.92a30.71,30.71,0,0,1-6.43,9.7l4.21,7.59-11.75,7.92-5.44-6.75a26.61,26.61,0,0,1-11.41,2.31Zm-13.27-3.19,12.85,2.5,2.36-8.25H303a25.7,25.7,0,0,0,11.57-2.34l.22-.12,5.4,6.69,10.85-7.3-4.17-7.51.16-.15a30.14,30.14,0,0,0,6.54-9.86l.08-.22,8.54.91,2.5-12.85-8.25-2.36v-.23a29.37,29.37,0,0,0-2.35-11.59l-.1-.21,6.69-5.4-7.31-10.84-7.51,4.17-.16-.17c-3.83-4.11-9.8-6.51-9.86-6.54l-.21-.08.91-8.54-12.85-2.5L301.36,348h-.23a27.58,27.58,0,0,0-11.58,2.35l-.22.11-5.4-6.69-10.84,7.31,4.17,7.51-.18.16c-3.6,3.08-6.5,9.8-6.53,9.86l-.09.21-8.53-.91-2.5,12.84,8.25,2.37v.22A33.54,33.54,0,0,0,270,395l.09.21-6.68,5.39,7.31,10.85,7.5-4.17.16.17a32.36,32.36,0,0,0,9.87,6.53l.21.09Z" transform="translate(13.03)"/><path class="cls-7" d="M304.67,407.2a24.91,24.91,0,1,1,22.18-27.36A24.94,24.94,0,0,1,304.67,407.2Zm-5.12-49a24.32,24.32,0,1,0,26.71,21.66A24.34,24.34,0,0,0,299.55,358.24Z" transform="translate(13.03)"/><path class="cls-9" d="M383.78,326.9l2-10-6.21-1.77a25.39,25.39,0,0,0-1.78-8.76l5-4.05-5.69-8.45L371.43,297a25.74,25.74,0,0,0-7.45-4.94l.68-6.41-10-1.95-1.78,6.2a25.91,25.91,0,0,0-8.76,1.78l-4.05-5-8.44,5.69,3.13,5.64a25.74,25.74,0,0,0-4.94,7.45l-6.42-.68-1.94,10,6.2,1.78a25.67,25.67,0,0,0,1.78,8.76l-5,4,5.69,8.45,5.64-3.13a25.64,25.64,0,0,0,7.45,4.93l-.68,6.42,10,1.95,1.78-6.2a25.86,25.86,0,0,0,8.76-1.78l4.05,5,8.44-5.7-3.13-5.63a25.86,25.86,0,0,0,4.94-7.46Zm-33.71,7a18.39,18.39,0,1,1,21.57-14.54A18.4,18.4,0,0,1,350.07,333.88Z" transform="translate(13.03)"/><polygon class="cls-7" points="338.64 316.18 334.23 314.91 335.7 307.37 336.14 307.45 334.75 314.59 338.77 315.74 338.64 316.18"/><path class="cls-7" d="M342.74,346l-.45,0,.67-6.25a21.38,21.38,0,0,1-5.8-3.55l.3-.33a21.06,21.06,0,0,0,5.82,3.52l.16.06Z" transform="translate(13.03)"/><path class="cls-7" d="M365.5,330.13l-.29-.34c10.91-9.5,4.87-21.6,4.81-21.72l.4-.21C370.48,308,376.68,320.4,365.5,330.13Z" transform="translate(13.03)"/><path class="cls-7" d="M379,311.19a39,39,0,0,0-1.42-4.75l-.06-.16,1.85-1.48.28.35L378,306.43a41.65,41.65,0,0,1,1.38,4.66Z" transform="translate(13.03)"/><path class="cls-7" d="M355.25,347.22l-10.42-2,.69-6.46a24.8,24.8,0,0,1-7.25-4.81l-5.68,3.15-5.92-8.79,5.05-4.07a26.1,26.1,0,0,1-1.73-8.53l-6.24-1.79,2-10.41,6.46.69c.38-.87,2.32-5.06,4.79-7.27l-3.14-5.66,8.79-5.92,4.07,5a21.23,21.23,0,0,1,8.53-1.73l1.79-6.24,10.41,2-.69,6.46a24,24,0,0,1,7.26,4.8l5.67-3.15,5.92,8.8-5,4.07a22.73,22.73,0,0,1,1.73,8.53l6.24,1.79-2,10.41-6.45-.69a23.27,23.27,0,0,1-4.81,7.25l3.15,5.68-8.79,5.92-4.07-5A20.07,20.07,0,0,1,357,341Zm-9.93-2.38,9.61,1.87,1.77-6.18h.17a19.13,19.13,0,0,0,8.65-1.76l.17-.09,4,5,8.11-5.46-3.12-5.62.12-.11a22.35,22.35,0,0,0,4.89-7.38l.06-.16,6.39.68,1.87-9.61-6.17-1.76v-.17a21.74,21.74,0,0,0-1.76-8.67l-.08-.16,5-4-5.47-8.11L374,296.25l-.11-.13a23.54,23.54,0,0,0-7.38-4.88l-.15-.07.67-6.38-9.6-1.87-1.77,6.17h-.17a20.55,20.55,0,0,0-8.66,1.76l-.16.08-4-5-8.11,5.46L337.6,297l-.14.12c-2.69,2.3-4.86,7.32-4.88,7.37l-.07.16-6.37-.68-1.87,9.6,6.16,1.77v.17a25.14,25.14,0,0,0,1.77,8.68l.07.15-5,4,5.46,8.11,5.62-3.11.12.12a24.5,24.5,0,0,0,7.37,4.89l.16.06Z" transform="translate(13.03)"/><path class="cls-7" d="M358.1,333.34a18.63,18.63,0,1,1,16.59-20.47A18.65,18.65,0,0,1,358.1,333.34Zm-3.83-36.61a18.18,18.18,0,1,0,20,16.19A18.2,18.2,0,0,0,354.27,296.73Z" transform="translate(13.03)"/><path class="cls-9" d="M422.21,429.9l2.37-12.14-7.52-2.15A31.47,31.47,0,0,0,414.9,405l6.08-4.91-6.9-10.24-6.84,3.8a31,31,0,0,0-9-6l.82-7.78-12.13-2.37L384.75,385a31.52,31.52,0,0,0-10.63,2.16l-4.91-6.08L359,388l3.8,6.84a31.22,31.22,0,0,0-6,9L349,403l-2.36,12.13,7.52,2.15A31.52,31.52,0,0,0,356.31,428l-6.08,4.91,6.9,10.24,6.84-3.8a31.22,31.22,0,0,0,9,6l-.83,7.78,12.14,2.36,2.15-7.52a31.37,31.37,0,0,0,10.62-2.16l4.92,6.09,10.24-6.91-3.8-6.84a31,31,0,0,0,6-9Zm-40.87,8.46a22.31,22.31,0,1,1,26.16-17.63A22.31,22.31,0,0,1,381.34,438.36Z" transform="translate(13.03)"/><polygon class="cls-7" points="364.7 416.89 359.35 415.36 361.13 406.21 361.67 406.32 359.98 414.97 364.85 416.37 364.7 416.89"/><path class="cls-7" d="M372.45,453.1l-.55-.05.81-7.57a25.83,25.83,0,0,1-7-4.31l.37-.41A25,25,0,0,0,373.1,445l.2.07Z" transform="translate(13.03)"/><path class="cls-7" d="M400.05,433.81l-.35-.41c13.23-11.52,5.9-26.2,5.83-26.34l.48-.25C406.09,407,413.61,422,400.05,433.81Z" transform="translate(13.03)"/><path class="cls-7" d="M416.36,410.84a49.25,49.25,0,0,0-1.72-5.76l-.07-.18,2.24-1.81.34.43-1.93,1.55a51.24,51.24,0,0,1,1.68,5.65Z" transform="translate(13.03)"/><path class="cls-7" d="M387.61,454.55,375,452.09l.84-7.83a30.06,30.06,0,0,1-8.8-5.83l-6.88,3.82L353,431.59l6.12-4.95A31.28,31.28,0,0,1,357,416.3l-7.57-2.17,2.46-12.62,7.83.83c.47-1,2.83-6.13,5.82-8.81l-3.81-6.87,10.66-7.18,4.94,6.11a25.79,25.79,0,0,1,10.35-2.09l2.16-7.57,12.63,2.46-.83,7.83a29.38,29.38,0,0,1,8.8,5.83l6.88-3.82,7.18,10.66-6.12,4.94a27.77,27.77,0,0,1,2.1,10.35l7.56,2.17L425.57,429l-7.83-.83a28,28,0,0,1-5.84,8.8l3.82,6.88L405.07,451l-4.94-6.11A24.21,24.21,0,0,1,389.78,447Zm-12-2.9,11.65,2.27,2.14-7.49h.21a23.35,23.35,0,0,0,10.5-2.13l.19-.11,4.9,6.08,9.84-6.63-3.78-6.81.15-.14a27.4,27.4,0,0,0,5.93-8.94l.07-.2,7.75.82,2.27-11.65-7.49-2.14v-.21a26.56,26.56,0,0,0-2.13-10.51l-.09-.19,6.06-4.9L417.12,389l-6.81,3.78-.14-.15a28.59,28.59,0,0,0-8.94-5.93l-.19-.08.82-7.74-11.65-2.27L388.06,384h-.2a25,25,0,0,0-10.5,2.13l-.2.11-4.9-6.07-9.84,6.62,3.79,6.82-.17.15c-3.26,2.79-5.89,8.88-5.92,8.94l-.08.18-7.73-.82L350,413.75l7.48,2.14v.2a30.44,30.44,0,0,0,2.14,10.53l.08.19-6.06,4.89,6.63,9.83,6.81-3.78.14.15a29.65,29.65,0,0,0,8.95,5.94l.19.07Z" transform="translate(13.03)"/><path class="cls-7" d="M391.07,437.71a22.59,22.59,0,1,1,20.12-24.82A22.61,22.61,0,0,1,391.07,437.71Zm-4.65-44.4A22,22,0,1,0,410.65,413,22.08,22.08,0,0,0,386.42,393.31Z" transform="translate(13.03)"/><rect class="cls-7" x="67.21" y="490.45" width="422.93" height="1.02"/><path class="cls-5" d="M442.42,321.32H554.11a3.34,3.34,0,0,1,3.34,3.34v92a4.86,4.86,0,0,1-4.86,4.86H443.95a4.86,4.86,0,0,1-4.86-4.86v-92A3.34,3.34,0,0,1,442.42,321.32Z"/><path class="cls-2" d="M541,321.32H429.53a3.39,3.39,0,0,0-3.39,3.39v4H544.42v-4A3.39,3.39,0,0,0,541,321.32Z" transform="translate(13.03)"/><path class="cls-7" d="M544.65,328.88H425.92v-4.17a3.61,3.61,0,0,1,3.61-3.61H541a3.62,3.62,0,0,1,3.62,3.61Zm-118.28-.45H544.19v-3.72a3.16,3.16,0,0,0-3.16-3.16H429.53a3.16,3.16,0,0,0-3.16,3.16Z" transform="translate(13.03)"/><path class="cls-10" d="M532.33,324.38a.81.81,0,1,0,0,1.62.81.81,0,1,0,0-1.62Z" transform="translate(13.03)"/><path class="cls-9" d="M535.74,324.38a.81.81,0,1,0,.81.81A.81.81,0,0,0,535.74,324.38Z" transform="translate(13.03)"/><path class="cls-8" d="M539.16,324.38a.81.81,0,1,0,.81.81A.81.81,0,0,0,539.16,324.38Z" transform="translate(13.03)"/><path class="cls-10" d="M541.08,321.12H429.39a3.55,3.55,0,0,0-3.54,3.54v92a5.07,5.07,0,0,0,5.06,5.07H539.56a5.07,5.07,0,0,0,5.06-5.07v-92A3.55,3.55,0,0,0,541.08,321.12Zm3.14,95.57a4.66,4.66,0,0,1-4.66,4.66H430.91a4.67,4.67,0,0,1-4.66-4.66v-92a3.15,3.15,0,0,1,3.14-3.14H541.08a3.15,3.15,0,0,1,3.14,3.14Z" transform="translate(13.03)"/><rect class="cls-8" x="459.96" y="392.18" width="13.44" height="22.68" rx="5.3"/><rect class="cls-9" x="479.78" y="376.07" width="13.44" height="38.79" rx="5.3"/><rect class="cls-8" x="501.73" y="364.18" width="13.44" height="50.68" rx="5.3"/><rect class="cls-9" x="523.24" y="350.23" width="13.44" height="64.63" rx="5.3"/><polygon class="cls-8" points="514.42 339.39 521.66 343.49 522.2 334.56 514.42 339.39"/><path class="cls-8" d="M448.44,377.73a.9.9,0,0,1-.81-.53.69.69,0,0,1,.59-.89c.38-.08,37.48-8.58,57.32-37.15a1,1,0,0,1,1.23-.26.67.67,0,0,1,.36,1c-20.21,29.09-58,37.74-58.37,37.82A1.15,1.15,0,0,1,448.44,377.73Z" transform="translate(13.03)"/><path class="cls-7" d="M167,300.1a58.16,58.16,0,1,1,0-116.31h1.14a58.2,58.2,0,0,1,7.49.63,76.67,76.67,0,0,1,76-66.36c1.59,0,3.18.06,4.74.16h.07a76.29,76.29,0,0,1,58.33,33,55.79,55.79,0,0,1,17.58-5.31,55,55,0,0,1,7.29-.48A56.73,56.73,0,0,1,353,147h.1l1.66.46A56.62,56.62,0,0,1,395.4,193.8a53.16,53.16,0,0,1,4,106l-1.21.06Zm0-91.34a33.19,33.19,0,0,0,0,66.37l230.56-.21a28.17,28.17,0,1,0-11-55.06h0a12.48,12.48,0,0,1-15.79-13.68h0a33.23,33.23,0,0,0,.34-4.34,31.55,31.55,0,0,0-22.64-30.21l-.33-.09a31.38,31.38,0,0,0-29.36,6.83h0a12.48,12.48,0,0,1-19.74-4.31h0a51.47,51.47,0,0,0-43.76-30.87l-.42,0c-1-.07-2.13-.1-3.21-.1A52,52,0,0,0,200,190.43c-.11,1.44-.18,2.89-.18,4.32,0,1.75.1,3.53.27,5.28h0A12.48,12.48,0,0,1,182,212.41h0a32.83,32.83,0,0,0-14.37-3.64Z" transform="translate(13.03)"/><polygon class="cls-7" points="187.77 213.78 201.5 213.78 201.5 208.06 190.45 205.25 188.11 211.49 187.77 213.78"/><polygon class="cls-7" points="309.14 181.52 324.02 181.52 325.32 176.58 313.46 169.09 308.47 175.31 309.14 181.52"/><polygon class="cls-7" points="381.83 220.34 396.49 220.34 398.6 211.39 378.55 210.61 381.83 220.34"/><path class="cls-8" d="M153.22,300.1a58.16,58.16,0,1,1,0-116.31h1.14a58,58,0,0,1,7.48.63,76.7,76.7,0,0,1,76-66.36c1.58,0,3.18.06,4.73.16h.08a76.27,76.27,0,0,1,58.32,33,55.85,55.85,0,0,1,17.59-5.31,54.84,54.84,0,0,1,7.28-.48A56.87,56.87,0,0,1,339.29,147h.1l1.66.46a56.64,56.64,0,0,1,40.62,46.31,53.16,53.16,0,0,1,4,106l-1.2.06Zm0-91.34a33.19,33.19,0,1,0,0,66.37l230.56-.21a28.17,28.17,0,1,0-11-55.06h0a12.49,12.49,0,0,1-15.8-13.68h0a31.05,31.05,0,0,0-22.29-34.55l-.34-.09A31.37,31.37,0,0,0,305,178.37h0a12.49,12.49,0,0,1-19.75-4.31h0a51.46,51.46,0,0,0-43.75-30.87l-.42,0c-1.05-.07-2.13-.1-3.21-.1a52,52,0,0,0-51.53,47.38c-.12,1.44-.18,2.89-.18,4.32a51.86,51.86,0,0,0,.27,5.28h0a12.48,12.48,0,0,1-18.11,12.38h0a32.8,32.8,0,0,0-14.37-3.64Z" transform="translate(13.03)"/><path class="cls-10" d="M296.26,275.43h-82a3.74,3.74,0,0,1-3.8-4.41l7.87-60a5.27,5.27,0,0,1,5-4.42h82a3.76,3.76,0,0,1,3.8,4.42l-7.88,60A5.25,5.25,0,0,1,296.26,275.43Z" transform="translate(13.03)"/><path class="cls-7" d="M293.55,271.27H211.5a3.76,3.76,0,0,1-3.8-4.42L215.58,211a5.26,5.26,0,0,1,5-4.42h82.05a3.74,3.74,0,0,1,3.79,4.42l-8,56.47C298.11,269.93,296,271.27,293.55,271.27Z" transform="translate(13.03)"/><path class="cls-5" d="M290.67,268.9H215a3.46,3.46,0,0,1-3.5-4.08l7.31-51.77a4.84,4.84,0,0,1,4.64-4.08h75.63a3.47,3.47,0,0,1,3.51,4.08l-7.31,51.77A4.86,4.86,0,0,1,290.67,268.9Z" transform="translate(13.03)"/><path class="cls-11" d="M290.67,269H215a3.63,3.63,0,0,1-2.79-1.22,3.67,3.67,0,0,1-.82-3l7.3-51.78a5,5,0,0,1,4.76-4.17h75.63a3.6,3.6,0,0,1,2.79,1.22,3.67,3.67,0,0,1,.83,3l-7.31,51.78A5,5,0,0,1,290.67,269Zm-67.18-59.92a4.73,4.73,0,0,0-4.53,4l-7.31,51.78a3.45,3.45,0,0,0,.78,2.8,3.37,3.37,0,0,0,2.61,1.14h75.63a4.72,4.72,0,0,0,4.53-4L302.51,213a3.44,3.44,0,0,0-.77-2.8,3.39,3.39,0,0,0-2.62-1.14Z" transform="translate(13.03)"/><rect class="cls-8" x="195.62" y="267.01" width="9.3" height="1.58"/><rect class="cls-8" x="206.56" y="267.01" width="9.3" height="1.58"/><rect class="cls-8" x="217.5" y="267.01" width="9.3" height="1.58"/><rect class="cls-8" x="228.44" y="267.01" width="30.82" height="1.58"/><rect class="cls-8" x="261.26" y="267.01" width="9.3" height="1.58"/><rect class="cls-8" x="272.2" y="267.01" width="9.3" height="1.58"/><rect class="cls-8" x="283.14" y="267.01" width="9.3" height="1.58"/><rect class="cls-8" x="294.08" y="267.01" width="9.3" height="1.58"/><path class="cls-10" d="M293.47,275.43H182c-3,0-5.49-.4-5.49-3.43v-3.41H299V272C299,275,296.5,275.43,293.47,275.43Z" transform="translate(13.03)"/><path class="cls-7" d="M294.7,272H176.62v-3.49H298.19A3.49,3.49,0,0,1,294.7,272Z" transform="translate(13.03)"/><path class="cls-10" d="M298.27,268.85l.3-1.28,1.64.55-.86,5L297.91,275l-1.28.32s-.18,0-.37,0h-4a32.83,32.83,0,0,1,2.76-2.79c.21,0,2.19-.13,2.19-.13l.61-1.77.41-.54Z" transform="translate(13.03)"/><path class="cls-5" d="M100,359.23l-45-6.61s-.71,19.79-.21,36.53a33.85,33.85,0,0,0-7.05,5.39c-4.5,4.45-11.46,15.75-16.42,27.66-3,7.1-6.62,8.23-6.62,8.23s7,13.39,9,20.56c0,0,47.51-38.25,54-48.34.1-.17.2-.33.28-.5a8.31,8.31,0,0,0,.66-1.15C93.51,390.21,100,359.23,100,359.23Z" transform="translate(13.03)"/><path class="cls-7" d="M33.48,451.54l-.13-.46c-2-7.06-8.91-20.37-9-20.5l-.18-.34.36-.11s3.58-1.21,6.43-8.05c4.69-11.28,11.63-22.95,16.49-27.76a34.35,34.35,0,0,1,7-5.35c-.49-16.52.21-36.16.22-36.36v-.35L100.36,359l-.07.33c-.07.31-6.53,31.13-11.46,41.84a9.09,9.09,0,0,1-.68,1.18c-.08.15-.18.32-.29.5-6.39,10-52.07,46.85-54,48.42Zm-8.4-21c1,2,6.75,13.27,8.74,19.86,4.45-3.6,47.47-38.5,53.51-48q.15-.24.27-.48a9.37,9.37,0,0,0,.66-1.13c4.62-10,10.63-38,11.34-41.37L55.26,353c-.1,2.74-.66,20.83-.2,36.15v.19l-.16.09a33.54,33.54,0,0,0-7,5.35c-4.13,4.08-11.07,14.85-16.36,27.55C29.07,428.3,26.09,430.12,25.08,430.59Z" transform="translate(13.03)"/><path class="cls-5" d="M138.16,356l-45.49,1.26s3.56,25.8,7.62,43c0,.07,0,.13,0,.2-1,6.25,1.08,35.54,5.33,47.72,2.53,7.26,5.32,21.09,5.32,21.09s11.31-7.57,17.62-3.6c0,0,6-49.45,5.72-67.41a5.71,5.71,0,0,0,.13-1C134.92,386.18,138.16,356,138.16,356Z" transform="translate(13.03)"/><path class="cls-7" d="M110.68,469.7l-.09-.47c0-.13-2.81-13.89-5.31-21.05-4.14-11.86-6.37-41.36-5.34-47.87a.59.59,0,0,1,0-.13v0c-4-17-7.58-42.65-7.62-42.91l0-.35,46.2-1.28,0,.36c0,.3-3.24,30.35-3.78,41.19a6.59,6.59,0,0,1-.14,1.05c.34,17.71-5.66,66.9-5.72,67.39l-.06.5-.42-.27c-6.07-3.82-17.17,3.52-17.28,3.59ZM93,357.51c.44,3.15,3.82,26.71,7.57,42.58v.06l0,.26c-1,6.46,1.2,35.77,5.32,47.56,2.25,6.46,4.73,18.23,5.23,20.69,2-1.3,11.3-6.75,17.15-3.6.62-5.14,6-50.1,5.67-66.9a8.9,8.9,0,0,0,.13-1c.51-10.21,3.38-37.41,3.75-40.87Z" transform="translate(13.03)"/><path class="cls-8" d="M131.17,461.3H108.24s2,9.11-.14,15.95-2.56,13,2,13,23.22.42,31.9.85,29.63,0,29.63,0a16.36,16.36,0,0,0-14.87-9.17C147.49,481.89,136,473.69,131.17,461.3Z" transform="translate(13.03)"/><path class="cls-7" d="M121,488.11h-.86c0-11.32-11-12.56-11.47-12.61l.08-.85C108.83,474.66,121,476,121,488.11Z" transform="translate(13.03)"/><path class="cls-7" d="M118.72,480.83l-.73-.46c.06-.1,6.42-10,18.8-10.1v.86C124.88,471.2,118.78,480.73,118.72,480.83Z" transform="translate(13.03)"/><path class="cls-7" d="M120.64,484.38l-.73-.45c.07-.11,6.75-10.74,19.77-10.81V474C127.15,474.05,120.71,484.28,120.64,484.38Z" transform="translate(13.03)"/><path class="cls-7" d="M151,487.75h-.86a6.32,6.32,0,0,1,5.59-6.69l.07.85C155.61,481.93,151,482.4,151,487.75Z" transform="translate(13.03)"/><path class="cls-5" d="M106.61,487.22a3.18,3.18,0,0,0,3.48,3c4.56,0,23.22.42,31.9.85s29.63,0,29.63,0a15.13,15.13,0,0,0-2-3.17Z" transform="translate(13.03)"/><path class="cls-7" d="M153.51,491.57c-4.39,0-8.65-.05-11.53-.19-8.65-.43-27.32-.86-31.88-.86a3.51,3.51,0,0,1-3.81-3.25l-.06-.37,63.5.68.09.11a15.58,15.58,0,0,1,2.09,3.25l.18.43h-.47C171.48,491.38,162.23,491.57,153.51,491.57Zm-46.52-4a2.83,2.83,0,0,0,3.11,2.35c4.56,0,23.25.43,31.91.86,7.83.38,25.88.07,29.1,0a15.35,15.35,0,0,0-1.68-2.55Z" transform="translate(13.03)"/><path class="cls-8" d="M39.38,448c-5.64,4.22-9,8.61-13.14,20.2-1.46,4-3.19,7.92-2.3,12.37.78,3.88,3.86,7.29,6.68,9.12.9.58.9,1.57-.18,1.56-3.89,0-9.58-.07-13.41-.07-6.3,0-13.78-3.58-11.69-12.71s.66-16-1.8-25.92,1-16.77,11.86-18.58a24.3,24.3,0,0,0,13-6.49S41.61,434.89,39.38,448Z" transform="translate(13.03)"/><path class="cls-5" d="M21.31,477.83c-1.4-7.91-.41-16.19,0-20,.47-4.36,2.73-10.68.5-16.69-2.69-7.23-7-7-7.38-7-10,1.67-13.27,8.76-10.89,18.39,2.46,9.93,3.89,16.79,1.8,25.92s5.39,12.71,11.7,12.71c2.9,0,7.49,0,11,0a1.16,1.16,0,0,0,.72-2.07C26.06,487.14,22.32,483.6,21.31,477.83Z" transform="translate(13.03)"/><path class="cls-7" d="M28,491.58h0c-3.48,0-8.07,0-11,0-4.41,0-8.31-1.61-10.46-4.3C4.74,484.93,4.22,482,5,478.44c2.06-9,.69-15.71-1.79-25.77-1.32-5.32-.88-9.85,1.25-13.1,2-3,5.3-4.91,9.89-5.68,0,0,4.8-.7,7.72,7.16,1.73,4.63.82,9.48.09,13.37-.24,1.25-.46,2.42-.57,3.47l-.05.42c-.42,3.86-1.29,11.88.05,19.47.76,4.32,3.15,8,7.31,11.16a1.47,1.47,0,0,1-.91,2.64ZM14.69,434.5h-.21c-4.41.74-7.59,2.56-9.46,5.4-2,3.11-2.44,7.46-1.17,12.6,2.51,10.16,3.88,17,1.8,26.07-.77,3.34-.29,6.12,1.43,8.27,2,2.54,5.74,4,10,4,2.9,0,7.49,0,11,.05h0a.84.84,0,0,0,.52-1.5c-4.29-3.29-6.75-7.08-7.54-11.56h0c-1.35-7.68-.48-15.76-.05-19.65l0-.42c.12-1.07.34-2.26.58-3.52.71-3.81,1.6-8.56-.06-13C19.15,434.92,15.58,434.5,14.69,434.5Z" transform="translate(13.03)"/><path class="cls-2" d="M18.82,477.83c-1.4-7.91-.42-16.19,0-20,.48-4.36,2.74-10.68.5-16.69-2.69-7.23-7-7-7.37-7C2,435.87-1.33,443,1.05,452.59c2.46,9.93,3.89,16.79,1.8,25.92s5.39,12.71,11.69,12.71c3.22,0,8.5,0,12.05,0a.8.8,0,0,0,.48-1.45C24.42,487.88,19.94,484.23,18.82,477.83Z" transform="translate(13.03)"/><path class="cls-7" d="M26.6,491.57h0c-3.55,0-8.83,0-12,0-4.4,0-8.31-1.61-10.45-4.3-1.84-2.31-2.36-5.27-1.55-8.8,2.05-9,.69-15.72-1.8-25.77-1.31-5.32-.88-9.85,1.26-13.1,2-3,5.3-4.91,9.89-5.68,0,0,4.79-.7,7.72,7.16,1.72,4.64.82,9.48.08,13.37-.23,1.25-.45,2.42-.56,3.47l-.05.43c-.42,3.85-1.29,11.88.05,19.46h0c1.06,6.05,5.15,9.61,8.13,11.76a1.12,1.12,0,0,1-.66,2ZM12.2,434.5H12c-4.41.74-7.59,2.56-9.46,5.4-2,3.11-2.44,7.46-1.17,12.6,2.51,10.15,3.88,17,1.8,26.07-.77,3.34-.29,6.12,1.42,8.27,2,2.54,5.75,4,10,4l12.06,0h0a.48.48,0,0,0,.29-.88c-3.07-2.21-7.28-5.89-8.39-12.16h0c-1.35-7.67-.47-15.76-.05-19.64l.05-.43c.11-1.07.34-2.26.57-3.51.72-3.82,1.61-8.57-.05-13C16.66,434.92,13.09,434.5,12.2,434.5Z" transform="translate(13.03)"/><path class="cls-5" d="M3.08,446.1c0,5.13,3.24,9.28,7.23,9.28s7.22-4.15,7.22-9.28-3.23-9.29-7.22-9.29S3.08,441,3.08,446.1Z" transform="translate(13.03)"/><path class="cls-7" d="M22.6,454.45l-.66-.54c6.78-8.28,4.9-14.7,3.77-17.08-1.28-2.7-3.32-4.15-4.6-4.15v-.86c1.87,0,4.08,1.91,5.38,4.64C27.68,439,29.7,445.8,22.6,454.45Z" transform="translate(13.03)"/><path class="cls-7" d="M28.87,462.72l-.81-.27A7.89,7.89,0,0,0,24,452.33l.35-.79A8.86,8.86,0,0,1,28.87,462.72Z" transform="translate(13.03)"/><path class="cls-7" d="M31.44,457.48l-.82-.27a7.88,7.88,0,0,0-4.07-10.11l.34-.79A8.87,8.87,0,0,1,31.44,457.48Z" transform="translate(13.03)"/><path class="cls-5" d="M133.59,159.74s0,0,0-.05c-.64-1.71,2.81-22.62,8.12-24.15,2.24-.64,11.7,0,13.77,0,8.07,0,6,10.11,5.6,16.91-.4,7.62-3.8,19-9.7,19.13a9.45,9.45,0,0,1-3.29-.87l-2.85,8.75s-12.6,3.19-18-5.36Z" transform="translate(13.03)"/><path class="cls-7" d="M139.93,180.41c-4.19,0-9.81-1.06-13-6.08l-.1-.16L127,174l6.27-14.3c-.43-2.12,1.57-14.2,4.73-20.47,1.16-2.31,2.39-3.67,3.65-4,1.71-.48,7.31-.24,11-.07,1.29.06,2.32.1,2.85.1A5.86,5.86,0,0,1,160,137c2.46,2.67,2,7.95,1.64,12.61-.08,1-.17,2-.21,2.93-.41,7.75-3.88,19.29-10,19.47a8.74,8.74,0,0,1-3.08-.76l-2.8,8.58-.19.05A25,25,0,0,1,139.93,180.41Zm-12.27-6.3c4.86,7.5,15.74,5.44,17.29,5.1l2.91-8.92.35.14a9.32,9.32,0,0,0,3.14.85c5.48-.16,9-11,9.36-18.81,0-.94.14-1.93.22-3,.37-4.52.79-9.64-1.46-12.08a5.1,5.1,0,0,0-4-1.51c-.55,0-1.58,0-2.88-.1-3.44-.15-9.19-.41-10.79.05-1.07.31-2.15,1.55-3.23,3.68-3.25,6.47-5.13,18.79-4.67,20l.05.13,0,.17Z" transform="translate(13.03)"/><path class="cls-7" d="M205.41,220.08s8.82,5.2,7.63,9.15-5.35-1.75-5.35-1.75,2.6,4.09,1.27,4.86-4.41-.44-5.93-2.87-6.34-6.33-5.22-7.28S200.57,218.16,205.41,220.08Z" transform="translate(13.03)"/><path class="cls-5" d="M142.43,212.15s8.35,19.67,12.74,30.56c6.29-2.06,16.77-7,22.89-9v0s1.67-.38,8.77-9.17,15.78-9.65,24.39-6.88,4.36,4.11,2.11,4.21-13.72-2.06-14.8.82c0,0,.3,2.74,4.1,2.09s7.07-1.72,9.27-.11-.41,2.23-2,3-6,1.88-7.75,3.11-5.47,6.43-9.72,7a79,79,0,0,0-7,5,.32.32,0,0,1-.19.07l-32,29.54c-2.59,2-13.52,1.46-16.52.11l-.05,0a7.51,7.51,0,0,1-1.43-.63c-10-5.85-27.18-27.41-33.35-46.77S130.73,190.28,142.43,212.15Z" transform="translate(13.03)"/><path class="cls-7" d="M145.94,274.05c-3.79,0-7.75-.53-9.33-1.24a8.26,8.26,0,0,1-1.52-.67c-10.56-6.18-27.53-28.08-33.57-47-3.21-10.08,4.34-18.48,12.71-22,9.7-4.1,22.31-2.95,28.63,8.85l0,0c.08.2,8.18,19.29,12.56,30.15,3.25-1.1,7.53-2.89,11.68-4.62,3.79-1.58,7.38-3.08,10.23-4.09l0-.07.63-.15s1.82-.74,8.5-9c6.41-7.94,14.79-10.3,24.91-7,5.07,1.64,5.6,2.74,5.49,3.51-.2,1.48-3.37,1.64-3.5,1.64a27.24,27.24,0,0,1-3.17-.23c-3.35-.34-10.23-1.05-11.14.63a2,2,0,0,0,.76,1.16,3.54,3.54,0,0,0,2.75.39c.67-.11,1.31-.24,1.94-.36,3.06-.6,5.71-1.12,7.69.34.77.56,1.11,1.09,1,1.64-.1.89-1.21,1.36-2.28,1.82-.28.11-.55.23-.79.34-.6.29-1.57.62-2.69,1a24.06,24.06,0,0,0-5,2.07,16.64,16.64,0,0,0-1.83,1.71c-2,2.05-4.81,4.86-8,5.3a75.6,75.6,0,0,0-6.78,4.88.64.64,0,0,1-.29.17l-31.9,29.46C152.34,273.65,149.2,274.05,145.94,274.05Zm-21.41-72.16a25.73,25.73,0,0,0-9.92,2.07c-8,3.37-15.2,11.34-12.17,20.84,6,18.77,22.73,40.41,33.14,46.51a6.89,6.89,0,0,0,1.33.58l.11,0c2.93,1.32,13.67,1.78,16-.05l32.05-29.59.12,0h0a80.31,80.31,0,0,1,7-5l.09-.06h.11c2.91-.36,5.59-3.07,7.54-5a17.09,17.09,0,0,1,2-1.82,24.11,24.11,0,0,1,5.23-2.2c1-.36,2-.69,2.58-1l.83-.36c.62-.27,1.66-.71,1.7-1,0-.12-.15-.38-.65-.75-1.64-1.2-4.09-.73-6.94-.17-.63.12-1.28.25-1.95.36a4.43,4.43,0,0,1-3.52-.58,3,3,0,0,1-1.15-1.93v-.11l0-.11c.87-2.32,6.27-2,12.19-1.36,1.35.13,2.5.25,3,.23,1.43-.07,2.56-.54,2.59-.81,0,0,.06-.88-4.82-2.46-9.71-3.13-17.74-.87-23.87,6.73-5,6.15-7.32,8.25-8.35,9l.11.11-.73.26c-2.9,1-6.7,2.57-10.73,4.25-4.35,1.82-8.85,3.7-12.17,4.79l-.43.14-.17-.42c-4.28-10.61-12.41-29.8-12.72-30.53A19.08,19.08,0,0,0,124.53,201.89Zm60.64,40.42Z" transform="translate(13.03)"/><path class="cls-9" d="M105.12,177.8c-6.39,1.69-13.25,6-13.51,22.08s4,31,16.06,51.39c0,0,35.6-5,40.31-27.26,0,0-10.37-23.86-17.84-34.92S112.16,175.93,105.12,177.8Z" transform="translate(13.03)"/><path class="cls-7" d="M108.88,225.26c-4.82-1.6-12.44-5.83-15-16.74l1-.23a21.51,21.51,0,0,0,18.27,16.94l-.08,1A19,19,0,0,1,108.88,225.26Z" transform="translate(13.03)"/><path class="cls-7" d="M136.28,239.74l.59.83c10.18-7.2,11.55-16.12,11.61-16.49l0-.15-4.34-9.78-.92.41,4.21,9.51C147.24,225.21,145.42,233.28,136.28,239.74Z" transform="translate(13.03)"/><path class="cls-7" d="M33.58,294.07c-1.09,10.13,6,75.56,12.44,85.33,4.57,7,48.95,5.06,49-1,.2-18.6,3.28-80.47,1.06-91.17C93.94,277,36.88,263.62,33.58,294.07Z" transform="translate(13.03)"/><path class="cls-12" d="M54.76,376.7l-.63-.65c9.16-8.87,22-2.23,22.1-2.16l-.42.8C75.69,374.62,63.44,368.29,54.76,376.7Z" transform="translate(13.03)"/><path class="cls-12" d="M99.93,272c-.47-7-24.77-18.63-43.21-16.94l-5.32,64.8a99.69,99.69,0,0,1,7.7,11.72c7.31,16.06,14,27.23,30.48,31.67C94.19,331.46,100.49,280.35,99.93,272Z" transform="translate(13.03)"/><path class="cls-7" d="M54.29,284.27c1.51,10.08,33.61,93.13,42.29,101,6.19,5.57,26.27-10.35,46.18-10.27,7,0-24.87-103.31-29.72-113.09C108.35,252.43,49.77,254,54.29,284.27Z" transform="translate(13.03)"/><path class="cls-9" d="M158.63,192.23c9.24,13.37,5.67,34.63-8,67.8s-9.65,41.93-17,48.83c0,0-60.84,32.77-106.14-13.74,0,0,5.85-8.62,27.69-47.56s26.64-50,39.1-63.44,39.27-15,47.3-8.88C148.73,180.68,151.5,181.91,158.63,192.23Z" transform="translate(13.03)"/><path class="cls-5" d="M167.11,260.85c5.26-3.82,12.87-7.62,20.38-11.32,5-2.82,21.22-11.72,21.22-11.75s4-3.05,11.87-10.31c7.12-6.61,9.8-5.18,11.74-4.57,2.39.73,10.24,6.66,15.63,11.43.87.77-.49,2.42-1.62,2.14-4.41-1.05-11.47-6.7-11.47-6.7s5.36,6.59,4.64,7.81c-.41.7-3.45,3.09-6,5-1.81,1.37-3,.94-4.67-.55a40.07,40.07,0,0,0-3.72-3.12c-1.79-.87-3.49.84-4.27,4-1.32,5.29-6.37,5.44-7.49,5.41v0c-6.5,8.2-19.84,28.31-29.51,36.17C164.89,299.94,155.89,269,167.11,260.85Z" transform="translate(13.03)"/><path class="cls-7" d="M174,289.1a9.54,9.54,0,0,1-3.58-.69c-4.38-1.75-7.58-6.8-8.38-13.17s1.09-11.9,4.89-14.67h0c5.44-4,13.4-7.88,20.42-11.35,3-1.67,10-5.54,15.09-8.36l6.09-3.36c.2-.16,4.28-3.27,11.84-10.29,6.84-6.35,9.78-5.39,11.72-4.76l.35.11c2.42.75,10.32,6.69,15.76,11.51a1.25,1.25,0,0,1,.2,1.6,2,2,0,0,1-2.13,1.14c-3-.71-7.06-3.41-9.5-5.18,1.64,2.2,3.61,5.18,3.05,6.13-.13.22-.54.9-6.06,5.11-2,1.52-3.34,1-5.11-.57l-.68-.6a34.3,34.3,0,0,0-3-2.47,1.65,1.65,0,0,0-1.47,0c-1,.46-1.83,1.82-2.31,3.76-1.32,5.25-6.18,5.66-7.62,5.67-1.69,2.13-3.8,5-6.25,8.36-6.78,9.26-16.07,21.94-23.24,27.77C180,288.07,176.64,289.1,174,289.1Zm34.9-51.1c-.42.32-1.79,1.08-6.12,3.47-5.12,2.82-12.13,6.68-15.1,8.36-7,3.46-14.95,7.37-20.34,11.3h0c-3.59,2.62-5.36,8-4.61,14s3.87,11,7.94,12.61c3.79,1.52,8.29.3,13-3.54,7.11-5.78,16.36-18.42,23.12-27.65,2.44-3.32,4.55-6.2,6.24-8.35L213,248l.42,0c1,0,5.88-.09,7.15-5.14.53-2.14,1.51-3.67,2.68-4.22a2.34,2.34,0,0,1,2.08,0,27.91,27.91,0,0,1,3.1,2.57l.68.6c1.59,1.39,2.58,1.79,4.24.53,4.89-3.71,5.74-4.67,5.88-4.9.33-.56-1.79-3.95-4.61-7.42l-2.05-2.51,2.53,2c.07.06,7.05,5.61,11.34,6.64a1.41,1.41,0,0,0,1.36-.79.62.62,0,0,0-.05-.76c-5.39-4.77-13.16-10.64-15.5-11.36l-.36-.12c-1.9-.62-4.5-1.47-11,4.61-7.75,7.2-11.86,10.3-11.9,10.33Z" transform="translate(13.03)"/><path class="cls-7" d="M234.47,241.91l-7.06-8.22A82.18,82.18,0,0,1,234.47,241.91Z" transform="translate(13.03)"/><path class="cls-7" d="M237.06,239.88l-7.57-10.34S235.11,236.33,237.06,239.88Z" transform="translate(13.03)"/><path class="cls-5" d="M177.64,233.66s7.51,24.51,8,29.37c1,10.74-9.63,29.77-17.71,23.49s-24-28.66-27.17-46.32S169.91,213.16,177.64,233.66Z" transform="translate(13.03)"/><path class="cls-7" d="M171.33,288.1a5.85,5.85,0,0,1-3.63-1.31c-7.76-6-24-28.27-27.29-46.53-1.64-9.15,5.9-15.6,13.61-17.72,8.92-2.46,19.79,0,23.94,11v0c.3,1,7.52,24.59,8,29.43.79,8.29-5,20.71-11.27,24.17A7,7,0,0,1,171.33,288.1Zm-10.94-65.75a23.4,23.4,0,0,0-6.19.85c-7.42,2-14.68,8.21-13.12,16.94,3.25,18.1,19.35,40.14,27,46.11a5.3,5.3,0,0,0,6.24.31c6-3.29,11.68-15.59,10.92-23.5-.46-4.73-7.77-28.67-8-29.29C174.24,225.62,167.33,222.35,160.39,222.35Z" transform="translate(13.03)"/><path class="cls-9" d="M145.24,186.29c-5.79.75-12.3,3.75-14.37,17.78s3.57,40.54,11.82,59.83c0,0,32.1,0,41.64-20.35,0,0-13.22-33.94-18.48-44.49S151.62,185.47,145.24,186.29Z" transform="translate(13.03)"/><path class="cls-7" d="M150.26,242.58a19.91,19.91,0,0,1-14.73-17.71l.86-.08a19.08,19.08,0,0,0,14.05,16.94Z" transform="translate(13.03)"/><path class="cls-5" d="M167.75,285.86s3.45,3.5,7.65,2.48,12.08-13,12.08-13l2.65-11.43-6.47.7-9.31-.11L167,272.82Z" transform="translate(13.03)"/><path class="cls-12" d="M110.29,379.53c-5.39-6.1-14.52-3.64-14.61-3.61l-.38.1L79.65,340.6l.83-.36L95.82,375c1.86-.41,10-1.81,15.15,4Z" transform="translate(13.03)"/><path class="cls-7" d="M76.45,280.83a27.43,27.43,0,0,1-13.33-12.36l.79-.35c.08.17,8.16,17.8,32.63,14l.13.86C88.08,284.31,81.45,283.06,76.45,280.83Z" transform="translate(13.03)"/><path class="cls-7" d="M71,219.69l-.66-.31a152.86,152.86,0,0,1,24.39-36.3l.53.51A152,152,0,0,0,71,219.69Z" transform="translate(13.03)"/><path class="cls-9" d="M153.55,186.16a21.86,21.86,0,0,0,4.41,3.92c2,1.17-1.29,14.31-1.29,14.31L146.15,213l-19.73-2.16-1.64-22.56,10.75-7Z" transform="translate(13.03)"/><path class="cls-7" d="M119.11,148.11c2-20,13.79-26.63,29.41-19.58,7,3.18,7.13,1.25,12.09,5.25,4.62,3.72-9.13,21.92-9.13,21.92l-2.78-8.2s-5.38,2.87-6.85,10.7c-1.51,8-1,30.12-1,30.12s-20.54,2-31.34-6.17C109.48,182.15,118.25,156.59,119.11,148.11Z" transform="translate(13.03)"/><path class="cls-5" d="M140.83,149.84c-.94,3.09.45,6.24,3.09,7s5.54-1,6.48-4.14-.45-6.23-3.1-7S141.76,146.76,140.83,149.84Z" transform="translate(13.03)"/><path class="cls-7" d="M143.82,157.23a5,5,0,0,1-3.12-2.87,6.65,6.65,0,0,1-.22-4.62h0c1-3.28,4.1-5.24,6.93-4.38a5,5,0,0,1,3.12,2.86,6.92,6.92,0,0,1-2.53,8.36,5.27,5.27,0,0,1-2.81.85A4.54,4.54,0,0,1,143.82,157.23ZM141.18,150a6,6,0,0,0,.19,4.12A4.16,4.16,0,0,0,147.6,156a6.18,6.18,0,0,0,2.25-7.44,4.28,4.28,0,0,0-2.65-2.46,4.16,4.16,0,0,0-1.15-.17A5.4,5.4,0,0,0,141.18,150Z" transform="translate(13.03)"/><path class="cls-7" d="M145.44,155.61a3.28,3.28,0,0,0,1.66-.62l-.58-.81a2,2,0,0,1-1.2.41c-.06,0-.12-.05-.19-.19s-.07-.32.24-.7a2.65,2.65,0,0,0,.72-2.19,4.42,4.42,0,0,0-.69-1.85c-.4-.69-.47-.81.11-1.29a.82.82,0,0,1,.66-.2,4.59,4.59,0,0,1,2.28,1.59l.78-.63c-.15-.18-1.5-1.81-3-2a1.87,1.87,0,0,0-1.4.43,1.69,1.69,0,0,0-.34,2.57,3.45,3.45,0,0,1,.57,1.45,1.63,1.63,0,0,1-.51,1.44,1.52,1.52,0,0,0-.37,1.74,1.29,1.29,0,0,0,.84.76A1.58,1.58,0,0,0,145.44,155.61Z" transform="translate(13.03)"/><path class="cls-7" d="M148,171.1l.24-.7a23.62,23.62,0,0,1-4.58-2.17l-.42.61A23.86,23.86,0,0,0,148,171.1Z" transform="translate(13.03)"/><path class="cls-4" d="M274.92.24H392.84a3.53,3.53,0,0,1,3.53,3.53v79.9a5.13,5.13,0,0,1-5.13,5.13H276.52a5.13,5.13,0,0,1-5.13-5.13V3.76A3.53,3.53,0,0,1,274.92.24Z"/><path class="cls-2" d="M379.75.24H262a3.57,3.57,0,0,0-3.57,3.57V8H383.33V3.81A3.57,3.57,0,0,0,379.75.24Z" transform="translate(13.03)"/><path class="cls-7" d="M383.57,8.22H258.22V3.81A3.82,3.82,0,0,1,262,0H379.75a3.82,3.82,0,0,1,3.82,3.81ZM258.69,7.75h124.4V3.81A3.34,3.34,0,0,0,379.75.48H262a3.34,3.34,0,0,0-3.34,3.33Z" transform="translate(13.03)"/><path class="cls-10" d="M370.56,3.47a.85.85,0,0,0-.85.85.85.85,0,1,0,1.7,0A.85.85,0,0,0,370.56,3.47Z" transform="translate(13.03)"/><path class="cls-9" d="M374.17,3.47a.86.86,0,1,0,.85.85A.85.85,0,0,0,374.17,3.47Z" transform="translate(13.03)"/><path class="cls-8" d="M377.78,3.47a.86.86,0,1,0,.85.85A.85.85,0,0,0,377.78,3.47Z" transform="translate(13.03)"/><path class="cls-10" d="M379.8,0H261.88a3.74,3.74,0,0,0-3.74,3.73V83.67A5.36,5.36,0,0,0,263.49,89h114.7a5.36,5.36,0,0,0,5.35-5.35V3.76A3.74,3.74,0,0,0,379.8,0Zm3.31,83.64a4.92,4.92,0,0,1-4.92,4.92H263.49a4.93,4.93,0,0,1-4.92-4.92V3.76A3.32,3.32,0,0,1,261.88.45H379.8a3.31,3.31,0,0,1,3.31,3.31Z" transform="translate(13.03)"/><path class="cls-7" d="M372.3,74.59H269.54a1,1,0,0,1-1-1h0a1,1,0,0,1,1-1H372.3a1,1,0,0,1,1,1h0A1,1,0,0,1,372.3,74.59Z" transform="translate(13.03)"/><path class="cls-9" d="M343.14,74.59h-73.6a1,1,0,0,1-1-1h0a1,1,0,0,1,1-1h73.6a1,1,0,0,1,1,1h0A1,1,0,0,1,343.14,74.59Z" transform="translate(13.03)"/><path class="cls-9" d="M347.22,73.58a3.06,3.06,0,1,1-3.06-3.06A3.06,3.06,0,0,1,347.22,73.58Z" transform="translate(13.03)"/><polygon class="cls-7" points="332.39 39.89 332.39 39.89 332.39 39.89 332.39 39.88 332.39 39.88 332.39 39.89 332.39 39.89"/><path class="cls-9" d="M343,38.37a22.17,22.17,0,1,1-22.17-22.16A22.16,22.16,0,0,1,343,38.37Z" transform="translate(13.03)"/><path class="cls-5" d="M330.82,38.25l-14.25-9.17a.81.81,0,0,0-1.25.69V48.11a.81.81,0,0,0,1.25.68l14.25-9.17A.81.81,0,0,0,330.82,38.25Z" transform="translate(13.03)"/><path class="cls-7" d="M495.24,58l-1.95-6.73a3.34,3.34,0,0,0-3.21-2.42H450.27a3.35,3.35,0,0,0-3.35,3.35v69.12a3.35,3.35,0,0,0,3.35,3.35H542.9a3.35,3.35,0,0,0,3.34-3.35V63.75a3.35,3.35,0,0,0-3.34-3.34H498.45A3.34,3.34,0,0,1,495.24,58Z" transform="translate(13.03)"/><rect class="cls-5" x="457.54" y="22.49" width="75.11" height="91.29" transform="translate(12.96 0.57) rotate(-0.07)"/><path class="cls-7" d="M457.27,114.15v-.32l-.11-91.62h.32l75.44-.09v.32l.1,91.62h-.32Zm.54-91.3.1,90.65,74.47-.08-.11-90.65Z" transform="translate(13.03)"/><rect class="cls-7" x="468.61" y="40.22" width="30.84" height="2.34" transform="translate(12.99 0.56) rotate(-0.07)"/><rect class="cls-7" x="468.61" y="46.87" width="15.42" height="2.34" transform="translate(12.98 0.54) rotate(-0.07)"/><rect class="cls-7" x="488.45" y="46.85" width="15.42" height="2.33" transform="translate(12.98 0.57) rotate(-0.07)"/><rect class="cls-7" x="508.51" y="46.83" width="15.42" height="2.33" transform="translate(12.98 0.59) rotate(-0.07)"/><rect class="cls-7" x="502.44" y="40.19" width="21.48" height="2.34" transform="translate(12.99 0.59) rotate(-0.07)"/><rect class="cls-7" x="493.09" y="53.26" width="30.84" height="2.34" transform="translate(12.97 0.58) rotate(-0.07)"/><rect class="cls-7" x="468.62" y="53.29" width="21.48" height="2.34" transform="translate(12.97 0.56) rotate(-0.07)"/><rect class="cls-7" x="468.63" y="59.65" width="30.84" height="2.34" transform="translate(12.96 0.56) rotate(-0.07)"/><rect class="cls-7" x="468.64" y="66.3" width="15.42" height="2.34" transform="translate(12.96 0.54) rotate(-0.07)"/><rect class="cls-7" x="488.47" y="66.28" width="15.42" height="2.34" transform="translate(12.96 0.56) rotate(-0.07)"/><rect class="cls-7" x="508.53" y="66.26" width="15.42" height="2.34" transform="translate(12.96 0.59) rotate(-0.07)"/><rect class="cls-7" x="502.47" y="59.62" width="21.48" height="2.34" transform="translate(12.96 0.59) rotate(-0.07)"/><rect class="cls-7" x="493.11" y="72.69" width="30.84" height="2.34" transform="translate(12.95 0.58) rotate(-0.07)"/><rect class="cls-7" x="468.64" y="72.72" width="21.48" height="2.34" transform="translate(12.95 0.56) rotate(-0.07)"/><path class="cls-8" d="M446.91,62.93a4.63,4.63,0,0,0-4.64,4.63h0v56.27a3.35,3.35,0,0,0,3.35,3.35h92.63a3.35,3.35,0,0,0,3.34-3.35V66.27a3.35,3.35,0,0,0-3.34-3.34H446.91Z" transform="translate(13.03)"/><path class="cls-8" d="M490.59,60.26l-1.95-6.74a3.33,3.33,0,0,0-3.21-2.41H445.62a3.35,3.35,0,0,0-3.35,3.34v69.13a3.34,3.34,0,0,0,3.35,3.34h92.63a3.34,3.34,0,0,0,3.34-3.34V66a3.34,3.34,0,0,0-3.34-3.34H493.8A3.35,3.35,0,0,1,490.59,60.26Z" transform="translate(13.03)"/><path class="cls-8" d="M172.14,350.42c21.21-22.91,49,36.67,46.26,60.16l-10.56,0C197.59,404.65,155,369,172.14,350.42Z" transform="translate(13.03)"/><path class="cls-7" d="M212.91,410.69l.82-.37c-15.66-34.19-41-60-41.27-60.21l-.64.63C172.07,351,197.32,376.66,212.91,410.69Z" transform="translate(13.03)"/><path class="cls-7" d="M178.59,383.29c6.77,2.13,21.26,4,21.94,4l.11-.89c-.18,0-18.31-2.32-23.57-4.68l-.37.83A19.59,19.59,0,0,0,178.59,383.29Z" transform="translate(13.03)"/><path class="cls-7" d="M187.71,367.35c2.53-7.4,3.06-19.25,3.06-19.37l-.9,0c0,.12-.52,11.84-3,19.12Z" transform="translate(13.03)"/><path class="cls-7" d="M209.16,372.13c6.44,13.48,10.35,28.93,9.24,38.45C203.68,395.27,206.81,374.64,209.16,372.13Z" transform="translate(13.03)"/><path class="cls-8" d="M226.42,334.57c18.8-9.2,13,46.3-3.57,76l-7.69,0C211.34,403.12,211.2,342,226.42,334.57Z" transform="translate(13.03)"/><path class="cls-7" d="M218,410.5l.89.16c3-16.48,11.15-69.62,11.23-70.16l-.89-.14C229.11,340.9,221,394,218,410.5Z" transform="translate(13.03)"/><rect class="cls-7" x="219.7" y="386.88" width="12.75" height="0.9" transform="translate(-202.64 309.89) rotate(-49.79)"/><rect class="cls-7" x="219.66" y="360.37" width="0.9" height="12.16" transform="translate(-189.06 299.57) rotate(-50.01)"/><path class="cls-5" d="M187,410.54v4.55a27,27,0,0,0,4.41,14.77l1.16,1.79,9.18,58.11,22.1.06,6.83-58.07,1.17-1.78a27.16,27.16,0,0,0,4.5-14.74v-4.55Z" transform="translate(13.03)"/><path class="cls-7" d="M224.13,490.15l-22.68-.06,0-.28-9.18-58L191.11,430a27.56,27.56,0,0,1-4.47-15l0-4.88,50,.14v4.88a27.42,27.42,0,0,1-4.55,14.92L231,431.87ZM202,489.43l21.52.06,6.8-57.85,1.21-1.85A26.88,26.88,0,0,0,236,415.22V411l-48.69-.14v4.22a26.73,26.73,0,0,0,4.36,14.59l1.21,1.92Z" transform="translate(13.03)"/><rect class="cls-7" x="205.19" y="403.66" width="0.9" height="36.76" transform="translate(-203.93 626.52) rotate(-89.84)"/><rect class="cls-7" x="223.85" y="425.11" width="0.9" height="13.16" transform="translate(-194.98 654.77) rotate(-89.84)"/><path class="cls-7" d="M201.35,490.21h1.2v-.9h-.44L193,431.49l-1.21-1.88a26.65,26.65,0,0,1-4.34-14.52V411l48.9.14v-.91l-49.8-.13,0,5a27.61,27.61,0,0,0,4.49,15l1.11,1.71Z" transform="translate(13.03)"/></g></g></svg>